<?xml version="1.0" encoding="UTF-8" standalone="no"?>
<svg
   xmlns:dc="http://purl.org/dc/elements/1.1/"
   xmlns:cc="http://creativecommons.org/ns#"
   xmlns:rdf="http://www.w3.org/1999/02/22-rdf-syntax-ns#"
   xmlns:svg="http://www.w3.org/2000/svg"
   xmlns="http://www.w3.org/2000/svg"
   xmlns:sodipodi="http://sodipodi.sourceforge.net/DTD/sodipodi-0.dtd"
   xmlns:inkscape="http://www.inkscape.org/namespaces/inkscape"
   version="1.1"
   id="レイヤー_1"
   x="0px"
   y="0px"
   width="438.004px"
   height="592.145px"
   viewBox="0 0 438.004 592.145"
   enable-background="new 0 0 438.004 592.145"
   xml:space="preserve"
   sodipodi:docname="gopher01bw.svg"
   inkscape:version="1.0.1 (3bc2e813f5, 2020-09-07)"><metadata
   id="metadata55"><rdf:RDF><cc:Work
       rdf:about=""><dc:format>image/svg+xml</dc:format><dc:type
         rdf:resource="http://purl.org/dc/dcmitype/StillImage" /></cc:Work></rdf:RDF></metadata><defs
   id="defs53" /><sodipodi:namedview
   pagecolor="#ffffff"
   bordercolor="#666666"
   borderopacity="1"
   objecttolerance="10"
   gridtolerance="10"
   guidetolerance="10"
   inkscape:pageopacity="0"
   inkscape:pageshadow="2"
   inkscape:window-width="1920"
   inkscape:window-height="1147"
   id="namedview51"
   showgrid="false"
   inkscape:zoom="16"
   inkscape:cx="37.20741"
   inkscape:cy="3.5207524"
   inkscape:window-x="-8"
   inkscape:window-y="-8"
   inkscape:window-maximized="1"
   inkscape:current-layer="layer12" />
<g
   inkscape:groupmode="layer"
   id="layer2"
   inkscape:label="GoopherBase"
   style="display:none"><g
     id="g1064"
     transform="matrix(-1,0,0,1,53.621696,0)"><path
       fill="none"
       stroke="#000000"
       stroke-width="65.2795"
       stroke-linecap="round"
       stroke-linejoin="round"
       stroke-miterlimit="10"
       d="m 7.6685123,35.864196 c -1.4747293,0.214069 -3.192197,0.656584 -4.0859857,1.219142 -0.8087972,0.50927 -0.7026405,2.008321 -0.1272117,2.749917 0.6072869,0.783017 1.3199588,0.741139 2.1803462,0.331487 0.564736,-0.268955 1.2448885,-0.868257 1.947529,-1.539561 0.017638,-0.584923 0.03737,-1.170303 0.059858,-1.754428 0.013338,-0.346778 0.021606,-0.681802 0.025464,-1.006557 z"
       id="path2"
       style="stroke:#000000;stroke-width:0.377953;stroke-miterlimit:4;stroke-dasharray:none;stroke-opacity:1" /><path
       fill="none"
       stroke="#000000"
       stroke-width="65.2795"
       stroke-linecap="round"
       stroke-linejoin="round"
       stroke-miterlimit="10"
       d="m 50.039146,36.569847 c -0.826766,-0.520337 -2.357826,-0.937635 -3.749988,-1.16688 0.03483,0.777768 0.08279,1.632902 0.147605,2.597467 0.01168,0.174244 0.02326,0.346093 0.0345,0.5168 0.546658,0.499684 1.067079,0.920633 1.514635,1.133903 0.860608,0.409766 1.573059,0.451644 2.180346,-0.331373 0.575539,-0.741596 0.681806,-2.240876 -0.127101,-2.749917 z"
       id="path4"
       style="stroke:#000000;stroke-width:0.377953;stroke-miterlimit:4;stroke-dasharray:none;stroke-opacity:1" /><path
       fill="none"
       stroke="#000000"
       stroke-width="65.2795"
       stroke-linecap="round"
       stroke-linejoin="round"
       stroke-miterlimit="10"
       d="m 8.7508036,67.111047 c -1.0862598,1.999307 1.7527434,3.645902 3.2243854,2.259475 1.202448,-1.132875 2.151575,-2.093674 4.217166,-2.407474 -1.581878,-0.673929 -2.976356,-1.515484 -4.161607,-2.495682 -1.445958,0.585266 -2.6165477,1.422941 -3.2799444,2.643681 z"
       id="path6"
       style="stroke:#000000;stroke-width:0.377953;stroke-miterlimit:4;stroke-dasharray:none;stroke-opacity:1" /><path
       fill="none"
       stroke="#000000"
       stroke-width="65.2795"
       stroke-linecap="round"
       stroke-linejoin="round"
       stroke-miterlimit="10"
       d="m 41.664341,68.822913 c 1.216668,1.629821 4.239654,0.149711 3.355897,-1.953663 -0.58061,-1.381976 -1.677563,-2.528202 -3.050986,-3.217308 -0.8993,0.869284 -1.967592,1.67615 -3.230779,2.381116 1.397785,0.685225 2.082677,1.660174 2.925868,2.789855 z"
       id="path8"
       style="stroke:#000000;stroke-width:0.377953;stroke-miterlimit:4;stroke-dasharray:none;stroke-opacity:1" /><path
       fill="none"
       stroke="#000000"
       stroke-width="65.2795"
       stroke-linecap="round"
       stroke-linejoin="round"
       stroke-miterlimit="10"
       d="M 3.2255843,39.445512 C 3.592999,39.171992 3.8526034,38.875993 4.5245984,38.52157"
       id="path10"
       style="stroke:#000000;stroke-width:0.377953;stroke-miterlimit:4;stroke-dasharray:none;stroke-opacity:1" /><path
       fill="none"
       stroke="#000000"
       stroke-width="65.2795"
       stroke-linecap="round"
       stroke-linejoin="round"
       stroke-miterlimit="10"
       d="m 50.396088,38.932021 c -0.367415,-0.27352 -0.627019,-0.569519 -1.298904,-0.923942"
       id="path12"
       style="stroke:#000000;stroke-width:0.377953;stroke-miterlimit:4;stroke-dasharray:none;stroke-opacity:1" /><path
       fill="none"
       stroke="#000000"
       stroke-width="65.2795"
       stroke-linecap="round"
       stroke-linejoin="round"
       stroke-miterlimit="10"
       d="M 9.3792556,69.361964 C 9.4784675,68.79701 9.7761031,67.847165 10.66901,67.025465"
       id="path14"
       style="stroke:#000000;stroke-width:0.377953;stroke-miterlimit:4;stroke-dasharray:none;stroke-opacity:1" /><path
       fill="none"
       stroke="#000000"
       stroke-width="65.2795"
       stroke-linecap="round"
       stroke-linejoin="round"
       stroke-miterlimit="10"
       d="m 44.123142,69.178363 c -0.0029,-0.574084 -0.143747,-1.741991 -0.977347,-2.532653"
       id="path16"
       style="stroke:#000000;stroke-width:0.377953;stroke-miterlimit:4;stroke-dasharray:none;stroke-opacity:1" /><path
       fill="none"
       stroke="#000000"
       stroke-width="65.2795"
       stroke-linecap="round"
       stroke-linejoin="round"
       stroke-miterlimit="10"
       d="m 7.1965945,11.155686 c 0,-0.795227 0.621838,-1.4398297 1.3889662,-1.4398297 0.4498707,0 0.8484819,0.222627 1.1023541,0.5664377 C 10.301816,9.2426457 11.041936,8.3458619 11.883033,7.5745981 11.466343,7.1571868 10.789277,6.8522872 9.7264972,6.7045158 6.3036877,6.2282242 4.5545825,7.9786586 4.1549791,10.324629 c -0.3856035,2.263697 0.7904981,4.694792 3.4177386,5.326843 0.2711792,-1.105147 0.6034287,-2.118893 0.986607,-3.057326 -0.7548921,-0.01472 -1.3627302,-0.652477 -1.3627302,-1.43846 z"
       id="path18"
       style="stroke:#000000;stroke-width:0.377953;stroke-miterlimit:4;stroke-dasharray:none;stroke-opacity:1" /><path
       d="m 8.5855607,9.7158563 c -0.7671282,0 -1.3889662,0.6446027 -1.3889662,1.4398297 0,0.785983 0.6078381,1.423739 1.3627302,1.438345 0.2732735,-0.669364 0.572232,-1.30073 0.8942296,-1.898548 C 9.529286,10.555015 9.6078839,10.417742 9.6879148,10.28218 9.4340426,9.9384833 9.0353212,9.7158563 8.5855607,9.7158563 Z"
       id="path20"
       style="stroke:#000000;stroke-width:0.377953;stroke-miterlimit:4;stroke-dasharray:none;stroke-opacity:1" /><path
       fill="none"
       stroke="#000000"
       stroke-width="65.2795"
       stroke-linecap="round"
       stroke-linejoin="round"
       stroke-miterlimit="10"
       d="M 48.304261,9.4003445 C 47.904657,7.0542604 46.155552,5.3039401 42.732853,5.7802317 c -1.186684,0.165116 -1.892301,0.5260432 -2.291684,1.0207064 0.756987,0.6766672 1.461391,1.4543211 2.124457,2.3412915 0.03219,0.043019 0.06283,0.086495 0.09447,0.129628 0.2531,-0.3531678 0.657333,-0.5829836 1.114259,-0.5829836 0.767128,0 1.388966,0.6446025 1.388966,1.439829 0,0.697093 -0.47787,1.278251 -1.112606,1.411074 0.471477,0.945166 0.853774,1.962563 1.159787,3.097151 2.399053,-0.74753 3.463156,-3.068396 3.093757,-5.2365835 z"
       id="path22"
       style="stroke:#000000;stroke-width:0.377953;stroke-miterlimit:4;stroke-dasharray:none;stroke-opacity:1" /><path
       d="m 45.163323,10.128703 c 0,-0.7952265 -0.621838,-1.439829 -1.388966,-1.439829 -0.457036,0 -0.861159,0.2298158 -1.114259,0.5829836 0.530783,0.7240226 0.99289,1.4704104 1.390619,2.2679194 0.634736,-0.132823 1.112606,-0.713981 1.112606,-1.411074 z"
       id="path24"
       style="stroke:#000000;stroke-width:0.377953;stroke-miterlimit:4;stroke-dasharray:none;stroke-opacity:1" /><path
       fill="none"
       stroke="#000000"
       stroke-width="65.2795"
       stroke-linecap="round"
       stroke-linejoin="round"
       stroke-miterlimit="10"
       d="M 42.660098,9.2718576 C 42.62846,9.2287243 42.597815,9.1852488 42.565626,9.1422296 41.90245,8.2552592 41.198156,7.4776053 40.441169,6.8009381 37.156484,3.8651379 32.881004,2.8310807 26.691727,3.0213007 21.325247,3.1864166 15.616044,4.1516659 11.883033,7.5745981 11.041936,8.3457477 10.301926,9.2425316 9.6879148,10.282294 c -0.080031,0.135562 -0.1586288,0.272835 -0.2343605,0.413303 -0.3219976,0.597818 -0.6209561,1.22907 -0.8942296,1.898549 -0.3831783,0.938433 -0.7154278,1.952179 -0.986607,3.057326 -0.5254922,2.141829 -0.8226868,4.625186 -0.8225766,7.56053 2.205e-4,5.150088 0.9773472,7.705563 0.9184814,12.652308 -0.00386,0.324755 -0.012126,0.659779 -0.025464,1.006557 -0.022488,0.584125 -0.04222,1.169505 -0.059858,1.754428 -0.1822191,6.059995 -0.11707,12.079823 -0.1652428,16.207608 -0.044204,3.78888 1.6145078,7.1551 4.6128003,9.634577 1.185251,0.980198 2.579729,1.821753 4.161607,2.495682 2.768342,1.179546 6.109026,1.84697 9.903991,1.84697 5.540982,0 9.640748,-1.101381 12.642237,-2.77696 1.263188,-0.704966 2.331369,-1.511832 3.23078,-2.381116 2.244282,-2.168986 3.436037,-4.726629 3.969467,-7.062899 1.2644,-5.536919 1.098606,-9.594298 0.532547,-18.071581 -0.01135,-0.170707 -0.02282,-0.342555 -0.0345,-0.5168 -0.06482,-0.964565 -0.11266,-1.819699 -0.147605,-2.597467 -0.191038,-4.261178 0.0071,-6.198066 -0.0528,-11.061398 -0.05104,-4.138853 -0.352202,-7.207248 -1.025851,-9.704641 -0.306013,-1.134473 -0.688309,-2.151871 -1.159786,-3.097151 -0.39795,-0.797851 -0.859947,-1.5443529 -1.39084,-2.2682614 z"
       id="path26"
       style="stroke:#000000;stroke-width:0.377953;stroke-miterlimit:4;stroke-dasharray:none;stroke-opacity:1" /><path
       id="ellipse28"
       style="fill:none;stroke:#000000;stroke-width:0.377953;stroke-linecap:round;stroke-linejoin:round;stroke-miterlimit:4;stroke-dasharray:none;stroke-opacity:1"
       d="m 24.608278,13.109006 a 6.0519242,6.0591956 0 0 1 -6.051924,6.059196 6.0519242,6.0591956 0 0 1 -6.051924,-6.059196 6.0519242,6.0591956 0 0 1 6.051924,-6.0591955 6.0519242,6.0591956 0 0 1 6.051924,6.0591955 z" /><path
       id="circle30"
       style="stroke:#000000;stroke-width:0.377953;stroke-miterlimit:4;stroke-dasharray:none;stroke-opacity:1"
       d="m 17.465023,13.416986 a 2.0834492,2.1566629 0 0 1 -2.083449,2.156664 2.0834492,2.1566629 0 0 1 -2.08345,-2.156664 2.0834492,2.1566629 0 0 1 2.08345,-2.156662 2.0834492,2.1566629 0 0 1 2.083449,2.156662 z" /><path
       id="circle32"
       style="fill:#ffffff;stroke:#000000;stroke-width:0.377953;stroke-miterlimit:4;stroke-dasharray:none;stroke-opacity:1"
       d="m 16.869752,13.930478 a 0.59527123,0.61618942 0 0 1 -0.595271,0.616189 0.59527123,0.61618942 0 0 1 -0.595272,-0.616189 0.59527123,0.61618942 0 0 1 0.595272,-0.61619 0.59527123,0.61618942 0 0 1 0.595271,0.61619 z" /><path
       id="ellipse34"
       style="fill:none;stroke:#000000;stroke-width:0.377953;stroke-linecap:round;stroke-linejoin:round;stroke-miterlimit:4;stroke-dasharray:none;stroke-opacity:1"
       d="M 39.787696,12.390004 A 6.0519242,6.0591956 0 0 1 33.735771,18.4492 6.0519242,6.0591956 0 0 1 27.683847,12.390004 6.0519242,6.0591956 0 0 1 33.735771,6.3308084 6.0519242,6.0591956 0 0 1 39.787696,12.390004 Z" /><path
       id="circle36"
       style="stroke:#000000;stroke-width:0.377953;stroke-miterlimit:4;stroke-dasharray:none;stroke-opacity:1"
       d="m 32.644439,12.698213 a 2.0834492,2.1566629 0 0 1 -2.083449,2.156663 2.0834492,2.1566629 0 0 1 -2.08345,-2.156663 2.0834492,2.1566629 0 0 1 2.08345,-2.156663 2.0834492,2.1566629 0 0 1 2.083449,2.156663 z" /><path
       id="circle38"
       style="fill:#ffffff;stroke:#000000;stroke-width:0.377953;stroke-miterlimit:4;stroke-dasharray:none;stroke-opacity:1"
       d="m 32.049168,13.211705 a 0.59527123,0.61618942 0 0 1 -0.595272,0.616189 0.59527123,0.61618942 0 0 1 -0.595271,-0.616189 0.59527123,0.61618942 0 0 1 0.595271,-0.61619 0.59527123,0.61618942 0 0 1 0.595272,0.61619 z" /><path
       fill="none"
       stroke="#000000"
       stroke-width="65.2795"
       stroke-linecap="round"
       stroke-linejoin="round"
       stroke-miterlimit="10"
       d="m 26.366202,22.094873 c -1.188779,0.02145 -1.36703,0.570432 -2.390455,0.759625 -0.03616,0.653503 -0.08213,1.548005 -0.128204,2.612643 -0.09921,2.293594 2.711791,1.780103 2.711791,0.410793 0,-1.041702 0,-2.934203 0,-3.780664 -0.06173,-0.0024 -0.125338,-0.0035 -0.193132,-0.0024 z"
       id="path40"
       style="stroke:#000000;stroke-width:0.377953;stroke-miterlimit:4;stroke-dasharray:none;stroke-opacity:1" /><path
       fill="none"
       stroke="#000000"
       stroke-width="65.2795"
       stroke-linecap="round"
       stroke-linejoin="round"
       stroke-miterlimit="10"
       d="m 26.559334,25.87782 c 0,1.36931 2.811003,1.882801 2.711791,-0.410793 -0.04729,-1.093394 -0.09447,-2.00718 -0.13107,-2.664791 -1.288541,-0.06082 -1.445737,-0.663317 -2.580721,-0.70508 0,0.846347 0,2.738847 0,3.780664 z"
       id="path42"
       style="stroke:#000000;stroke-width:0.377953;stroke-miterlimit:4;stroke-dasharray:none;stroke-opacity:1" /><path
       fill="none"
       stroke="#000000"
       stroke-width="65.2795"
       stroke-linecap="round"
       stroke-linejoin="round"
       stroke-miterlimit="10"
       d="m 30.743209,19.807441 c -0.479965,-0.534601 -1.049552,-0.825922 -1.810617,-0.966618 -0.403902,0.612309 -1.410021,1.046267 -2.588217,1.046267 -1.133,0 -2.106819,-0.401436 -2.539162,-0.976775 -0.81475,0.161693 -1.405833,0.477547 -1.890538,1.056651 -0.951001,1.136413 -0.489114,2.840291 0.788845,2.932035 0.546437,0.03925 0.95067,0.01495 1.272227,-0.04462 1.023425,-0.189193 1.201676,-0.738172 2.390455,-0.759625 0.06779,-0.0011 0.1314,0 0.193132,0.0023 1.134874,0.04176 1.292069,0.644261 2.580721,0.705081 0.254865,0.01198 0.553823,0.003 0.913742,-0.03606 1.274211,-0.137729 1.678334,-1.85724 0.689412,-2.958622 z"
       id="path44"
       style="stroke:#000000;stroke-width:0.377953;stroke-miterlimit:4;stroke-dasharray:none;stroke-opacity:1" /><path
       d="m 26.344485,19.88709 c 1.178196,0 2.184205,-0.433958 2.588217,-1.046267 0.122031,-0.185085 0.189826,-0.38626 0.189826,-0.596905 0,-0.90751 -1.243566,-1.643172 -2.777933,-1.643172 -1.534146,0 -2.777932,0.735662 -2.777932,1.643172 0,0.237347 0.08576,0.462598 0.23877,0.666397 0.432123,0.575339 1.406053,0.976775 2.539052,0.976775 z"
       id="path46"
       style="stroke:#000000;stroke-width:0.377953;stroke-miterlimit:4;stroke-dasharray:none;stroke-opacity:1" /></g></g><g
   inkscape:groupmode="layer"
   id="layer3"
   inkscape:label="SilverFeatures"
   style="display:none"><path
     fill="none"
     stroke="#000000"
     stroke-width="65.2795"
     stroke-linecap="round"
     stroke-linejoin="round"
     stroke-miterlimit="10"
     d="m 45.953184,35.864196 c 1.474729,0.214069 3.192197,0.656584 4.085985,1.219142 0.808798,0.50927 0.702641,2.008321 0.127212,2.749917 -0.607287,0.783017 -1.319959,0.741139 -2.180346,0.331487 -0.564736,-0.268955 -1.244889,-0.868257 -1.947529,-1.539561 -0.01764,-0.584923 -0.03737,-1.170303 -0.05986,-1.754428 -0.01334,-0.346778 -0.02161,-0.681802 -0.02546,-1.006557 z"
     id="path2-2"
     style="stroke:#000000;stroke-width:0.755906;stroke-miterlimit:4;stroke-dasharray:none;stroke-opacity:1" /><path
     fill="none"
     stroke="#000000"
     stroke-width="65.2795"
     stroke-linecap="round"
     stroke-linejoin="round"
     stroke-miterlimit="10"
     d="m 3.5825501,36.569847 c 0.826766,-0.520337 2.357826,-0.937635 3.749988,-1.16688 -0.03483,0.777768 -0.08279,1.632902 -0.147605,2.597467 -0.01168,0.174244 -0.02326,0.346093 -0.0345,0.5168 -0.546658,0.499684 -1.067079,0.920633 -1.514635,1.133903 -0.860608,0.409766 -1.573059,0.451644 -2.180346,-0.331373 -0.575539,-0.741596 -0.681806,-2.240876 0.127101,-2.749917 z"
     id="path4-3"
     style="stroke:#000000;stroke-width:0.755906;stroke-miterlimit:4;stroke-dasharray:none;stroke-opacity:1" /><path
     fill="none"
     stroke="#000000"
     stroke-width="65.2795"
     stroke-linecap="round"
     stroke-linejoin="round"
     stroke-miterlimit="10"
     d="m 44.870892,67.111047 c 1.08626,1.999307 -1.752743,3.645902 -3.224385,2.259475 -1.202448,-1.132875 -2.151575,-2.093674 -4.217166,-2.407474 1.581878,-0.673929 2.976356,-1.515484 4.161607,-2.495682 1.445958,0.585266 2.616548,1.422941 3.279944,2.643681 z"
     id="path6-1"
     style="stroke:#000000;stroke-width:0.755906;stroke-miterlimit:4;stroke-dasharray:none;stroke-opacity:1" /><path
     fill="none"
     stroke="#000000"
     stroke-width="65.2795"
     stroke-linecap="round"
     stroke-linejoin="round"
     stroke-miterlimit="10"
     d="m 11.957355,68.822913 c -1.216668,1.629821 -4.2396539,0.149711 -3.3558969,-1.953663 0.58061,-1.381976 1.6775629,-2.528202 3.0509859,-3.217308 0.8993,0.869284 1.967592,1.67615 3.230779,2.381116 -1.397785,0.685225 -2.082677,1.660174 -2.925868,2.789855 z"
     id="path8-7"
     style="stroke:#000000;stroke-width:0.755906;stroke-miterlimit:4;stroke-dasharray:none;stroke-opacity:1" /><path
     fill="none"
     stroke="#000000"
     stroke-width="65.2795"
     stroke-linecap="round"
     stroke-linejoin="round"
     stroke-miterlimit="10"
     d="M 50.396112,39.445512 C 50.028697,39.171992 49.769093,38.875993 49.097098,38.52157"
     id="path10-0"
     style="stroke:#000000;stroke-width:0.755906;stroke-miterlimit:4;stroke-dasharray:none;stroke-opacity:1" /><path
     fill="none"
     stroke="#000000"
     stroke-width="65.2795"
     stroke-linecap="round"
     stroke-linejoin="round"
     stroke-miterlimit="10"
     d="m 3.2256081,38.932021 c 0.367415,-0.27352 0.627019,-0.569519 1.298904,-0.923942"
     id="path12-1"
     style="stroke:#000000;stroke-width:0.755906;stroke-miterlimit:4;stroke-dasharray:none;stroke-opacity:1" /><path
     fill="none"
     stroke="#000000"
     stroke-width="65.2795"
     stroke-linecap="round"
     stroke-linejoin="round"
     stroke-miterlimit="10"
     d="M 44.24244,69.361964 C 44.143229,68.79701 43.845593,67.847165 42.952686,67.025465"
     id="path14-4"
     style="stroke:#000000;stroke-width:0.755906;stroke-miterlimit:4;stroke-dasharray:none;stroke-opacity:1" /><path
     fill="none"
     stroke="#000000"
     stroke-width="65.2795"
     stroke-linecap="round"
     stroke-linejoin="round"
     stroke-miterlimit="10"
     d="m 9.4985541,69.178363 c 0.0029,-0.574084 0.143747,-1.741991 0.9773469,-2.532653"
     id="path16-3"
     style="stroke:#000000;stroke-width:0.755906;stroke-miterlimit:4;stroke-dasharray:none;stroke-opacity:1" /><path
     fill="none"
     stroke="#000000"
     stroke-width="65.2795"
     stroke-linecap="round"
     stroke-linejoin="round"
     stroke-miterlimit="10"
     d="m 46.425102,11.155686 c 0,-0.795227 -0.621838,-1.4398297 -1.388967,-1.4398297 -0.44987,0 -0.848482,0.222627 -1.102354,0.5664377 C 43.31988,9.2426457 42.57976,8.3458619 41.738663,7.5745981 c 0.41669,-0.4174113 1.093756,-0.7223109 2.156536,-0.8700823 3.422809,-0.4762916 5.171915,1.2741428 5.571518,3.6201132 0.385603,2.263697 -0.790498,4.694792 -3.417739,5.326843 -0.271179,-1.105147 -0.603428,-2.118893 -0.986607,-3.057326 0.754892,-0.01472 1.362731,-0.652477 1.362731,-1.43846 z"
     id="path18-0"
     style="stroke:#000000;stroke-width:0.755906;stroke-miterlimit:4;stroke-dasharray:none;stroke-opacity:1" /><path
     d="m 44.168142,10.695483 c -0.07573,-0.140468 0.321997,0.597818 0,0 z"
     id="path20-2"
     style="stroke:#000000;stroke-width:0.755906;stroke-miterlimit:4;stroke-dasharray:none;stroke-opacity:1"
     sodipodi:nodetypes="cc" /><path
     fill="none"
     stroke="#000000"
     stroke-width="65.2795"
     stroke-linecap="round"
     stroke-linejoin="round"
     stroke-miterlimit="10"
     d="m 5.3174351,9.4003445 c 0.399604,-2.3460841 2.148709,-4.0964044 5.5714079,-3.6201128 1.186684,0.165116 1.892301,0.5260432 2.291684,1.0207064 C 12.42354,7.4776053 11.719136,8.2552592 11.05607,9.1422296 11.02388,9.1852486 10.99324,9.2287246 10.9616,9.2718576 10.7085,8.9186898 10.304267,8.688874 9.8473411,8.688874 c -0.767128,0 -1.388966,0.6446025 -1.388966,1.439829 0,0.697093 0.47787,1.278251 1.112606,1.411074 -0.471477,0.945166 -0.853774,1.962563 -1.159787,3.097151 -2.399053,-0.74753 -3.463156,-3.068396 -3.093757,-5.2365835 z"
     id="path22-8"
     style="stroke:#000000;stroke-width:0.755906;stroke-miterlimit:4;stroke-dasharray:none;stroke-opacity:1" /><path
     fill="none"
     stroke="#000000"
     stroke-width="65.2795"
     stroke-linecap="round"
     stroke-linejoin="round"
     stroke-miterlimit="10"
     d="m 10.961598,9.2718576 c 0.03164,-0.043133 0.06228,-0.086609 0.09447,-0.129628 0.663176,-0.8869704 1.36747,-1.6646243 2.124457,-2.3412915 3.284685,-2.9358002 7.560165,-3.9698574 13.749442,-3.7796374 5.36648,0.1651159 11.075683,1.1303652 14.808694,4.5532974 0.841097,0.7711496 1.581107,1.6679335 2.195118,2.7076959 0.08003,0.135562 0.158629,0.272835 0.234361,0.413303 0.321997,0.597818 0.620956,1.22907 0.894229,1.898549 0.383179,0.938433 0.715428,1.952179 0.986607,3.057326 0.525493,2.141829 0.822687,4.625186 0.822577,7.56053 -2.21e-4,5.150088 -0.977347,7.705563 -0.918481,12.652308 0.0039,0.324755 0.01213,0.659779 0.02546,1.006557 0.02249,0.584125 0.04222,1.169505 0.05986,1.754428 0.182219,6.059995 0.11707,12.079823 0.165242,16.207608 0.0442,3.78888 -1.614507,7.1551 -4.6128,9.634577 -1.185251,0.980198 -2.579729,1.821753 -4.161607,2.495682 -2.768342,1.179546 -6.109026,1.84697 -9.903991,1.84697 -5.540982,0 -9.640748,-1.101381 -12.642237,-2.77696 C 13.619811,65.328206 12.55163,64.52134 11.652219,63.652056 9.4079371,61.48307 8.2161821,58.925427 7.6827521,56.589157 c -1.2644,-5.536919 -1.098606,-9.594298 -0.532547,-18.071581 0.01135,-0.170707 0.02282,-0.342555 0.0345,-0.5168 0.06482,-0.964565 0.11266,-1.819699 0.147605,-2.597467 0.191038,-4.261178 -0.0071,-6.198066 0.0528,-11.061398 0.05104,-4.138853 0.352202,-7.207248 1.025851,-9.704641 0.306013,-1.134473 0.688309,-2.151871 1.159786,-3.097151 0.39795,-0.797851 0.8599469,-1.5443529 1.3908399,-2.2682614 z"
     id="path26-2"
     style="stroke:#000000;stroke-width:0.755906;stroke-miterlimit:4;stroke-dasharray:none;stroke-opacity:1" /><path
     id="ellipse28-5"
     style="fill:none;stroke:#000000;stroke-width:0.755906;stroke-linecap:round;stroke-linejoin:round;stroke-miterlimit:4;stroke-dasharray:none;stroke-opacity:1"
     d="m 29.013418,13.109006 a 6.0519242,6.0591956 0 0 0 6.051924,6.059196 6.0519242,6.0591956 0 0 0 6.051924,-6.059196 6.0519242,6.0591956 0 0 0 -6.051924,-6.0591955 6.0519242,6.0591956 0 0 0 -6.051924,6.0591955 z" /><path
     id="circle30-5"
     style="fill:none;stroke:#000000;stroke-width:0.755906;stroke-miterlimit:4;stroke-dasharray:none;stroke-opacity:1"
     d="m 36.156673,13.416986 a 2.0834492,2.1566629 0 0 0 2.083449,2.156664 2.0834492,2.1566629 0 0 0 2.08345,-2.156664 2.0834492,2.1566629 0 0 0 -2.08345,-2.156662 2.0834492,2.1566629 0 0 0 -2.083449,2.156662 z" /><path
     id="circle32-2"
     style="fill:#ffffff;stroke:#000000;stroke-width:0.755906;stroke-miterlimit:4;stroke-dasharray:none;stroke-opacity:1"
     d="m 36.751944,13.930478 a 0.59527123,0.61618942 0 0 0 0.595271,0.616189 0.59527123,0.61618942 0 0 0 0.595272,-0.616189 0.59527123,0.61618942 0 0 0 -0.595272,-0.61619 0.59527123,0.61618942 0 0 0 -0.595271,0.61619 z" /><path
     id="ellipse34-9"
     style="fill:none;stroke:#000000;stroke-width:0.755906;stroke-linecap:round;stroke-linejoin:round;stroke-miterlimit:4;stroke-dasharray:none;stroke-opacity:1"
     d="M 13.834,12.390004 A 6.0519242,6.0591956 0 0 0 19.885925,18.4492 6.0519242,6.0591956 0 0 0 25.937849,12.390004 6.0519242,6.0591956 0 0 0 19.885925,6.3308084 6.0519242,6.0591956 0 0 0 13.834,12.390004 Z" /><path
     id="circle36-7"
     style="fill:none;stroke:#000000;stroke-width:0.755906;stroke-miterlimit:4;stroke-dasharray:none;stroke-opacity:1"
     d="m 20.977257,12.698213 a 2.0834492,2.1566629 0 0 0 2.083449,2.156663 2.0834492,2.1566629 0 0 0 2.08345,-2.156663 2.0834492,2.1566629 0 0 0 -2.08345,-2.156663 2.0834492,2.1566629 0 0 0 -2.083449,2.156663 z" /><path
     id="circle38-9"
     style="fill:#ffffff;stroke:#000000;stroke-width:0.755906;stroke-miterlimit:4;stroke-dasharray:none;stroke-opacity:1"
     d="m 21.572528,13.211705 a 0.59527123,0.61618942 0 0 0 0.595272,0.616189 0.59527123,0.61618942 0 0 0 0.595271,-0.616189 0.59527123,0.61618942 0 0 0 -0.595271,-0.61619 0.59527123,0.61618942 0 0 0 -0.595272,0.61619 z" /><path
     fill="none"
     stroke="#000000"
     stroke-width="65.2795"
     stroke-linecap="round"
     stroke-linejoin="round"
     stroke-miterlimit="10"
     d="m 27.255494,22.094873 c 1.188779,0.02145 1.36703,0.570432 2.390455,0.759625 0.03616,0.653503 0.08213,1.548005 0.128204,2.612643 0.09921,2.293594 -2.711791,1.780103 -2.711791,0.410793 0,-1.041702 0,-2.934203 0,-3.780664 0.06173,-0.0024 0.125338,-0.0035 0.193132,-0.0024 z"
     id="path40-0"
     style="stroke:#000000;stroke-width:0.755906;stroke-miterlimit:4;stroke-dasharray:none;stroke-opacity:1" /><path
     fill="none"
     stroke="#000000"
     stroke-width="65.2795"
     stroke-linecap="round"
     stroke-linejoin="round"
     stroke-miterlimit="10"
     d="m 27.062362,25.87782 c 0,1.36931 -2.811003,1.882801 -2.711791,-0.410793 0.04729,-1.093394 0.09447,-2.00718 0.13107,-2.664791 1.288541,-0.06082 1.445737,-0.663317 2.580721,-0.70508 0,0.846347 0,2.738847 0,3.780664 z"
     id="path42-3"
     style="stroke:#000000;stroke-width:0.755906;stroke-miterlimit:4;stroke-dasharray:none;stroke-opacity:1" /><path
     fill="none"
     stroke="#000000"
     stroke-width="65.2795"
     stroke-linecap="round"
     stroke-linejoin="round"
     stroke-miterlimit="10"
     d="m 22.878487,19.807441 c 0.479965,-0.534601 1.049552,-0.825922 1.810617,-0.966618 0.403902,0.612309 1.410021,1.046267 2.588217,1.046267 1.133,0 2.106819,-0.401436 2.539162,-0.976775 0.81475,0.161693 1.405833,0.477547 1.890538,1.056651 0.951001,1.136413 0.489114,2.840291 -0.788845,2.932035 -0.546437,0.03925 -0.95067,0.01495 -1.272227,-0.04462 -1.023425,-0.189193 -1.201676,-0.738172 -2.390455,-0.759625 -0.06779,-0.0011 -0.1314,0 -0.193132,0.0023 -1.134874,0.04176 -1.292069,0.644261 -2.580721,0.705081 -0.254865,0.01198 -0.553823,0.003 -0.913742,-0.03606 -1.274211,-0.137729 -1.678334,-1.85724 -0.689412,-2.958622 z"
     id="path44-2"
     style="stroke:#000000;stroke-width:0.755906;stroke-miterlimit:4;stroke-dasharray:none;stroke-opacity:1" /><path
     d="m 27.277211,19.88709 c -1.178196,0 -2.184205,-0.433958 -2.588217,-1.046267 -0.122031,-0.185085 -0.189826,-0.38626 -0.189826,-0.596905 0,-0.90751 1.243566,-1.643172 2.777933,-1.643172 1.534146,0 2.777932,0.735662 2.777932,1.643172 0,0.237347 -0.08576,0.462598 -0.23877,0.666397 -0.432123,0.575339 -1.406053,0.976775 -2.539052,0.976775 z"
     id="path46-8"
     style="fill:none;stroke:#000000;stroke-width:0.755906;stroke-miterlimit:4;stroke-dasharray:none;stroke-opacity:1" /></g><g
   inkscape:groupmode="layer"
   id="layer13"
   inkscape:label="EarsContour"
   style="display:none"><path
     fill="none"
     stroke="#000000"
     stroke-width="65.2795"
     stroke-linecap="round"
     stroke-linejoin="round"
     stroke-miterlimit="10"
     d="m 46.425102,11.155685 c 0,-0.795227 -0.621838,-1.4398293 -1.388967,-1.4398293 -0.44987,0 -0.848482,0.222627 -1.102354,0.5664373 C 43.31988,9.2426451 42.57976,8.3458613 41.738663,7.5745975 c 0.41669,-0.4174113 1.093756,-0.7223109 2.156536,-0.8700823 3.422809,-0.4762916 5.171915,1.2741428 5.571518,3.6201128 0.385603,2.263697 -0.790498,4.694792 -3.417739,5.326844 -0.271179,-1.105148 -0.603428,-2.118894 -0.986607,-3.057327 0.754892,-0.01472 1.362731,-0.652477 1.362731,-1.43846 z"
     id="path18-0-7"
     style="display:inline;stroke:#000000;stroke-width:0.755906;stroke-miterlimit:4;stroke-dasharray:none;stroke-opacity:1" /><path
     fill="none"
     stroke="#000000"
     stroke-width="65.2795"
     stroke-linecap="round"
     stroke-linejoin="round"
     stroke-miterlimit="10"
     d="m 5.3174351,9.4003439 c 0.399604,-2.3460841 2.148709,-4.0964044 5.5714079,-3.6201128 1.186684,0.165116 1.892301,0.5260432 2.291684,1.0207064 C 12.42354,7.4776047 11.719136,8.2552586 11.05607,9.142229 11.02388,9.185248 10.99324,9.228724 10.9616,9.271857 10.7085,8.9186892 10.304267,8.6888734 9.8473411,8.6888734 c -0.767128,0 -1.388966,0.6446025 -1.388966,1.4398286 0,0.697093 0.47787,1.278251 1.112606,1.411074 -0.471477,0.945166 -0.853774,1.962563 -1.159787,3.097151 -2.399053,-0.74753 -3.463156,-3.068396 -3.093757,-5.2365831 z"
     id="path22-8-4"
     style="display:inline;stroke:#000000;stroke-width:0.755906;stroke-miterlimit:4;stroke-dasharray:none;stroke-opacity:1" /></g><g
   inkscape:groupmode="layer"
   id="layer12"
   inkscape:label="InnerEars"
   style="display:inline"><path
     fill="none"
     stroke="#000000"
     stroke-width="65.2795"
     stroke-linecap="round"
     stroke-linejoin="round"
     stroke-miterlimit="10"
     d="m 46.425102,11.155685 c 0,-0.795227 -0.621838,-1.4398293 -1.388967,-1.4398293 -0.44987,0 -0.848482,0.222627 -1.102354,0.5664373 -0.107295,-0.115534 1.166848,2.405552 1.12859,2.311857 0.754892,-0.01472 1.362731,-0.652477 1.362731,-1.43846 z"
     id="path18-0-5"
     style="display:inline;stroke:#000000;stroke-width:0.755906;stroke-miterlimit:4;stroke-dasharray:none;stroke-opacity:1"
     sodipodi:nodetypes="ssccss" /><path
     fill="none"
     stroke="#000000"
     stroke-width="65.2795"
     stroke-linecap="round"
     stroke-linejoin="round"
     stroke-miterlimit="10"
     d="M 10.9616,9.271857 C 10.7085,8.9186892 10.304267,8.6888734 9.8473411,8.6888734 c -0.767128,0 -1.388966,0.6446025 -1.388966,1.4398286 0,0.697093 0.47787,1.278251 1.112606,1.411074 0,0 1.4222589,-2.311052 1.3906189,-2.267919 z"
     id="path22-8-8"
     style="display:inline;stroke:#000000;stroke-width:0.755906;stroke-miterlimit:4;stroke-dasharray:none;stroke-opacity:1"
     sodipodi:nodetypes="csscc" /></g><g
   inkscape:groupmode="layer"
   id="layer10"
   inkscape:label="NoseBody"
   style="display:none"><path
     fill="none"
     stroke="#000000"
     stroke-width="65.2795"
     stroke-linecap="round"
     stroke-linejoin="round"
     stroke-miterlimit="10"
     d="m 22.878487,19.807441 c 0.479965,-0.534601 1.049552,-0.825922 1.810617,-0.966618 0.403902,0.612309 1.410021,1.046267 2.588217,1.046267 1.133,0 2.106819,-0.401436 2.539162,-0.976775 0.81475,0.161693 1.405833,0.477547 1.890538,1.056651 0.951001,1.136413 0.489114,2.840291 -0.788845,2.932035 -0.546437,0.03925 -0.95067,0.01495 -1.272227,-0.04462 -1.023425,-0.189193 -1.201676,-0.738172 -2.390455,-0.759625 -0.06779,-0.0011 -0.1314,0 -0.193132,0.0023 -1.134874,0.04176 -1.292069,0.644261 -2.580721,0.705081 -0.254865,0.01198 -0.553823,0.003 -0.913742,-0.03606 -1.274211,-0.137729 -1.678334,-1.85724 -0.689412,-2.958622 z"
     id="path44-2-0"
     style="display:inline;stroke:#000000;stroke-width:0.755906;stroke-miterlimit:4;stroke-dasharray:none;stroke-opacity:1" /></g><g
   inkscape:groupmode="layer"
   id="layer9"
   inkscape:label="NoseTip"
   style="display:none"><path
     d="m 27.277211,19.88709 c -1.178196,0 -2.184205,-0.433958 -2.588217,-1.046267 -0.122031,-0.185085 -0.189826,-0.38626 -0.189826,-0.596905 0,-0.90751 1.243566,-1.643172 2.777933,-1.643172 1.534146,0 2.777932,0.735662 2.777932,1.643172 0,0.237347 -0.08576,0.462598 -0.23877,0.666397 -0.432123,0.575339 -1.406053,0.976775 -2.539052,0.976775 z"
     id="path46-8-7"
     style="display:inline;fill:none;stroke:#000000;stroke-width:0.755906;stroke-miterlimit:4;stroke-dasharray:none;stroke-opacity:1" /></g><g
   inkscape:groupmode="layer"
   id="layer8"
   inkscape:label="Teeth"
   style="display:none"><path
     fill="none"
     stroke="#000000"
     stroke-width="65.2795"
     stroke-linecap="round"
     stroke-linejoin="round"
     stroke-miterlimit="10"
     d="m 27.255494,22.094873 c 1.188779,0.02145 1.36703,0.570432 2.390455,0.759625 0.03616,0.653503 0.08213,1.548005 0.128204,2.612643 0.09921,2.293594 -2.711791,1.780103 -2.711791,0.410793 0,-1.041702 0,-2.934203 0,-3.780664 0.06173,-0.0024 0.125338,-0.0035 0.193132,-0.0024 z"
     id="path40-0-0"
     style="display:inline;stroke:#000000;stroke-width:0.755906;stroke-miterlimit:4;stroke-dasharray:none;stroke-opacity:1" /><path
     fill="none"
     stroke="#000000"
     stroke-width="65.2795"
     stroke-linecap="round"
     stroke-linejoin="round"
     stroke-miterlimit="10"
     d="m 27.062362,25.87782 c 0,1.36931 -2.811003,1.882801 -2.711791,-0.410793 0.04729,-1.093394 0.09447,-2.00718 0.13107,-2.664791 1.288541,-0.06082 1.445737,-0.663317 2.580721,-0.70508 0,0.846347 0,2.738847 0,3.780664 z"
     id="path42-3-0"
     style="display:inline;stroke:#000000;stroke-width:0.755906;stroke-miterlimit:4;stroke-dasharray:none;stroke-opacity:1" /></g><g
   inkscape:groupmode="layer"
   id="g1393"
   inkscape:label="Tooth1"
   style="display:none"><path
     fill="none"
     stroke="#000000"
     stroke-width="65.2795"
     stroke-linecap="round"
     stroke-linejoin="round"
     stroke-miterlimit="10"
     d="m 27.062362,22.09727 c 0,-1.14e-4 0,0 0,0 z"
     id="path1389"
     style="display:inline;stroke:#000000;stroke-width:0.755906;stroke-miterlimit:4;stroke-dasharray:none;stroke-opacity:1"
     sodipodi:nodetypes="cc" /><path
     fill="none"
     stroke="#000000"
     stroke-width="65.2795"
     stroke-linecap="round"
     stroke-linejoin="round"
     stroke-miterlimit="10"
     d="m 27.062362,25.87782 c 0,1.36931 -2.811003,1.882801 -2.711791,-0.410793 0.04729,-1.093394 0.09447,-2.00718 0.13107,-2.664791 1.288541,-0.06082 1.445737,-0.663317 2.580721,-0.70508 0,0.846347 0,2.738847 0,3.780664 z"
     id="path1391"
     style="display:inline;stroke:#000000;stroke-width:0.755906;stroke-miterlimit:4;stroke-dasharray:none;stroke-opacity:1" /></g><g
   inkscape:groupmode="layer"
   id="g1387"
   inkscape:label="Tooth2"
   style="display:none"><path
     fill="none"
     stroke="#000000"
     stroke-width="65.2795"
     stroke-linecap="round"
     stroke-linejoin="round"
     stroke-miterlimit="10"
     d="m 27.255494,22.094873 c 1.188779,0.02145 1.36703,0.570432 2.390455,0.759625 0.03616,0.653503 0.08213,1.548005 0.128204,2.612643 0.09921,2.293594 -2.711791,1.780103 -2.711791,0.410793 0,-1.041702 0,-2.934203 0,-3.780664 0.06173,-0.0024 0.125338,-0.0035 0.193132,-0.0024 z"
     id="path1383"
     style="display:inline;stroke:#000000;stroke-width:0.755906;stroke-miterlimit:4;stroke-dasharray:none;stroke-opacity:1" /></g><g
   inkscape:groupmode="layer"
   id="layer11"
   inkscape:label="PawSplits"
   style="display:none"><path
     fill="none"
     stroke="#000000"
     stroke-width="65.2795"
     stroke-linecap="round"
     stroke-linejoin="round"
     stroke-miterlimit="10"
     d="M 50.396112,39.445512 C 50.028697,39.171992 49.769093,38.875993 49.097098,38.52157"
     id="path10-0-8"
     style="display:inline;stroke:#000000;stroke-width:0.556;stroke-miterlimit:4;stroke-dasharray:none;stroke-opacity:1" /><path
     fill="none"
     stroke="#000000"
     stroke-width="65.2795"
     stroke-linecap="round"
     stroke-linejoin="round"
     stroke-miterlimit="10"
     d="m 3.2256081,38.932021 c 0.367415,-0.27352 0.627019,-0.569519 1.298904,-0.923942"
     id="path12-1-6"
     style="display:inline;stroke:#000000;stroke-width:0.556;stroke-miterlimit:4;stroke-dasharray:none;stroke-opacity:1" /><path
     fill="none"
     stroke="#000000"
     stroke-width="65.2795"
     stroke-linecap="round"
     stroke-linejoin="round"
     stroke-miterlimit="10"
     d="M 44.24244,69.361964 C 44.143228,68.79701 43.845593,67.847165 42.952686,67.025465"
     id="path14-4-8"
     style="display:inline;stroke:#000000;stroke-width:0.556;stroke-miterlimit:4;stroke-dasharray:none;stroke-opacity:1" /><path
     fill="none"
     stroke="#000000"
     stroke-width="65.2795"
     stroke-linecap="round"
     stroke-linejoin="round"
     stroke-miterlimit="10"
     d="m 9.4985541,69.178363 c 0.0029,-0.574084 0.143747,-1.741991 0.9773469,-2.532653"
     id="path16-3-6"
     style="display:inline;stroke:#000000;stroke-width:0.556;stroke-miterlimit:4;stroke-dasharray:none;stroke-opacity:1" /></g><g
   inkscape:groupmode="layer"
   id="g1365"
   inkscape:label="PawSplitsOutline"
   style="display:none"><path
     style="color:#000000;font-style:normal;font-variant:normal;font-weight:normal;font-stretch:normal;font-size:medium;line-height:normal;font-family:sans-serif;font-variant-ligatures:normal;font-variant-position:normal;font-variant-caps:normal;font-variant-numeric:normal;font-variant-alternates:normal;font-variant-east-asian:normal;font-feature-settings:normal;font-variation-settings:normal;text-indent:0;text-align:start;text-decoration:none;text-decoration-line:none;text-decoration-style:solid;text-decoration-color:#000000;letter-spacing:normal;word-spacing:normal;text-transform:none;writing-mode:lr-tb;direction:ltr;text-orientation:mixed;dominant-baseline:auto;baseline-shift:baseline;text-anchor:start;white-space:normal;shape-padding:0;shape-margin:0;inline-size:0;clip-rule:nonzero;display:inline;overflow:visible;visibility:visible;opacity:1;isolation:auto;mix-blend-mode:normal;color-interpolation:sRGB;color-interpolation-filters:linearRGB;solid-color:#000000;solid-opacity:1;vector-effect:none;fill:#000000;fill-opacity:1;fill-rule:nonzero;stroke:none;stroke-width:0.556;stroke-linecap:round;stroke-linejoin:round;stroke-miterlimit:4;stroke-dasharray:none;stroke-dashoffset:0;stroke-opacity:1;color-rendering:auto;image-rendering:auto;shape-rendering:auto;text-rendering:auto;enable-background:accumulate;stop-color:#000000;stop-opacity:1"
     d="m 49.099609,38.244141 a 0.278,0.278 0 0 0 -0.248047,0.148437 0.278,0.278 0 0 0 0.115235,0.375 c 0.641634,0.33841 0.86951,0.606959 1.263672,0.900391 a 0.278,0.278 0 0 0 0.388672,-0.05664 0.278,0.278 0 0 0 -0.05664,-0.388672 C 50.221833,38.969049 49.92892,38.645828 49.226563,38.275392 a 0.278,0.278 0 0 0 -0.126953,-0.03125 z"
     id="path1381" /><path
     style="color:#000000;font-style:normal;font-variant:normal;font-weight:normal;font-stretch:normal;font-size:medium;line-height:normal;font-family:sans-serif;font-variant-ligatures:normal;font-variant-position:normal;font-variant-caps:normal;font-variant-numeric:normal;font-variant-alternates:normal;font-variant-east-asian:normal;font-feature-settings:normal;font-variation-settings:normal;text-indent:0;text-align:start;text-decoration:none;text-decoration-line:none;text-decoration-style:solid;text-decoration-color:#000000;letter-spacing:normal;word-spacing:normal;text-transform:none;writing-mode:lr-tb;direction:ltr;text-orientation:mixed;dominant-baseline:auto;baseline-shift:baseline;text-anchor:start;white-space:normal;shape-padding:0;shape-margin:0;inline-size:0;clip-rule:nonzero;display:inline;overflow:visible;visibility:visible;opacity:1;isolation:auto;mix-blend-mode:normal;color-interpolation:sRGB;color-interpolation-filters:linearRGB;solid-color:#000000;solid-opacity:1;vector-effect:none;fill:#000000;fill-opacity:1;fill-rule:nonzero;stroke:none;stroke-width:0.556;stroke-linecap:round;stroke-linejoin:round;stroke-miterlimit:4;stroke-dasharray:none;stroke-dashoffset:0;stroke-opacity:1;color-rendering:auto;image-rendering:auto;shape-rendering:auto;text-rendering:auto;enable-background:accumulate;stop-color:#000000;stop-opacity:1"
     d="m 4.515625,37.730469 a 0.278,0.278 0 0 0 -0.1210938,0.03125 c -0.7022434,0.370437 -0.993316,0.693657 -1.3339843,0.947265 a 0.278,0.278 0 0 0 -0.058594,0.388672 0.278,0.278 0 0 0 0.390625,0.05664 c 0.3941617,-0.293432 0.6201923,-0.561982 1.2617188,-0.900391 a 0.278,0.278 0 0 0 0.1152343,-0.375 0.278,0.278 0 0 0 -0.2539062,-0.148437 z"
     id="path1377" /><path
     style="color:#000000;font-style:normal;font-variant:normal;font-weight:normal;font-stretch:normal;font-size:medium;line-height:normal;font-family:sans-serif;font-variant-ligatures:normal;font-variant-position:normal;font-variant-caps:normal;font-variant-numeric:normal;font-variant-alternates:normal;font-variant-east-asian:normal;font-feature-settings:normal;font-variation-settings:normal;text-indent:0;text-align:start;text-decoration:none;text-decoration-line:none;text-decoration-style:solid;text-decoration-color:#000000;letter-spacing:normal;word-spacing:normal;text-transform:none;writing-mode:lr-tb;direction:ltr;text-orientation:mixed;dominant-baseline:auto;baseline-shift:baseline;text-anchor:start;white-space:normal;shape-padding:0;shape-margin:0;inline-size:0;clip-rule:nonzero;display:inline;overflow:visible;visibility:visible;opacity:1;isolation:auto;mix-blend-mode:normal;color-interpolation:sRGB;color-interpolation-filters:linearRGB;solid-color:#000000;solid-opacity:1;vector-effect:none;fill:#000000;fill-opacity:1;fill-rule:nonzero;stroke:none;stroke-width:0.556;stroke-linecap:round;stroke-linejoin:round;stroke-miterlimit:4;stroke-dasharray:none;stroke-dashoffset:0;stroke-opacity:1;color-rendering:auto;image-rendering:auto;shape-rendering:auto;text-rendering:auto;enable-background:accumulate;stop-color:#000000;stop-opacity:1"
     d="m 42.9375,66.748047 a 0.278,0.278 0 0 0 -0.189453,0.08984 0.278,0.278 0 0 0 0.01563,0.392578 c 0.837008,0.770258 1.113067,1.655741 1.205078,2.179687 a 0.278,0.278 0 0 0 0.322266,0.226563 0.278,0.278 0 0 0 0.224609,-0.322266 c -0.106413,-0.605962 -0.426194,-1.620999 -1.375,-2.494141 a 0.278,0.278 0 0 0 -0.20313,-0.07226 z"
     id="path1373" /><path
     style="color:#000000;font-style:normal;font-variant:normal;font-weight:normal;font-stretch:normal;font-size:medium;line-height:normal;font-family:sans-serif;font-variant-ligatures:normal;font-variant-position:normal;font-variant-caps:normal;font-variant-numeric:normal;font-variant-alternates:normal;font-variant-east-asian:normal;font-feature-settings:normal;font-variation-settings:normal;text-indent:0;text-align:start;text-decoration:none;text-decoration-line:none;text-decoration-style:solid;text-decoration-color:#000000;letter-spacing:normal;word-spacing:normal;text-transform:none;writing-mode:lr-tb;direction:ltr;text-orientation:mixed;dominant-baseline:auto;baseline-shift:baseline;text-anchor:start;white-space:normal;shape-padding:0;shape-margin:0;inline-size:0;clip-rule:nonzero;display:inline;overflow:visible;visibility:visible;opacity:1;isolation:auto;mix-blend-mode:normal;color-interpolation:sRGB;color-interpolation-filters:linearRGB;solid-color:#000000;solid-opacity:1;vector-effect:none;fill:#000000;fill-opacity:1;fill-rule:nonzero;stroke:none;stroke-width:0.556;stroke-linecap:round;stroke-linejoin:round;stroke-miterlimit:4;stroke-dasharray:none;stroke-dashoffset:0;stroke-opacity:1;color-rendering:auto;image-rendering:auto;shape-rendering:auto;text-rendering:auto;enable-background:accumulate;stop-color:#000000;stop-opacity:1"
     d="m 10.480469,66.367188 a 0.278,0.278 0 0 0 -0.195313,0.07617 c -0.9214297,0.873968 -1.0613328,2.116728 -1.0644529,2.734375 a 0.278,0.278 0 0 0 0.2773438,0.279297 0.278,0.278 0 0 0 0.2792969,-0.277343 c 0.00268,-0.530521 0.1448551,-1.624676 0.8906252,-2.332032 a 0.278,0.278 0 0 0 0.0098,-0.392578 0.278,0.278 0 0 0 -0.197265,-0.08789 z"
     id="path1369" /></g><g
   inkscape:groupmode="layer"
   id="layer7"
   inkscape:label="PupilsGlare"
   style="display:none"><path
     id="circle32-2-1"
     style="display:inline;fill:#ffffff;stroke:#000000;stroke-width:0.755906;stroke-miterlimit:4;stroke-dasharray:none;stroke-opacity:1"
     d="m 36.751944,13.930478 a 0.59527123,0.61618942 0 0 0 0.595271,0.616189 0.59527123,0.61618942 0 0 0 0.595272,-0.616189 0.59527123,0.61618942 0 0 0 -0.595272,-0.61619 0.59527123,0.61618942 0 0 0 -0.595271,0.61619 z" /><path
     id="circle38-9-7"
     style="display:inline;fill:#ffffff;stroke:#000000;stroke-width:0.755906;stroke-miterlimit:4;stroke-dasharray:none;stroke-opacity:1"
     d="m 21.572528,13.211705 a 0.59527123,0.61618942 0 0 0 0.595272,0.616189 0.59527123,0.61618942 0 0 0 0.595271,-0.616189 0.59527123,0.61618942 0 0 0 -0.595271,-0.61619 0.59527123,0.61618942 0 0 0 -0.595272,0.61619 z" /></g><g
   inkscape:groupmode="layer"
   id="layer6"
   inkscape:label="Pupils"
   style="display:none"><path
     id="circle30-5-4"
     style="display:inline;fill:none;stroke:#000000;stroke-width:0.755906;stroke-miterlimit:4;stroke-dasharray:none;stroke-opacity:1"
     d="m 36.156673,13.416986 a 2.0834492,2.1566629 0 0 0 2.083449,2.156664 2.0834492,2.1566629 0 0 0 2.08345,-2.156664 2.0834492,2.1566629 0 0 0 -2.08345,-2.156662 2.0834492,2.1566629 0 0 0 -2.083449,2.156662 z" /><path
     id="circle36-7-4"
     style="display:inline;fill:none;stroke:#000000;stroke-width:0.755906;stroke-miterlimit:4;stroke-dasharray:none;stroke-opacity:1"
     d="m 20.977257,12.698213 a 2.0834492,2.1566629 0 0 0 2.083449,2.156663 2.0834492,2.1566629 0 0 0 2.08345,-2.156663 2.0834492,2.1566629 0 0 0 -2.08345,-2.156663 2.0834492,2.1566629 0 0 0 -2.083449,2.156663 z" /></g><g
   inkscape:groupmode="layer"
   id="layer5"
   inkscape:label="EyesContour"
   style="display:none"><path
     id="ellipse28-5-4"
     style="display:inline;fill:none;stroke:#000000;stroke-width:0.755906;stroke-linecap:round;stroke-linejoin:round;stroke-miterlimit:4;stroke-dasharray:none;stroke-opacity:1"
     d="m 29.013418,13.109006 a 6.0519242,6.0591956 0 0 0 6.051924,6.059196 6.0519242,6.0591956 0 0 0 6.051924,-6.059196 6.0519242,6.0591956 0 0 0 -6.051924,-6.0591959 6.0519242,6.0591956 0 0 0 -6.051924,6.0591959 z" /><path
     id="ellipse34-9-8"
     style="display:inline;fill:none;stroke:#000000;stroke-width:0.755906;stroke-linecap:round;stroke-linejoin:round;stroke-miterlimit:4;stroke-dasharray:none;stroke-opacity:1"
     d="M 13.834,12.390004 A 6.0519242,6.0591956 0 0 0 19.885925,18.4492 6.0519242,6.0591956 0 0 0 25.937849,12.390004 6.0519242,6.0591956 0 0 0 19.885925,6.330808 6.0519242,6.0591956 0 0 0 13.834,12.390004 Z" /></g><g
   inkscape:groupmode="layer"
   id="layer4"
   inkscape:label="BodyContour"
   style="display:none"><path
     fill="none"
     stroke="#000000"
     stroke-width="65.2795"
     stroke-linecap="round"
     stroke-linejoin="round"
     stroke-miterlimit="10"
     d="m 10.961598,9.2718572 c 0.03164,-0.043133 0.06228,-0.086609 0.09447,-0.129628 0.663178,-0.8869704 1.367472,-1.6646243 2.124459,-2.3412915 3.284685,-2.9358002 7.560165,-3.9698574 13.749442,-3.7796374 5.36648,0.1651159 11.075683,1.1303652 14.808694,4.5532974 0.841097,0.7711496 1.581107,1.6679335 2.195118,2.7076963 0.08003,0.135562 0.158629,0.272835 0.234361,0.413303 0.321997,0.597818 0.620956,1.22907 0.894229,1.898549 0.383179,0.938433 0.715428,1.952179 0.986607,3.057326 0.525493,2.141829 0.822687,4.625186 0.822577,7.56053 -2.21e-4,5.150088 -0.977347,7.705563 -0.918481,12.652308 0.0039,0.324755 0.01213,0.659779 0.02546,1.006557 0.02249,0.584125 0.04222,1.169505 0.05986,1.754428 0.182219,6.059995 0.11707,12.079823 0.165242,16.207608 0.0442,3.78888 -1.614507,7.1551 -4.6128,9.634577 -1.185251,0.980198 -2.579729,1.821753 -4.161607,2.495682 -2.768342,1.179546 -6.109026,1.84697 -9.903991,1.84697 -5.540982,0 -9.640748,-1.101381 -12.642237,-2.77696 -1.263188,-0.704966 -2.331369,-1.511832 -3.23078,-2.381116 -2.2442819,-2.168986 -3.4360369,-4.726629 -3.9694669,-7.062899 -1.2644,-5.536919 -1.098606,-9.594298 -0.532547,-18.071581 0.01135,-0.170707 0.02282,-0.342555 0.0345,-0.5168 0.06482,-0.964565 0.11266,-1.819699 0.147605,-2.597467 0.191038,-4.261178 -0.0071,-6.198066 0.0528,-11.061398 0.05104,-4.138853 0.352202,-7.207248 1.025851,-9.704641 0.306013,-1.134473 0.688309,-2.151871 1.159786,-3.097151 0.39795,-0.797851 0.8599469,-1.5443533 1.3908399,-2.2682618 z"
     id="path26-2-2"
     style="display:inline;stroke:#000000;stroke-width:0.755906;stroke-miterlimit:4;stroke-dasharray:none;stroke-opacity:1" /></g><g
   inkscape:groupmode="layer"
   id="layer1"
   inkscape:label="PCBOutline"
   style="display:none"><path
     id="path888"
     d="m 25.791776,3.0001739 c 0.372104,0.00216 0.751266,0.00928 1.138094,0.021172 5.366482,0.1651166 11.075783,1.1302909 14.808795,4.5532231 0.416689,-0.4174111 1.0937,-0.7223111 2.15648,-0.8700821 3.42281,-0.4762918 5.172022,1.2740981 5.571625,3.6200681 0.385604,2.263697 -0.790488,4.694975 -3.417728,5.327025 0.525492,2.141829 0.822569,4.625056 0.822459,7.560401 -2.2e-4,5.150088 -0.97735,7.705552 -0.918485,12.652299 v 0 h 2.21e-4 c 1.474729,0.214068 3.192242,0.656537 4.08603,1.219095 0.808798,0.509267 0.702459,2.008392 0.12703,2.749984 -0.607287,0.783018 -1.319777,0.741062 -2.180164,0.331409 -0.564736,-0.268957 -1.244996,-0.868281 -1.947636,-1.539584 0.182219,6.059996 0.116965,12.079949 0.165138,16.207735 0.0442,3.78878 -1.614521,7.154965 -4.612663,9.634424 1.445957,0.585264 2.616537,1.422935 3.279934,2.643675 1.08626,1.999309 -1.752744,3.645879 -3.224387,2.259452 -1.202405,-1.132835 -2.151493,-2.093603 -4.216934,-2.407435 h -2.21e-4 l -2.21e-4,2.27e-4 c -2.768341,1.179546 -6.108999,1.846916 -9.903963,1.84692 -5.540984,0 -9.640704,-1.101375 -12.642193,-2.776952 -1.397606,0.685218 -2.082409,1.660045 -2.925546,2.789654 -1.216667,1.629824 -4.2396919,0.149701 -3.3559369,-1.953672 0.580574,-1.381889 1.6773359,-2.528 3.0506389,-3.217121 -2.2442849,-2.168985 -3.4359089,-4.726685 -3.9693399,-7.062955 -1.264398,-5.536919 -1.098718,-9.594308 -0.532661,-18.071591 -0.546571,0.499591 -1.066952,0.920275 -1.514446,1.133515 -0.860605,0.409766 -1.572876,0.451833 -2.180161,-0.331185 -0.575538,-0.741596 -0.68188,-2.240944 0.127029,-2.749987 0.826723,-0.52031 2.35762,-0.937692 3.749726,-1.166941 0.191004,-4.26086 -0.007,-6.197856 0.05275,-11.061012 0.05105,-4.138854 0.352271,-7.207234 1.025924,-9.704627 4.1e-5,-1.14e-4 2.2e-4,-3.3e-4 2.2e-4,-4.48e-4 -2.399054,-0.747532 -3.463098,-3.068354 -3.093697,-5.2365417 0.399599,-2.3460841 2.148708,-4.0963597 5.5714069,-3.6200682 1.186683,0.1651161 1.892308,0.5260788 2.291692,1.0207422 3.079392,-2.7523215 7.029635,-3.8332044 12.611189,-3.8008242 z"
     style="display:inline;fill:none;stroke:#000000;stroke-width:0.377953;stroke-miterlimit:4;stroke-dasharray:none;stroke-opacity:1"
     sodipodi:nodetypes="cccccccccccccccccccccsccccccccccccccccsc" /></g>
</svg>
