<?xml version="1.0" standalone="no"?>
<!DOCTYPE svg PUBLIC "-//W3C//DTD SVG 1.1//EN" "http://www.w3.org/Graphics/SVG/1.1/DTD/svg11.dtd">
<svg width="14mm" height="18mm" viewBox="0 -156 14 18" xmlns="http://www.w3.org/2000/svg" version="1.1">
<title>OpenSCAD Model</title>
<path d="
M 12.217,-147.177 L 12.1948,-147.191 L 12.177,-147.21 L 12.1647,-147.233 L 12.1582,-147.268 L 12.1581,-147.376
 L 12.1613,-147.555 L 12.1682,-147.736 L 12.1778,-147.905 L 12.1899,-148.067 L 12.2041,-148.226 L 12.22,-148.381
 L 12.2374,-148.535 L 12.2554,-148.685 L 12.274,-148.836 L 12.2929,-148.988 L 12.3113,-149.14 L 12.3294,-149.297
 L 12.3459,-149.454 L 12.3613,-149.617 L 12.3747,-149.786 L 12.3855,-149.955 L 12.3941,-150.139 L 12.3942,-150.143
 L 12.3996,-150.332 L 12.4014,-150.527 L 12.4008,-150.648 L 12.399,-150.762 L 12.3962,-150.872 L 12.3921,-150.982
 L 12.387,-151.091 L 12.3808,-151.195 L 12.3732,-151.305 L 12.3649,-151.406 L 12.3552,-151.51 L 12.3448,-151.609
 L 12.3331,-151.708 L 12.3202,-151.807 L 12.3072,-151.899 L 12.2918,-151.997 L 12.2763,-152.089 L 12.2596,-152.181
 L 12.242,-152.271 L 12.2237,-152.358 L 12.2056,-152.438 L 12.2033,-152.464 L 12.2078,-152.49 L 12.2188,-152.514
 L 12.2355,-152.534 L 12.2569,-152.549 L 12.2761,-152.557 L 12.2797,-152.558 L 12.2908,-152.561 L 12.375,-152.592
 L 12.3864,-152.597 L 12.465,-152.634 L 12.4759,-152.639 L 12.5492,-152.681 L 12.5598,-152.687 L 12.6277,-152.734
 L 12.6375,-152.741 L 12.7001,-152.792 L 12.7096,-152.8 L 12.7668,-152.854 L 12.7752,-152.863 L 12.8278,-152.922
 L 12.8355,-152.931 L 12.8829,-152.994 L 12.8897,-153.003 L 12.9315,-153.068 L 12.9376,-153.078 L 12.9747,-153.147
 L 12.9798,-153.157 L 13.012,-153.229 L 13.0159,-153.238 L 13.0427,-153.312 L 13.046,-153.322 L 13.0678,-153.398
 L 13.0702,-153.408 L 13.0866,-153.486 L 13.0883,-153.496 L 13.0992,-153.574 L 13.1003,-153.584 L 13.1059,-153.664
 L 13.1062,-153.674 L 13.1063,-153.755 L 13.106,-153.765 L 13.1006,-153.845 L 13.0996,-153.855 L 13.0887,-153.935
 L 13.0871,-153.945 L 13.0705,-154.027 L 13.0683,-154.036 L 13.0468,-154.117 L 13.044,-154.126 L 13.0179,-154.202
 L 13.0141,-154.212 L 12.9832,-154.285 L 12.9785,-154.295 L 12.9432,-154.364 L 12.9374,-154.374 L 12.8975,-154.439
 L 12.8906,-154.449 L 12.8459,-154.51 L 12.838,-154.52 L 12.7887,-154.577 L 12.7796,-154.586 L 12.7254,-154.638
 L 12.7153,-154.647 L 12.6559,-154.695 L 12.6455,-154.703 L 12.5809,-154.746 L 12.5693,-154.753 L 12.4994,-154.791
 L 12.4875,-154.797 L 12.4117,-154.83 L 12.3995,-154.834 L 12.3179,-154.862 L 12.3055,-154.865 L 12.2173,-154.887
 L 12.2055,-154.89 L 12.1107,-154.905 L 12.0993,-154.907 L 11.997,-154.916 L 11.987,-154.916 L 11.8771,-154.918
 L 11.8672,-154.918 L 11.7513,-154.913 L 11.7417,-154.912 L 11.6164,-154.898 L 11.6119,-154.897 L 11.5735,-154.892
 L 11.5343,-154.885 L 11.531,-154.885 L 11.4958,-154.878 L 11.4925,-154.877 L 11.4587,-154.87 L 11.4548,-154.869
 L 11.4241,-154.861 L 11.4193,-154.86 L 11.3893,-154.852 L 11.386,-154.851 L 11.3568,-154.843 L 11.3528,-154.841
 L 11.3246,-154.832 L 11.3215,-154.831 L 11.2957,-154.822 L 11.2917,-154.82 L 11.2668,-154.81 L 11.261,-154.808
 L 11.24,-154.799 L 11.2351,-154.797 L 11.2132,-154.786 L 11.2085,-154.784 L 11.1881,-154.773 L 11.1833,-154.771
 L 11.165,-154.76 L 11.1594,-154.757 L 11.1421,-154.746 L 11.1371,-154.743 L 11.1202,-154.732 L 11.1153,-154.728
 L 11.1027,-154.719 L 11.0798,-154.706 L 11.0545,-154.7 L 11.0284,-154.701 L 11.0033,-154.708 L 10.9782,-154.724
 L 10.8946,-154.796 L 10.8876,-154.802 L 10.7357,-154.917 L 10.7283,-154.923 L 10.5692,-155.03 L 10.5625,-155.035
 L 10.3962,-155.134 L 10.389,-155.139 L 10.2175,-155.23 L 10.2107,-155.233 L 10.0329,-155.317 L 10.0269,-155.32
 L 9.84358,-155.397 L 9.83757,-155.399 L 9.64851,-155.469 L 9.64418,-155.471 L 9.4507,-155.534 L 9.44528,-155.536
 L 9.24889,-155.592 L 9.24388,-155.594 L 9.04323,-155.644 L 9.03793,-155.645 L 8.83578,-155.69 L 8.83157,-155.691
 L 8.62561,-155.729 L 8.62051,-155.73 L 8.41341,-155.764 L 8.40892,-155.764 L 8.19853,-155.793 L 7.98485,-155.817
 L 7.77052,-155.837 L 7.76778,-155.837 L 7.55151,-155.852 L 7.33809,-155.864 L 7.12407,-155.872 L 7.0789,-155.874
 L 7.03323,-155.875 L 6.98822,-155.876 L 6.94234,-155.877 L 6.89748,-155.877 L 6.85298,-155.878 L 6.82405,-155.878
 L 6.6062,-155.877 L 6.60291,-155.877 L 6.39676,-155.872 L 6.39233,-155.871 L 6.19016,-155.861 L 6.1861,-155.861
 L 5.9899,-155.847 L 5.98547,-155.846 L 5.79655,-155.827 L 5.79195,-155.826 L 5.60843,-155.802 L 5.6035,-155.802
 L 5.42664,-155.773 L 5.42128,-155.772 L 5.24841,-155.738 L 5.24333,-155.737 L 5.07707,-155.698 L 5.07207,-155.696
 L 4.90976,-155.652 L 4.90402,-155.65 L 4.74852,-155.601 L 4.74263,-155.599 L 4.59216,-155.545 L 4.58575,-155.542
 L 4.43878,-155.482 L 4.43288,-155.479 L 4.29196,-155.414 L 4.28525,-155.411 L 4.14745,-155.339 L 4.14162,-155.336
 L 4.00891,-155.259 L 4.0023,-155.255 L 3.87321,-155.173 L 3.86684,-155.168 L 3.74216,-155.08 L 3.73619,-155.076
 L 3.61414,-154.98 L 3.60892,-154.976 L 3.55879,-154.933 L 3.5369,-154.919 L 3.51207,-154.911 L 3.48601,-154.91
 L 3.46046,-154.915 L 3.42812,-154.934 L 3.41618,-154.944 L 3.41121,-154.949 L 3.39476,-154.961 L 3.38968,-154.965
 L 3.37178,-154.978 L 3.36644,-154.982 L 3.34691,-154.995 L 3.34177,-154.998 L 3.32164,-155.01 L 3.31566,-155.013
 L 3.29382,-155.025 L 3.28879,-155.027 L 3.26512,-155.039 L 3.25911,-155.041 L 3.23476,-155.052 L 3.22946,-155.054
 L 3.20171,-155.065 L 3.19743,-155.067 L 3.16841,-155.077 L 3.1637,-155.079 L 3.13225,-155.089 L 3.12769,-155.09
 L 3.09505,-155.1 L 3.09215,-155.1 L 3.05705,-155.109 L 3.05235,-155.111 L 3.01486,-155.119 L 3.01147,-155.12
 L 2.97403,-155.127 L 2.97078,-155.128 L 2.92818,-155.135 L 2.9259,-155.136 L 2.88319,-155.142 L 2.87752,-155.143
 L 2.75366,-155.156 L 2.74367,-155.157 L 2.62773,-155.163 L 2.61787,-155.163 L 2.50793,-155.161 L 2.49794,-155.16
 L 2.39569,-155.151 L 2.38417,-155.15 L 2.2897,-155.134 L 2.27774,-155.132 L 2.1895,-155.11 L 2.17732,-155.106
 L 2.09515,-155.079 L 2.08311,-155.074 L 2.00746,-155.041 L 1.99565,-155.035 L 1.92555,-154.997 L 1.91386,-154.99
 L 1.84953,-154.947 L 1.8389,-154.939 L 1.77951,-154.892 L 1.76958,-154.883 L 1.71536,-154.831 L 1.70633,-154.821
 L 1.657,-154.765 L 1.64905,-154.755 L 1.60452,-154.694 L 1.59761,-154.684 L 1.55753,-154.619 L 1.55183,-154.609
 L 1.51637,-154.539 L 1.5117,-154.529 L 1.48082,-154.456 L 1.47716,-154.447 L 1.4511,-154.37 L 1.44818,-154.361
 L 1.42674,-154.281 L 1.42448,-154.272 L 1.40785,-154.189 L 1.40625,-154.18 L 1.3958,-154.103 L 1.39473,-154.093
 L 1.3893,-154.017 L 1.3889,-154.006 L 1.38846,-153.93 L 1.38872,-153.921 L 1.39328,-153.844 L 1.39417,-153.834
 L 1.40369,-153.759 L 1.40521,-153.749 L 1.41966,-153.675 L 1.422,-153.665 L 1.44124,-153.592 L 1.44421,-153.582
 L 1.46841,-153.511 L 1.47188,-153.501 L 1.50099,-153.432 L 1.50543,-153.422 L 1.53908,-153.356 L 1.54431,-153.346
 L 1.58263,-153.282 L 1.58875,-153.273 L 1.63162,-153.212 L 1.63858,-153.203 L 1.6862,-153.145 L 1.69389,-153.136
 L 1.74617,-153.081 L 1.75452,-153.073 L 1.81154,-153.022 L 1.82091,-153.015 L 1.88252,-152.968 L 1.89224,-152.961
 L 1.95872,-152.918 L 1.96869,-152.912 L 2.04056,-152.873 L 2.05133,-152.868 L 2.12752,-152.834 L 2.13802,-152.83
 L 2.13876,-152.83 L 2.13998,-152.829 L 2.13995,-152.829 L 2.16205,-152.818 L 2.1815,-152.8 L 2.19577,-152.779
 L 2.20389,-152.754 L 2.20532,-152.728 L 2.20239,-152.71 L 2.19958,-152.699 L 2.17514,-152.597 L 2.15175,-152.491
 L 2.15117,-152.488 L 2.1302,-152.384 L 2.10934,-152.271 L 2.09108,-152.162 L 2.07341,-152.046 L 2.05638,-151.922
 L 2.04182,-151.804 L 2.02791,-151.678 L 2.01515,-151.547 L 2.00397,-151.417 L 1.99385,-151.283 L 1.98474,-151.142
 L 1.97693,-151 L 1.9702,-150.854 L 1.96455,-150.704 L 1.95999,-150.55 L 1.95645,-150.392 L 1.95393,-150.23
 L 1.95206,-150.043 L 1.9511,-149.867 L 1.95088,-149.7 L 1.95126,-149.54 L 1.95219,-149.39 L 1.95352,-149.245
 L 1.95508,-149.105 L 1.95676,-148.97 L 1.95845,-148.838 L 1.95998,-148.708 L 1.96127,-148.579 L 1.9622,-148.45
 L 1.96259,-148.321 L 1.9623,-148.191 L 1.96126,-148.055 L 1.9593,-147.917 L 1.95633,-147.774 L 1.95221,-147.624
 L 1.94682,-147.469 L 1.94333,-147.385 L 1.93884,-147.359 L 1.92787,-147.336 L 1.91113,-147.316 L 1.88977,-147.301
 L 1.86143,-147.291 L 1.8278,-147.285 L 1.77126,-147.274 L 1.71553,-147.262 L 1.65965,-147.25 L 1.60327,-147.237
 L 1.54832,-147.223 L 1.49565,-147.21 L 1.44173,-147.195 L 1.38739,-147.179 L 1.3335,-147.162 L 1.28729,-147.147
 L 1.23793,-147.13 L 1.1899,-147.112 L 1.18721,-147.111 L 1.1454,-147.094 L 1.14166,-147.093 L 1.10118,-147.076
 L 1.09824,-147.074 L 1.0594,-147.057 L 1.05635,-147.055 L 1.02167,-147.038 L 1.01685,-147.035 L 0.984528,-147.018
 L 0.978729,-147.014 L 0.95401,-147 L 0.942291,-146.992 L 0.925751,-146.98 L 0.910126,-146.967 L 0.897736,-146.955
 L 0.884918,-146.941 L 0.873077,-146.926 L 0.862839,-146.912 L 0.851822,-146.894 L 0.84404,-146.88 L 0.834213,-146.86
 L 0.828323,-146.846 L 0.819687,-146.822 L 0.81575,-146.81 L 0.808701,-146.784 L 0.805969,-146.772 L 0.800766,-146.744
 L 0.799149,-146.733 L 0.795853,-146.702 L 0.795105,-146.692 L 0.793915,-146.66 L 0.793854,-146.65 L 0.794724,-146.618
 L 0.795303,-146.608 L 0.798248,-146.575 L 0.799377,-146.566 L 0.804337,-146.533 L 0.806,-146.524 L 0.813034,-146.491
 L 0.815079,-146.482 L 0.824051,-146.45 L 0.826569,-146.442 L 0.837219,-146.411 L 0.840469,-146.402 L 0.852585,-146.373
 L 0.856735,-146.364 L 0.870026,-146.338 L 0.875427,-146.328 L 0.889389,-146.304 L 0.895767,-146.294 L 0.911072,-146.273
 L 0.917892,-146.264 L 0.935211,-146.243 L 0.941818,-146.235 L 0.959808,-146.216 L 0.967209,-146.209 L 0.984238,-146.193
 L 0.993073,-146.186 L 1.00923,-146.173 L 1.0191,-146.166 L 1.03479,-146.156 L 1.04602,-146.149 L 1.06078,-146.141
 L 1.07303,-146.135 L 1.08711,-146.129 L 1.10025,-146.124 L 1.11494,-146.119 L 1.12756,-146.115 L 1.14268,-146.112
 L 1.15569,-146.109 L 1.17168,-146.107 L 1.18385,-146.106 L 1.20062,-146.105 L 1.21233,-146.105 L 1.2303,-146.105
 L 1.24115,-146.106 L 1.26146,-146.107 L 1.27097,-146.109 L 1.29184,-146.112 L 1.3006,-146.114 L 1.32335,-146.119
 L 1.3316,-146.121 L 1.3555,-146.127 L 1.36243,-146.129 L 1.38832,-146.138 L 1.39432,-146.14 L 1.42126,-146.15
 L 1.42708,-146.152 L 1.45471,-146.164 L 1.45908,-146.166 L 1.48888,-146.18 L 1.49307,-146.182 L 1.50725,-146.189
 L 1.51131,-146.191 L 1.52516,-146.198 L 1.52919,-146.2 L 1.54347,-146.208 L 1.54761,-146.211 L 1.5627,-146.22
 L 1.56522,-146.221 L 1.58231,-146.232 L 1.60353,-146.246 L 1.62071,-146.258 L 1.62341,-146.26 L 1.64203,-146.273
 L 1.66049,-146.286 L 1.68272,-146.303 L 1.7027,-146.319 L 1.71416,-146.328 L 1.73656,-146.341 L 1.76166,-146.348
 L 1.78775,-146.349 L 1.81308,-146.342 L 1.83589,-146.33 L 1.85464,-146.311 L 1.86806,-146.289 L 1.87523,-146.264
 L 1.87608,-146.243 L 1.87012,-146.152 L 1.85034,-145.841 L 1.83243,-145.544 L 1.81679,-145.261 L 1.80353,-144.992
 L 1.79289,-144.734 L 1.78508,-144.486 L 1.78035,-144.25 L 1.77878,-144.019 L 1.78064,-143.8 L 1.78621,-143.579
 L 1.79535,-143.372 L 1.79558,-143.368 L 1.8087,-143.163 L 1.80896,-143.159 L 1.82639,-142.955 L 1.84828,-142.751
 L 1.84865,-142.748 L 1.87503,-142.545 L 1.87558,-142.541 L 1.90646,-142.339 L 1.90697,-142.336 L 1.94322,-142.13
 L 1.98503,-141.918 L 1.98584,-141.914 L 2.03261,-141.7 L 2.03334,-141.697 L 2.05457,-141.609 L 2.05547,-141.605
 L 2.08002,-141.514 L 2.0807,-141.511 L 2.10779,-141.419 L 2.10873,-141.416 L 2.13847,-141.325 L 2.14017,-141.32
 L 2.17184,-141.23 L 2.1732,-141.226 L 2.20914,-141.133 L 2.21014,-141.13 L 2.24887,-141.037 L 2.24997,-141.034
 L 2.29189,-140.941 L 2.2934,-140.937 L 2.33748,-140.846 L 2.33978,-140.841 L 2.38699,-140.75 L 2.38876,-140.747
 L 2.44017,-140.654 L 2.44165,-140.652 L 2.49672,-140.559 L 2.49869,-140.556 L 2.5556,-140.467 L 2.55862,-140.462
 L 2.61974,-140.372 L 2.62233,-140.368 L 2.68646,-140.28 L 2.68977,-140.276 L 2.75758,-140.188 L 2.76065,-140.184
 L 2.83272,-140.097 L 2.83627,-140.093 L 2.91165,-140.007 L 2.9144,-140.004 L 2.99115,-139.922 L 3.00638,-139.901
 L 3.01561,-139.877 L 3.0182,-139.851 L 3.01399,-139.825 L 3.00325,-139.801 L 2.98672,-139.781 L 2.97064,-139.769
 L 2.92708,-139.742 L 2.92276,-139.739 L 2.87617,-139.708 L 2.87236,-139.706 L 2.82724,-139.673 L 2.82361,-139.671
 L 2.77882,-139.636 L 2.77539,-139.634 L 2.73236,-139.598 L 2.7291,-139.595 L 2.68851,-139.559 L 2.68437,-139.556
 L 2.64456,-139.518 L 2.64076,-139.514 L 2.60237,-139.475 L 2.59895,-139.472 L 2.56209,-139.431 L 2.55865,-139.428
 L 2.52344,-139.386 L 2.51965,-139.382 L 2.48654,-139.34 L 2.48326,-139.336 L 2.4505,-139.292 L 2.44774,-139.288
 L 2.41713,-139.243 L 2.41425,-139.239 L 2.38567,-139.193 L 2.38231,-139.188 L 2.35526,-139.142 L 2.35236,-139.136
 L 2.32744,-139.09 L 2.32483,-139.085 L 2.30093,-139.036 L 2.29871,-139.031 L 2.27869,-138.986 L 2.27357,-138.973
 L 2.25206,-138.908 L 2.24628,-138.885 L 2.2372,-138.83 L 2.23518,-138.806 L 2.23526,-138.755 L 2.23737,-138.73
 L 2.24538,-138.683 L 2.25146,-138.659 L 2.26689,-138.614 L 2.27608,-138.593 L 2.29854,-138.55 L 2.31004,-138.532
 L 2.33928,-138.492 L 2.35245,-138.476 L 2.38799,-138.44 L 2.40208,-138.427 L 2.44328,-138.394 L 2.45805,-138.383
 L 2.50395,-138.355 L 2.51933,-138.347 L 2.56866,-138.324 L 2.58492,-138.317 L 2.63614,-138.301 L 2.65367,-138.296
 L 2.70554,-138.286 L 2.72418,-138.283 L 2.77603,-138.279 L 2.79547,-138.279 L 2.84586,-138.282 L 2.8667,-138.285
 L 2.91417,-138.295 L 2.93607,-138.301 L 2.98044,-138.317 L 3.00212,-138.327 L 3.04343,-138.351 L 3.06409,-138.365
 L 3.10226,-138.396 L 3.12035,-138.413 L 3.15971,-138.458 L 3.16737,-138.467 L 3.23006,-138.551 L 3.26208,-138.594
 L 3.2952,-138.637 L 3.32764,-138.679 L 3.35994,-138.72 L 3.39374,-138.761 L 3.42612,-138.799 L 3.45949,-138.837
 L 3.46114,-138.838 L 3.49486,-138.874 L 3.49675,-138.876 L 3.53111,-138.911 L 3.53322,-138.913 L 3.56882,-138.947
 L 3.57115,-138.95 L 3.6078,-138.982 L 3.61037,-138.985 L 3.64844,-139.016 L 3.65118,-139.019 L 3.69046,-139.049
 L 3.69341,-139.051 L 3.73558,-139.082 L 3.73863,-139.084 L 3.78207,-139.113 L 3.78528,-139.115 L 3.83054,-139.143
 L 3.83379,-139.145 L 3.88191,-139.172 L 3.88533,-139.173 L 3.89111,-139.176 L 3.9157,-139.185 L 3.94173,-139.187
 L 3.96741,-139.183 L 3.9841,-139.175 L 4.0573,-139.136 L 4.06163,-139.134 L 4.18277,-139.073 L 4.18663,-139.071
 L 4.31364,-139.012 L 4.31659,-139.011 L 4.44765,-138.955 L 4.45157,-138.953 L 4.588,-138.899 L 4.5912,-138.898
 L 4.73096,-138.847 L 4.73619,-138.845 L 4.88036,-138.797 L 4.88341,-138.796 L 5.03461,-138.751 L 5.03783,-138.75
 L 5.19357,-138.707 L 5.19637,-138.706 L 5.35701,-138.667 L 5.35951,-138.667 L 5.52478,-138.63 L 5.52905,-138.63
 L 5.69897,-138.597 L 5.70328,-138.596 L 5.87788,-138.567 L 5.88121,-138.567 L 6.06184,-138.541 L 6.06493,-138.54
 L 6.25438,-138.518 L 6.44705,-138.5 L 6.44937,-138.499 L 6.64682,-138.485 L 6.64963,-138.485 L 6.85504,-138.474
 L 7.06822,-138.468 L 7.28456,-138.466 L 7.43062,-138.467 L 7.4342,-138.467 L 7.57803,-138.471 L 7.58163,-138.471
 L 7.72438,-138.477 L 7.87167,-138.487 L 8.01096,-138.498 L 8.15259,-138.512 L 8.29256,-138.529 L 8.42636,-138.548
 L 8.42937,-138.548 L 8.56015,-138.569 L 8.56329,-138.569 L 8.6963,-138.593 L 8.82298,-138.619 L 8.95483,-138.648
 L 9.07816,-138.678 L 9.08199,-138.679 L 9.20175,-138.711 L 9.20586,-138.712 L 9.32373,-138.746 L 9.32724,-138.747
 L 9.44424,-138.783 L 9.44756,-138.784 L 9.56253,-138.823 L 9.56464,-138.824 L 9.67751,-138.864 L 9.68011,-138.865
 L 9.7908,-138.908 L 9.79446,-138.91 L 9.87659,-138.943 L 9.90181,-138.95 L 9.93167,-138.949 L 9.98126,-138.941
 L 9.98523,-138.94 L 10.0567,-138.925 L 10.0608,-138.924 L 10.1287,-138.906 L 10.1329,-138.905 L 10.1964,-138.886
 L 10.2006,-138.884 L 10.2616,-138.863 L 10.2658,-138.861 L 10.3234,-138.838 L 10.3275,-138.836 L 10.382,-138.811
 L 10.386,-138.809 L 10.4387,-138.781 L 10.4425,-138.779 L 10.4927,-138.751 L 10.4961,-138.749 L 10.5451,-138.718
 L 10.5482,-138.716 L 10.5959,-138.684 L 10.5987,-138.682 L 10.6453,-138.648 L 10.6478,-138.646 L 10.6931,-138.611
 L 10.6951,-138.609 L 10.7408,-138.572 L 10.7888,-138.53 L 10.8342,-138.49 L 10.8795,-138.448 L 10.9252,-138.406
 L 10.9718,-138.362 L 11.0145,-138.322 L 11.0235,-138.314 L 11.0708,-138.276 L 11.0901,-138.262 L 11.1353,-138.236
 L 11.1558,-138.227 L 11.2037,-138.208 L 11.2244,-138.202 L 11.2749,-138.19 L 11.295,-138.187 L 11.3472,-138.183
 L 11.3665,-138.182 L 11.4201,-138.184 L 11.4384,-138.186 L 11.492,-138.195 L 11.5092,-138.199 L 11.5621,-138.215
 L 11.5784,-138.22 L 11.6288,-138.242 L 11.6442,-138.249 L 11.6918,-138.276 L 11.7064,-138.286 L 11.7493,-138.317
 L 11.7634,-138.329 L 11.801,-138.364 L 11.8143,-138.378 L 11.8457,-138.417 L 11.8576,-138.433 L 11.8824,-138.474
 L 11.8925,-138.494 L 11.9101,-138.536 L 11.9176,-138.559 L 11.9282,-138.603 L 11.932,-138.627 L 11.9352,-138.673
 L 11.9347,-138.698 L 11.9298,-138.748 L 11.9253,-138.772 L 11.9107,-138.825 L 11.9027,-138.847 L 11.8751,-138.909
 L 11.8687,-138.921 L 11.8462,-138.96 L 11.8428,-138.966 L 11.8176,-139.006 L 11.8135,-139.012 L 11.7859,-139.051
 L 11.7822,-139.057 L 11.7528,-139.095 L 11.7493,-139.099 L 11.7185,-139.136 L 11.7145,-139.141 L 11.6817,-139.177
 L 11.6772,-139.182 L 11.6432,-139.216 L 11.6388,-139.221 L 11.603,-139.254 L 11.5989,-139.258 L 11.5611,-139.291
 L 11.5573,-139.294 L 11.5178,-139.326 L 11.5136,-139.33 L 11.4728,-139.361 L 11.4688,-139.363 L 11.427,-139.393
 L 11.4218,-139.396 L 11.3789,-139.425 L 11.375,-139.427 L 11.3295,-139.455 L 11.3253,-139.457 L 11.2777,-139.485
 L 11.2746,-139.487 L 11.227,-139.512 L 11.2225,-139.515 L 11.1735,-139.539 L 11.1704,-139.541 L 11.1467,-139.552
 L 11.1248,-139.566 L 11.1073,-139.586 L 11.0953,-139.609 L 11.0898,-139.634 L 11.0911,-139.66 L 11.0991,-139.685
 L 11.1133,-139.707 L 11.122,-139.716 L 11.1219,-139.716 L 11.2295,-139.817 L 11.2337,-139.821 L 11.3344,-139.923
 L 11.3389,-139.927 L 11.4352,-140.034 L 11.4392,-140.038 L 11.5293,-140.146 L 11.5328,-140.151 L 11.6182,-140.263
 L 11.6219,-140.268 L 11.7006,-140.381 L 11.7045,-140.387 L 11.7783,-140.504 L 11.7819,-140.51 L 11.8492,-140.628
 L 11.8528,-140.635 L 11.9145,-140.756 L 11.918,-140.763 L 11.974,-140.886 L 11.977,-140.893 L 12.0272,-141.019
 L 12.0296,-141.025 L 12.0746,-141.155 L 12.0765,-141.161 L 12.1153,-141.292 L 12.1171,-141.299 L 12.1495,-141.431
 L 12.1513,-141.439 L 12.1777,-141.573 L 12.1789,-141.58 L 12.1993,-141.717 L 12.2002,-141.724 L 12.2145,-141.863
 L 12.215,-141.871 L 12.2229,-142.011 L 12.2231,-142.018 L 12.2247,-142.162 L 12.2247,-142.166 L 12.223,-142.332
 L 12.2217,-142.506 L 12.2207,-142.688 L 12.2199,-142.875 L 12.2193,-143.069 L 12.2182,-143.474 L 12.2177,-143.683
 L 12.217,-143.898 L 12.2161,-144.116 L 12.215,-144.339 L 12.2136,-144.565 L 12.2117,-144.793 L 12.2093,-145.025
 L 12.2064,-145.259 L 12.2028,-145.495 L 12.1986,-145.734 L 12.1936,-145.972 L 12.1877,-146.215 L 12.1904,-146.241
 L 12.1998,-146.265 L 12.2152,-146.286 L 12.2355,-146.303 L 12.2594,-146.313 L 12.2852,-146.317 L 12.3111,-146.315
 L 12.3355,-146.305 L 12.3537,-146.293 L 12.3743,-146.274 L 12.3996,-146.253 L 12.4261,-146.23 L 12.4538,-146.207
 L 12.4773,-146.188 L 12.5058,-146.166 L 12.5276,-146.15 L 12.5307,-146.148 L 12.5549,-146.13 L 12.5777,-146.114
 L 12.5803,-146.113 L 12.6019,-146.098 L 12.6052,-146.096 L 12.6252,-146.084 L 12.6284,-146.082 L 12.6494,-146.069
 L 12.653,-146.067 L 12.6709,-146.058 L 12.6755,-146.055 L 12.6941,-146.046 L 12.699,-146.044 L 12.728,-146.03
 L 12.7329,-146.028 L 12.7606,-146.017 L 12.7658,-146.014 L 12.7933,-146.004 L 12.7991,-146.002 L 12.8247,-145.994
 L 12.8318,-145.991 L 12.8558,-145.985 L 12.8641,-145.983 L 12.887,-145.978 L 12.8953,-145.976 L 12.9166,-145.973
 L 12.9262,-145.971 L 12.9459,-145.97 L 12.9574,-145.969 L 12.9749,-145.969 L 12.9867,-145.969 L 13.0034,-145.97
 L 13.0161,-145.971 L 13.0317,-145.973 L 13.0446,-145.976 L 13.0597,-145.979 L 13.0727,-145.983 L 13.0874,-145.988
 L 13.1,-145.993 L 13.1144,-145.999 L 13.1269,-146.005 L 13.1413,-146.013 L 13.1527,-146.02 L 13.1681,-146.03
 L 13.1781,-146.037 L 13.1946,-146.05 L 13.2032,-146.057 L 13.2202,-146.073 L 13.2278,-146.081 L 13.2455,-146.099
 L 13.2519,-146.107 L 13.2695,-146.128 L 13.2765,-146.137 L 13.2915,-146.158 L 13.2981,-146.169 L 13.3122,-146.192
 L 13.3174,-146.202 L 13.3307,-146.228 L 13.3348,-146.237 L 13.3469,-146.266 L 13.3502,-146.275 L 13.3606,-146.305
 L 13.3634,-146.314 L 13.3722,-146.346 L 13.3744,-146.355 L 13.3815,-146.388 L 13.383,-146.397 L 13.388,-146.43
 L 13.3892,-146.439 L 13.3921,-146.472 L 13.3927,-146.482 L 13.3936,-146.514 L 13.3935,-146.524 L 13.3923,-146.556
 L 13.3916,-146.566 L 13.3883,-146.597 L 13.3866,-146.608 L 13.3814,-146.636 L 13.3787,-146.648 L 13.3717,-146.674
 L 13.3677,-146.687 L 13.3591,-146.71 L 13.3532,-146.724 L 13.3433,-146.744 L 13.3355,-146.758 L 13.3247,-146.776
 L 13.3143,-146.79 L 13.3026,-146.805 L 13.2898,-146.819 L 13.277,-146.831 L 13.2617,-146.844 L 13.2451,-146.856
 L 13.2333,-146.864 L 13.2054,-146.88 L 13.1998,-146.884 L 13.1653,-146.902 L 13.1603,-146.905 L 13.121,-146.924
 L 13.1167,-146.926 L 13.0757,-146.944 L 13.0721,-146.946 L 13.0274,-146.965 L 13.0234,-146.966 L 12.9777,-146.984
 L 12.9745,-146.985 L 12.9246,-147.003 L 12.9223,-147.004 L 12.8705,-147.021 L 12.8678,-147.022 L 12.8155,-147.038
 L 12.8125,-147.039 L 12.7583,-147.055 L 12.6966,-147.073 L 12.6386,-147.088 L 12.5797,-147.102 L 12.5194,-147.116
 L 12.4572,-147.13 L 12.397,-147.142 L 12.3354,-147.154 L 12.276,-147.164 L 12.242,-147.17 z
" stroke="black" fill="lightgray" stroke-width="0.5"/>
</svg>
