<?xml version="1.0" standalone="no"?>
<!DOCTYPE svg PUBLIC "-//W3C//DTD SVG 1.1//EN" "http://www.w3.org/Graphics/SVG/1.1/DTD/svg11.dtd">
<svg width="47mm" height="64mm" viewBox="-23 -32 47 64" xmlns="http://www.w3.org/2000/svg" version="1.1">
<title>OpenSCAD Model</title>
<path d="
M 15.9086,31.7363 L 15.9818,31.7286 L 16.1677,31.6975 L 16.2366,31.6817 L 16.4197,31.6283 L 16.4848,31.6052
 L 16.6607,31.5311 L 16.7226,31.5007 L 16.8868,31.4079 L 16.9461,31.3697 L 17.0947,31.261 L 17.1512,31.214
 L 17.2807,31.0924 L 17.3339,31.0355 L 17.4415,30.9042 L 17.4899,30.8359 L 17.5739,30.6979 L 17.6148,30.6178
 L 17.6747,30.4749 L 17.7046,30.3837 L 17.7402,30.2359 L 17.7555,30.1368 L 17.7662,29.9817 L 17.7646,29.88
 L 17.7478,29.7136 L 17.7296,29.6156 L 17.6798,29.4335 L 17.6479,29.3449 L 17.5514,29.1314 L 17.5252,29.0801
 L 17.4478,28.9451 L 17.434,28.9221 L 17.3428,28.7783 L 17.3281,28.7563 L 17.2308,28.6168 L 17.2154,28.5958
 L 17.1119,28.4604 L 17.096,28.4405 L 16.9864,28.3091 L 16.9702,28.2903 L 16.8545,28.1627 L 16.8379,28.1452
 L 16.7162,28.0213 L 16.6995,28.005 L 16.5717,27.8847 L 16.555,27.8696 L 16.4213,27.7529 L 16.4047,27.7389
 L 16.2651,27.6257 L 16.2487,27.6128 L 16.1032,27.503 L 16.0871,27.4912 L 15.9359,27.3849 L 15.9201,27.3741
 L 15.7633,27.2711 L 15.7479,27.2613 L 15.5856,27.1616 L 15.5706,27.1527 L 15.403,27.0563 L 15.3884,27.0482
 L 15.2155,26.9551 L 15.2014,26.9478 L 15.0235,26.8579 L 15.0099,26.8513 L 14.9815,26.8378 L 14.8237,26.7038
 L 14.754,26.5088 L 14.7912,26.3051 L 14.8797,26.184 L 15.2245,25.862 L 15.2422,25.8449 L 15.6044,25.4777
 L 15.6216,25.4595 L 15.9644,25.0817 L 15.9811,25.0624 L 16.3043,24.6743 L 16.3204,24.654 L 16.6238,24.2559
 L 16.6393,24.2346 L 16.9226,23.8268 L 16.9373,23.8045 L 17.2005,23.3873 L 17.2144,23.3642 L 17.4573,22.9378
 L 17.4702,22.9138 L 17.6926,22.4786 L 17.7046,22.4538 L 17.9062,22.0099 L 17.9171,21.9845 L 18.0979,21.5322
 L 18.1076,21.5062 L 18.2673,21.0458 L 18.2759,21.0192 L 18.4143,20.551 L 18.4216,20.524 L 18.5385,20.048
 L 18.5445,20.0208 L 18.6397,19.5373 L 18.6444,19.5099 L 18.7175,19.0192 L 18.721,18.9918 L 18.7719,18.494
 L 18.774,18.4667 L 18.8024,17.9621 L 18.8033,17.9349 L 18.8089,17.4165 L 18.8089,17.404 L 18.8029,16.8077
 L 18.8028,16.8067 L 18.7981,16.1788 L 18.7981,16.178 L 18.7944,15.5256 L 18.7944,15.525 L 18.7916,14.8492
 L 18.7916,14.8489 L 18.7894,14.1512 L 18.7894,14.151 L 18.7876,13.4327 L 18.7876,13.4327 L 18.7857,12.6953
 L 18.7857,12.6952 L 18.7838,11.9401 L 18.7838,11.9398 L 18.7813,11.1685 L 18.7813,11.168 L 18.7782,10.3818
 L 18.7782,10.3811 L 18.7741,9.58127 L 18.7741,9.58042 L 18.7688,8.76825 L 18.7688,8.76723 L 18.762,7.94407
 L 18.762,7.94288 L 18.7535,7.11005 L 18.7535,7.1087 L 18.743,6.26753 L 18.743,6.26601 L 18.7303,5.41782
 L 18.7303,5.41613 L 18.715,4.56225 L 18.715,4.56038 L 18.697,3.70214 L 18.697,3.70009 L 18.6779,2.91741
 L 18.7266,2.71617 L 18.8694,2.56623 L 19.0681,2.50779 L 19.3407,2.60619 L 19.3449,2.6099 L 19.4364,2.68891
 L 19.4413,2.69309 L 19.5314,2.7692 L 19.5369,2.77379 L 19.6254,2.84678 L 19.6316,2.85181 L 19.7184,2.92147
 L 19.7253,2.92697 L 19.8103,2.9931 L 19.8181,2.99908 L 19.901,3.06146 L 19.9098,3.06796 L 19.9904,3.12638
 L 20.0004,3.13342 L 20.0785,3.18767 L 20.0898,3.19528 L 20.1652,3.24516 L 20.178,3.25334 L 20.2504,3.29866
 L 20.2649,3.30742 L 20.334,3.34799 L 20.3505,3.35731 L 20.416,3.39299 L 20.4348,3.40282 L 20.4977,3.43426
 L 20.5161,3.44308 L 20.6198,3.49063 L 20.6376,3.49844 L 20.7382,3.54065 L 20.7588,3.54886 L 20.8544,3.58486
 L 20.8782,3.59325 L 20.9684,3.62297 L 20.9957,3.63125 L 21.0802,3.65471 L 21.1113,3.66246 L 21.19,3.67982
 L 21.2251,3.68649 L 21.2977,3.69804 L 21.337,3.70296 L 21.4036,3.70909 L 21.4469,3.7115 L 21.5078,3.71268
 L 21.5547,3.71176 L 21.6105,3.70847 L 21.6603,3.70346 L 21.712,3.69606 L 21.7634,3.68639 L 21.8123,3.67497
 L 21.8641,3.6604 L 21.9117,3.64468 L 21.9623,3.62538 L 22.0101,3.60466 L 22.0582,3.5812 L 22.1074,3.5544
 L 22.1518,3.52769 L 22.2034,3.49346 L 22.2434,3.46459 L 22.298,3.42151 L 22.3332,3.39156 L 22.3911,3.33826
 L 22.4215,3.3082 L 22.4824,3.24346 L 22.5084,3.21408 L 22.5694,3.14013 L 22.5961,3.10521 L 22.6483,3.03166
 L 22.6745,2.99129 L 22.7228,2.91018 L 22.7438,2.87159 L 22.7893,2.78045 L 22.8063,2.74339 L 22.8478,2.6438
 L 22.8615,2.6079 L 22.8981,2.50153 L 22.909,2.46634 L 22.9398,2.35491 L 22.9483,2.31994 L 22.9728,2.20519
 L 22.9792,2.16995 L 22.9967,2.05364 L 23.0011,2.01763 L 23.0115,1.90152 L 23.0137,1.8642 L 23.0168,1.75008
 L 23.0166,1.71092 L 23.0124,1.60057 L 23.0094,1.55906 L 22.9981,1.45424 L 22.9916,1.40987 L 22.9736,1.31229
 L 22.9628,1.26468 L 22.9388,1.17588 L 22.9226,1.12484 L 22.8936,1.0461 L 22.8705,0.991807 L 22.8376,0.923928
 L 22.8062,0.867123 L 22.7705,0.810225 L 22.7294,0.752435 L 22.6918,0.705785 L 22.6402,0.649406 L 22.6007,0.611454
 L 22.5388,0.559573 L 22.485,0.520317 L 22.4383,0.489467 L 22.3402,0.431015 L 22.3174,0.418079 L 22.1945,0.35195
 L 22.1743,0.341602 L 22.0386,0.27509 L 22.0208,0.266694 L 21.8735,0.20042 L 21.8575,0.193515 L 21.6998,0.127952
 L 21.6854,0.122201 L 21.5183,0.0577171 L 21.5053,0.0528709 L 21.3296,-0.0102396 L 21.3178,-0.0143687 L 21.1347,-0.0758645
 L 21.1237,-0.0794192 L 20.9341,-0.139097 L 20.9239,-0.142188 L 20.7287,-0.199874 L 20.7192,-0.202585 L 20.5191,-0.258125
 L 20.5102,-0.260525 L 20.3063,-0.313782 L 20.2978,-0.315924 L 20.0908,-0.366772 L 20.0828,-0.3687 L 19.8736,-0.417023
 L 19.8658,-0.41877 L 19.6552,-0.464459 L 19.6477,-0.466055 L 19.4366,-0.509008 L 19.4292,-0.510475 L 19.2184,-0.550592
 L 19.211,-0.55195 L 19.0015,-0.589138 L 18.9941,-0.590401 L 18.9047,-0.605119 L 18.716,-0.690478 L 18.5953,-0.858722
 L 18.5696,-0.999084 L 18.569,-1.34363 L 18.5691,-1.3517 L 18.581,-2.00341 L 18.5813,-2.01126 L 18.605,-2.63624
 L 18.6054,-2.64369 L 18.6395,-3.24569 L 18.6399,-3.25255 L 18.683,-3.8353 L 18.6835,-3.8414 L 18.7342,-4.40865
 L 18.7347,-4.41381 L 18.7916,-4.96929 L 18.792,-4.97334 L 18.8538,-5.52075 L 18.8541,-5.52358 L 18.9192,-6.06658
 L 18.9194,-6.0681 L 18.9866,-6.61033 L 18.9866,-6.6105 L 19.0541,-7.15406 L 19.0544,-7.15581 L 19.1207,-7.70263
 L 19.1211,-7.70631 L 19.1848,-8.25985 L 19.1854,-8.26532 L 19.2451,-8.82931 L 19.2458,-8.83636 L 19.3,-9.41459
 L 19.3008,-9.42299 L 19.3483,-10.0192 L 19.349,-10.0288 L 19.3883,-10.6469 L 19.3889,-10.6572 L 19.4188,-11.301
 L 19.4192,-11.3119 L 19.4382,-11.9852 L 19.4384,-11.9964 L 19.4451,-12.7044 L 19.4451,-12.713 L 19.443,-13.1218
 L 19.443,-13.128 L 19.4368,-13.5315 L 19.4366,-13.5378 L 19.4263,-13.9349 L 19.4261,-13.9414 L 19.4118,-14.3321
 L 19.4116,-14.3387 L 19.3933,-14.7232 L 19.3929,-14.7299 L 19.3707,-15.1082 L 19.3703,-15.115 L 19.3442,-15.4872
 L 19.3437,-15.4941 L 19.3138,-15.8603 L 19.3132,-15.8673 L 19.2796,-16.2276 L 19.2789,-16.2347 L 19.2415,-16.5892
 L 19.2407,-16.5964 L 19.1997,-16.945 L 19.1988,-16.9523 L 19.1542,-17.2953 L 19.1532,-17.3027 L 19.105,-17.6401
 L 19.1039,-17.6476 L 19.0523,-17.9795 L 19.051,-17.987 L 18.9959,-18.3135 L 18.9946,-18.3211 L 18.9361,-18.6422
 L 18.9346,-18.6499 L 18.8728,-18.9657 L 18.8712,-18.9735 L 18.8061,-19.2841 L 18.8044,-19.292 L 18.7484,-19.5424
 L 18.757,-19.7492 L 18.8679,-19.9241 L 19.015,-20.0101 L 19.049,-20.0211 L 19.3482,-20.1317 L 19.3928,-20.1503
 L 19.672,-20.2799 L 19.7154,-20.3023 L 19.9751,-20.4497 L 20.0168,-20.4757 L 20.2574,-20.6397 L 20.2968,-20.669
 L 20.5189,-20.8486 L 20.5555,-20.8808 L 20.7594,-21.075 L 20.7928,-21.1096 L 20.9787,-21.3175 L 21.0088,-21.354
 L 21.1766,-21.5746 L 21.2033,-21.6127 L 21.3532,-21.845 L 21.3764,-21.8842 L 21.5082,-22.1273 L 21.528,-22.1672
 L 21.6416,-22.4199 L 21.6581,-22.4604 L 21.7532,-22.7215 L 21.7665,-22.7623 L 21.8431,-23.0306 L 21.8532,-23.0716
 L 21.911,-23.3458 L 21.9182,-23.3868 L 21.957,-23.6657 L 21.9612,-23.7067 L 21.9809,-23.9888 L 21.9824,-24.0297
 L 21.9827,-24.3138 L 21.9814,-24.3546 L 21.9624,-24.6392 L 21.9583,-24.6798 L 21.9197,-24.9648 L 21.9133,-25.003
 L 21.8541,-25.2961 L 21.8454,-25.3331 L 21.7692,-25.6164 L 21.7576,-25.6547 L 21.6648,-25.926 L 21.6498,-25.9655
 L 21.5407,-26.2237 L 21.5218,-26.264 L 21.3964,-26.5084 L 21.3735,-26.5491 L 21.2319,-26.7791 L 21.2047,-26.8196
 L 21.0468,-27.0347 L 21.0151,-27.0742 L 20.8407,-27.274 L 20.8048,-27.3118 L 20.6134,-27.4959 L 20.5735,-27.5311
 L 20.3644,-27.6993 L 20.3211,-27.731 L 20.0934,-27.8828 L 20.0476,-27.9105 L 19.8002,-28.0453 L 19.7528,-28.0684
 L 19.4844,-28.1853 L 19.4364,-28.2038 L 19.1458,-28.3018 L 19.0982,-28.3156 L 18.7842,-28.3933 L 18.7378,-28.4028
 L 18.3996,-28.4586 L 18.3551,-28.4642 L 17.9917,-28.4965 L 17.9495,-28.4987 L 17.5605,-28.5058 L 17.5209,-28.5052
 L 17.1057,-28.4853 L 17.0689,-28.4824 L 16.6217,-28.4334 L 16.5986,-28.4304 L 16.4671,-28.4108 L 16.455,-28.4088
 L 16.3237,-28.3865 L 16.311,-28.3842 L 16.1857,-28.3601 L 16.1723,-28.3573 L 16.0529,-28.3315 L 16.0389,-28.3283
 L 15.9253,-28.3009 L 15.9106,-28.2972 L 15.8028,-28.2682 L 15.7874,-28.2639 L 15.6852,-28.2335 L 15.6691,-28.2285
 L 15.5725,-28.1968 L 15.5558,-28.1911 L 15.4646,-28.1582 L 15.4472,-28.1516 L 15.3614,-28.1176 L 15.3434,-28.1102
 L 15.2627,-28.0751 L 15.2442,-28.0667 L 15.1686,-28.0308 L 15.1496,-28.0214 L 15.0789,-27.9847 L 15.0594,-27.9741
 L 14.9935,-27.9367 L 14.9737,-27.925 L 14.9122,-27.887 L 14.8922,-27.8741 L 14.8351,-27.8356 L 14.815,-27.8214
 L 14.7957,-27.8072 L 14.6029,-27.7318 L 14.3982,-27.7629 L 14.2974,-27.8263 L 14.0224,-28.0633 L 13.9946,-28.0859
 L 13.4487,-28.5024 L 13.4209,-28.5224 L 12.8498,-28.9087 L 12.8225,-28.9261 L 12.2276,-29.2834 L 12.2009,-29.2984
 L 11.5836,-29.6276 L 11.5579,-29.6405 L 10.9195,-29.9424 L 10.8949,-29.9534 L 10.2371,-30.2292 L 10.2137,-30.2384
 L 9.53802,-30.489 L 9.51594,-30.4967 L 8.82394,-30.7231 L 8.80317,-30.7295 L 8.09654,-30.9327 L 8.07706,-30.9379
 L 7.35747,-31.1189 L 7.33927,-31.1231 L 6.60841,-31.2829 L 6.59145,-31.2863 L 5.85101,-31.4259 L 5.83525,-31.4287
 L 5.08694,-31.5492 L 5.07232,-31.5513 L 4.31785,-31.6539 L 4.30432,-31.6555 L 3.5454,-31.7411 L 3.53291,-31.7424
 L 2.77124,-31.8122 L 2.75974,-31.8132 L 1.99704,-31.8683 L 1.98647,-31.8689 L 1.22445,-31.9105 L 1.21477,-31.911
 L 0.453161,-31.9402 L 0.44824,-31.9404 L 0.395841,-31.9419 L 0.395134,-31.942 L 0.340739,-31.9435 L 0.340028,-31.9436
 L 0.285746,-31.9451 L 0.28503,-31.9451 L 0.230861,-31.9465 L 0.23014,-31.9465 L 0.176083,-31.9479 L 0.175358,-31.9479
 L 0.121413,-31.9492 L 0.120684,-31.9493 L 0.0668504,-31.9505 L 0.0661164,-31.9505 L 0.0123939,-31.9517 L 0.0116553,-31.9517
 L -0.0419566,-31.9528 L -0.0426997,-31.9528 L -0.0962015,-31.9538 L -0.0969491,-31.9538 L -0.150341,-31.9548 L -0.151093,-31.9548
 L -0.204376,-31.9557 L -0.205133,-31.9557 L -0.258307,-31.9566 L -0.259068,-31.9566 L -0.312134,-31.9573 L -0.312899,-31.9573
 L -0.365857,-31.958 L -0.366627,-31.958 L -0.419477,-31.9586 L -0.420252,-31.9587 L -0.472995,-31.9592 L -0.473774,-31.9592
 L -0.52641,-31.9597 L -0.527194,-31.9597 L -0.579724,-31.9601 L -0.580513,-31.9601 L -0.630612,-31.9604 L -0.637081,-31.9604
 L -1.41279,-31.9571 L -1.42568,-31.9569 L -2.17539,-31.9375 L -2.18935,-31.937 L -2.91575,-31.9013 L -2.93082,-31.9004
 L -3.63442,-31.8481 L -3.65062,-31.8466 L -4.33194,-31.7773 L -4.34929,-31.7753 L -5.00888,-31.6888 L -5.02737,-31.686
 L -5.66578,-31.582 L -5.68539,-31.5784 L -6.3032,-31.4565 L -6.32387,-31.452 L -6.9217,-31.312 L -6.94335,-31.3065
 L -7.52183,-31.1481 L -7.54435,-31.1414 L -8.10417,-30.9643 L -8.12739,-30.9564 L -8.66926,-30.7603 L -8.69302,-30.7511
 L -9.21767,-30.5355 L -9.24175,-30.525 L -9.74995,-30.2898 L -9.77411,-30.2779 L -10.2667,-30.0225 L -10.2907,-30.0093
 L -10.7683,-29.7332 L -10.7919,-29.7189 L -11.2555,-29.4217 L -11.2784,-29.4062 L -11.7287,-29.0874 L -11.7508,-29.071
 L -12.1885,-28.7299 L -12.2095,-28.7127 L -12.362,-28.5824 L -12.5489,-28.4932 L -12.7553,-28.5094 L -12.8846,-28.5849
 L -12.8992,-28.5976 L -12.9214,-28.616 L -12.9771,-28.66 L -12.9995,-28.6769 L -13.0601,-28.7203 L -13.0825,-28.7356
 L -13.1483,-28.7784 L -13.1705,-28.7922 L -13.2419,-28.8343 L -13.2637,-28.8466 L -13.3409,-28.8878 L -13.3622,-28.8987
 L -13.4454,-28.939 L -13.4662,-28.9486 L -13.5556,-28.9878 L -13.5757,-28.9962 L -13.6716,-29.0341 L -13.6909,-29.0414
 L -13.7936,-29.078 L -13.812,-29.0842 L -13.9215,-29.1193 L -13.9391,-29.1247 L -14.0555,-29.158 L -14.0724,-29.1626
 L -14.1958,-29.1941 L -14.2118,-29.198 L -14.3425,-29.2275 L -14.3577,-29.2308 L -14.4956,-29.2583 L -14.51,-29.261
 L -14.6554,-29.2863 L -14.669,-29.2885 L -14.8165,-29.3106 L -14.8403,-29.3137 L -15.2871,-29.3628 L -15.3239,-29.3656
 L -15.7391,-29.3855 L -15.7786,-29.3861 L -16.1677,-29.379 L -16.2099,-29.3768 L -16.5732,-29.3445 L -16.6177,-29.3389
 L -16.956,-29.2831 L -17.0024,-29.2736 L -17.3163,-29.196 L -17.3639,-29.1821 L -17.6545,-29.0842 L -17.7025,-29.0657
 L -17.9709,-28.9488 L -18.0183,-28.9256 L -18.2657,-28.7908 L -18.3115,-28.7632 L -18.5392,-28.6114 L -18.5825,-28.5796
 L -18.7915,-28.4115 L -18.8314,-28.3763 L -19.0228,-28.1922 L -19.0588,-28.1544 L -19.2332,-27.9546 L -19.2648,-27.9151
 L -19.4227,-27.7 L -19.4499,-27.6595 L -19.5915,-27.4295 L -19.6145,-27.3888 L -19.7398,-27.1444 L -19.7587,-27.1041
 L -19.8678,-26.8458 L -19.8828,-26.8063 L -19.9756,-26.5351 L -19.9872,-26.4968 L -20.0634,-26.2134 L -20.0721,-26.1764
 L -20.1313,-25.8829 L -20.1377,-25.8456 L -20.175,-25.573 L -20.179,-25.5341 L -20.1984,-25.2615 L -20.1999,-25.2225
 L -20.2015,-24.9503 L -20.2004,-24.9111 L -20.1843,-24.6406 L -20.1806,-24.6013 L -20.1469,-24.3336 L -20.1407,-24.2943
 L -20.0895,-24.0306 L -20.0805,-23.9913 L -20.012,-23.7327 L -20.0002,-23.6935 L -19.9146,-23.4412 L -19.8999,-23.4023
 L -19.7974,-23.1574 L -19.7796,-23.1188 L -19.6603,-22.8823 L -19.6395,-22.8444 L -19.5035,-22.6172 L -19.4795,-22.5802
 L -19.327,-22.3634 L -19.2998,-22.3277 L -19.1309,-22.122 L -19.1006,-22.0879 L -18.9151,-21.8943 L -18.8818,-21.8621
 L -18.6797,-21.6814 L -18.6437,-21.6516 L -18.4248,-21.4847 L -18.3863,-21.4576 L -18.1503,-21.3053 L -18.1098,-21.2813
 L -17.8562,-21.1445 L -17.8143,-21.124 L -17.5427,-21.0037 L -17.5197,-20.9945 L -17.3536,-20.8709 L -17.2717,-20.6807
 L -17.2803,-20.5224 L -17.2807,-20.5206 L -17.2835,-20.5096 L -17.3693,-20.151 L -17.3717,-20.1403 L -17.4526,-19.7724
 L -17.4548,-19.7622 L -17.5309,-19.3847 L -17.5328,-19.3748 L -17.6042,-18.9873 L -17.6059,-18.9779 L -17.6727,-18.58
 L -17.6741,-18.571 L -17.7363,-18.1624 L -17.7375,-18.1538 L -17.7952,-17.7341 L -17.7962,-17.726 L -17.8494,-17.2949
 L -17.8503,-17.2871 L -17.8991,-16.8442 L -17.8999,-16.8369 L -17.9444,-16.3819 L -17.945,-16.3749 L -17.9853,-15.9074
 L -17.9858,-15.9009 L -18.0219,-15.4205 L -18.0223,-15.4144 L -18.0543,-14.9209 L -18.0547,-14.9151 L -18.0826,-14.4081
 L -18.0829,-14.4027 L -18.1069,-13.8818 L -18.1071,-13.8767 L -18.1273,-13.3416 L -18.1275,-13.3369 L -18.1438,-12.7872
 L -18.1439,-12.7828 L -18.1566,-12.2182 L -18.1567,-12.2141 L -18.1657,-11.6341 L -18.1658,-11.6308 L -18.1725,-10.9592
 L -18.1725,-10.9565 L -18.1761,-10.3227 L -18.1761,-10.3201 L -18.1769,-9.72039 L -18.1769,-9.71802 L -18.1754,-9.14863
 L -18.1754,-9.14653 L -18.172,-8.60363 L -18.172,-8.60189 L -18.1673,-8.08164 L -18.1673,-8.08035 L -18.1617,-7.57892
 L -18.1617,-7.57815 L -18.1556,-7.09172 L -18.1556,-7.09155 L -18.1496,-6.61669 L -18.1496,-6.61637 L -18.144,-6.14986
 L -18.144,-6.1491 L -18.1394,-5.68734 L -18.1393,-5.68613 L -18.1361,-5.22535 L -18.1361,-5.22373 L -18.1347,-4.76014
 L -18.1347,-4.75815 L -18.1357,-4.28795 L -18.1357,-4.28566 L -18.1394,-3.80503 L -18.1394,-3.8025 L -18.1464,-3.30761
 L -18.1464,-3.30494 L -18.157,-2.79197 L -18.1571,-2.7892 L -18.1719,-2.25433 L -18.172,-2.25155 L -18.1914,-1.69097
 L -18.1915,-1.68823 L -18.2026,-1.41871 L -18.2645,-1.2211 L -18.4168,-1.08088 L -18.5305,-1.04178 L -18.6135,-1.02663
 L -18.6204,-1.02534 L -18.8154,-0.987395 L -18.8224,-0.986008 L -19.0175,-0.945665 L -19.0245,-0.944164 L -19.2191,-0.901499
 L -19.2263,-0.899865 L -19.4196,-0.854961 L -19.4271,-0.85317 L -19.6185,-0.806114 L -19.6263,-0.804139 L -19.8151,-0.755021
 L -19.8233,-0.752828 L -20.0089,-0.701747 L -20.0175,-0.699295 L -20.1991,-0.646358 L -20.2083,-0.643595 L -20.3853,-0.58892
 L -20.3952,-0.585782 L -20.5668,-0.529502 L -20.5774,-0.52591 L -20.7429,-0.468175 L -20.7545,-0.464028 L -20.9132,-0.405014
 L -20.9257,-0.400181 L -21.0769,-0.340098 L -21.0907,-0.334411 L -21.2334,-0.273512 L -21.2487,-0.266751 L -21.3821,-0.205351
 L -21.3991,-0.197224 L -21.5225,-0.135722 L -21.5414,-0.12584 L -21.6538,-0.0647526 L -21.6751,-0.0525873 L -21.7641,0.000633938
 L -21.8098,0.030865 L -21.864,0.0704472 L -21.9259,0.122332 L -21.9654,0.160255 L -22.0171,0.216643 L -22.0546,0.263263
 L -22.0958,0.321067 L -22.1314,0.377939 L -22.1629,0.434757 L -22.1958,0.502615 L -22.2189,0.556922 L -22.2479,0.635647
 L -22.2641,0.686697 L -22.2881,0.775485 L -22.2989,0.823104 L -22.3169,0.920681 L -22.3233,0.965057 L -22.3346,1.06987
 L -22.3377,1.11139 L -22.3419,1.22175 L -22.3421,1.26091 L -22.339,1.37503 L -22.3368,1.41235 L -22.3264,1.52847
 L -22.322,1.56449 L -22.3044,1.68081 L -22.298,1.71605 L -22.2736,1.8308 L -22.265,1.86577 L -22.2342,1.97721
 L -22.2233,2.01241 L -22.1867,2.11878 L -22.1731,2.15469 L -22.1315,2.25428 L -22.1146,2.29134 L -22.0691,2.38249
 L -22.048,2.42108 L -21.9997,2.50219 L -21.9735,2.54257 L -21.9213,2.61614 L -21.8946,2.65102 L -21.8336,2.72499
 L -21.8076,2.75437 L -21.7467,2.81911 L -21.7163,2.84916 L -21.6584,2.90246 L -21.6233,2.93241 L -21.5686,2.97548
 L -21.5286,3.00436 L -21.477,3.03857 L -21.4326,3.06529 L -21.3834,3.09208 L -21.3353,3.11554 L -21.2876,3.13625
 L -21.237,3.15556 L -21.1894,3.17126 L -21.1376,3.18583 L -21.0887,3.19724 L -21.0373,3.20691 L -20.9855,3.2143
 L -20.9358,3.21931 L -20.88,3.22259 L -20.8331,3.22351 L -20.7722,3.22231 L -20.7289,3.2199 L -20.6623,3.21377
 L -20.623,3.20884 L -20.5504,3.19728 L -20.5153,3.19061 L -20.4366,3.17323 L -20.4055,3.16549 L -20.3209,3.142
 L -20.2937,3.13373 L -20.2035,3.10399 L -20.1797,3.0956 L -20.0841,3.05958 L -20.0635,3.05138 L -19.9629,3.00914
 L -19.9451,3.00134 L -19.8403,2.95331 L -19.8239,2.94548 L -19.7753,2.92141 L -19.76,2.91355 L -19.709,2.88647
 L -19.6953,2.87892 L -19.6419,2.84873 L -19.6295,2.84152 L -19.5739,2.80829 L -19.5627,2.80144 L -19.5051,2.76525
 L -19.495,2.75876 L -19.4354,2.7197 L -19.4263,2.71357 L -19.365,2.67174 L -19.3567,2.66597 L -19.2938,2.62146
 L -19.2863,2.61604 L -19.2219,2.56896 L -19.215,2.56387 L -19.1493,2.51433 L -19.143,2.50956 L -19.0959,2.47306
 L -18.9049,2.39303 L -18.6995,2.4192 L -18.5347,2.54457 L -18.4519,2.81573 L -18.4673,3.04949 L -18.4674,3.05085
 L -18.5388,4.17052 L -18.5389,4.17259 L -18.603,5.23678 L -18.6031,5.23965 L -18.6593,6.2525 L -18.6595,6.25625
 L -18.7069,7.22188 L -18.7071,7.22661 L -18.7452,8.14915 L -18.7454,8.15492 L -18.7733,9.03853 L -18.7735,9.04539
 L -18.7906,9.89424 L -18.7907,9.90223 L -18.7963,10.7205 L -18.7963,10.7296 L -18.7897,11.5216 L -18.7895,11.5318
 L -18.77,12.3017 L -18.7696,12.3129 L -18.7365,13.0651 L -18.7359,13.0772 L -18.6886,13.8161 L -18.6876,13.8287
 L -18.6253,14.5587 L -18.624,14.5718 L -18.546,15.2974 L -18.5444,15.3107 L -18.45,16.0362 L -18.4481,16.0495
 L -18.3364,16.7794 L -18.3343,16.7924 L -18.2046,17.5313 L -18.2023,17.5437 L -18.0539,18.2959 L -18.0514,18.3077
 L -17.8835,19.0766 L -17.8806,19.0894 L -17.8029,19.411 L -17.7992,19.4256 L -17.7125,19.749 L -17.7084,19.7637
 L -17.6121,20.0893 L -17.6075,20.1041 L -17.5015,20.4314 L -17.4964,20.4463 L -17.3803,20.7749 L -17.3748,20.79
 L -17.2484,21.1194 L -17.2423,21.1346 L -17.1053,21.4645 L -17.0987,21.4798 L -16.9509,21.8097 L -16.9438,21.825
 L -16.7848,22.1546 L -16.7772,22.17 L -16.6068,22.4988 L -16.5986,22.5141 L -16.4166,22.8417 L -16.4078,22.8571
 L -16.2139,23.1831 L -16.2045,23.1984 L -15.9984,23.5224 L -15.9884,23.5376 L -15.7699,23.8592 L -15.7593,23.8743
 L -15.528,24.1931 L -15.5167,24.2081 L -15.2724,24.5237 L -15.2606,24.5384 L -15.0029,24.8504 L -14.9906,24.8649
 L -14.7193,25.173 L -14.7064,25.1872 L -14.4654,25.4437 L -14.3676,25.6262 L -14.374,25.8331 L -14.5474,26.0583
 L -14.6626,26.1291 L -14.68,26.1403 L -14.8441,26.2492 L -14.8611,26.2609 L -15.021,26.3751 L -15.0376,26.3874
 L -15.1931,26.5068 L -15.2093,26.5197 L -15.3602,26.644 L -15.376,26.6575 L -15.5222,26.7867 L -15.5375,26.8008
 L -15.6788,26.9347 L -15.6937,26.9493 L -15.83,27.0877 L -15.8444,27.1029 L -15.9755,27.2457 L -15.9895,27.2615
 L -16.1152,27.4085 L -16.1287,27.4249 L -16.2489,27.576 L -16.2619,27.5929 L -16.3764,27.7479 L -16.3889,27.7654
 L -16.4976,27.9241 L -16.5095,27.9422 L -16.6122,28.1045 L -16.6236,28.1231 L -16.7202,28.2888 L -16.731,28.3081
 L -16.8214,28.4771 L -16.8315,28.4969 L -16.9155,28.669 L -16.925,28.6894 L -16.9957,28.8492 L -17.016,28.9014
 L -17.091,29.1254 L -17.1139,29.2176 L -17.1453,29.4065 L -17.1533,29.5055 L -17.1531,29.6781 L -17.1446,29.7778
 L -17.1173,29.9384 L -17.0932,30.033 L -17.0409,30.185 L -17.0039,30.2703 L -16.9273,30.4151 L -16.881,30.4889
 L -16.7808,30.6258 L -16.7284,30.6881 L -16.6059,30.8148 L -16.5494,30.8664 L -16.4073,30.9802 L -16.3476,31.0222
 L -16.1893,31.12 L -16.1268,31.1537 L -15.9565,31.2328 L -15.8907,31.2588 L -15.7131,31.317 L -15.6434,31.3354
 L -15.4632,31.3713 L -15.3889,31.3813 L -15.2108,31.3941 L -15.1314,31.3946 L -14.9597,31.3842 L -14.8756,31.373
 L -14.7134,31.3398 L -14.6261,31.3148 L -14.475,31.259 L -14.3878,31.2186 L -14.2479,31.1395 L -14.1655,31.0834
 L -14.0357,30.9783 L -13.9633,30.9089 L -13.8269,30.7542 L -13.7958,30.7159 L -13.6911,30.5755 L -13.6911,30.5754
 L -13.5737,30.418 L -13.5729,30.4169 L -13.4573,30.2629 L -13.4558,30.2609 L -13.3413,30.1103 L -13.339,30.1074
 L -13.225,29.9603 L -13.222,29.9564 L -13.108,29.813 L -13.1041,29.8082 L -12.9895,29.6685 L -12.9847,29.6628
 L -12.8689,29.5268 L -12.8633,29.5203 L -12.7456,29.3881 L -12.739,29.3808 L -12.619,29.2523 L -12.6115,29.2445
 L -12.4884,29.1197 L -12.48,29.1114 L -12.3532,28.9903 L -12.3439,28.9817 L -12.2128,28.8642 L -12.2026,28.8554
 L -12.0666,28.7415 L -12.0556,28.7326 L -11.9138,28.6223 L -11.9021,28.6135 L -11.7539,28.5066 L -11.7416,28.4981
 L -11.5863,28.3946 L -11.5735,28.3865 L -11.4102,28.2864 L -11.3972,28.2788 L -11.2252,28.1822 L -11.212,28.1751
 L -11.2111,28.1746 L -11.0087,28.131 L -10.8387,28.1783 L -10.5951,28.3095 L -10.5792,28.3178 L -10.1425,28.5365
 L -10.1265,28.5442 L -9.67366,28.7544 L -9.6577,28.7616 L -9.18838,28.9631 L -9.17245,28.9697 L -8.68641,29.162
 L -8.67055,29.168 L -8.16751,29.3509 L -8.15176,29.3563 L -7.63142,29.5292 L -7.61582,29.5342 L -7.07792,29.6967
 L -7.06248,29.7012 L -6.50675,29.853 L -6.49152,29.857 L -5.91766,29.9977 L -5.90266,30.0012 L -5.31043,30.1304
 L -5.29568,30.1335 L -4.6848,30.2508 L -4.67032,30.2534 L -4.04053,30.3584 L -4.02634,30.3606 L -3.37737,30.4529
 L -3.36348,30.4547 L -2.69509,30.5339 L -2.68151,30.5354 L -1.99344,30.6011 L -1.98018,30.6022 L -1.27217,30.654
 L -1.25924,30.6548 L -0.53104,30.6923 L -0.518445,30.6928 L 0.230192,30.7156 L 0.242453,30.7158 L 1.01209,30.7235
 L 1.02337,30.7235 L 1.55134,30.7189 L 1.56202,30.7187 L 2.08364,30.7048 L 2.09445,30.7044 L 2.60929,30.6814
 L 2.62023,30.6808 L 3.12819,30.6488 L 3.13926,30.648 L 3.64027,30.6072 L 3.65146,30.6061 L 4.14543,30.5565
 L 4.15675,30.5553 L 4.6436,30.497 L 4.65504,30.4955 L 5.13468,30.4287 L 5.14625,30.427 L 5.6186,30.3518
 L 5.63029,30.3498 L 6.09528,30.2664 L 6.10709,30.2641 L 6.56462,30.1725 L 6.57654,30.17 L 7.02654,30.0703
 L 7.03858,30.0675 L 7.48097,29.9599 L 7.49311,29.9569 L 7.9278,29.8415 L 7.94006,29.8381 L 8.36697,29.715
 L 8.37932,29.7113 L 8.79839,29.5807 L 8.81084,29.5767 L 9.22197,29.4387 L 9.2345,29.4343 L 9.63763,29.289
 L 9.65025,29.2842 L 10.0453,29.1317 L 10.058,29.1266 L 10.3451,29.0082 L 10.5654,28.9837 L 10.731,29.0122
 L 10.7469,29.0153 L 11.003,29.0701 L 11.0195,29.074 L 11.2611,29.1366 L 11.278,29.1413 L 11.5064,29.2112
 L 11.5233,29.2169 L 11.7397,29.2938 L 11.7565,29.3002 L 11.9621,29.384 L 11.9786,29.3911 L 12.1745,29.4814
 L 12.1904,29.4891 L 12.378,29.5858 L 12.393,29.5939 L 12.5735,29.6969 L 12.5873,29.7051 L 12.7619,29.8142
 L 12.7745,29.8224 L 12.9442,29.9375 L 12.9554,29.9454 L 13.1213,30.0664 L 13.1311,30.0738 L 13.2943,30.2007
 L 13.3026,30.2073 L 13.464,30.3398 L 13.4709,30.3455 L 13.6315,30.4834 L 13.6369,30.4882 L 13.7976,30.6313
 L 13.8017,30.635 L 13.9634,30.783 L 13.9662,30.7856 L 14.1299,30.9382 L 14.1314,30.9396 L 14.298,31.0966
 L 14.2983,31.0968 L 14.4512,31.2411 L 14.4866,31.272 L 14.6512,31.4046 L 14.7283,31.4574 L 14.8832,31.5465
 L 14.9655,31.5859 L 15.1292,31.6493 L 15.2127,31.6749 L 15.385,31.7142 L 15.4665,31.7269 L 15.6463,31.7425
 L 15.7239,31.7442 z
" stroke="black" fill="lightgray" stroke-width="0.5"/>
</svg>
