<?xml version="1.0" standalone="no"?>
<!DOCTYPE svg PUBLIC "-//W3C//DTD SVG 1.1//EN" "http://www.w3.org/Graphics/SVG/1.1/DTD/svg11.dtd">
<svg width="26mm" height="20mm" viewBox="-12 -29 26 20" xmlns="http://www.w3.org/2000/svg" version="1.1">
<title>OpenSCAD Model</title>
<path d="
M -5.28385,-17.4812 L -4.33865,-17.7348 L -3.45178,-18.1488 L -2.65019,-18.7108 L -1.95823,-19.4036 L -1.39693,-20.2062
 L -0.983349,-21.0941 L -0.730063,-22.0406 L -0.64477,-23.0166 L -0.730063,-23.9927 L -0.983349,-24.9391 L -1.39693,-25.8271
 L -1.95823,-26.6297 L -2.65019,-27.3225 L -3.45178,-27.8844 L -4.33865,-28.2985 L -5.28385,-28.5521 L -6.25866,-28.6374
 L -7.23347,-28.5521 L -8.17866,-28.2985 L -9.06553,-27.8844 L -9.86713,-27.3225 L -10.5591,-26.6297 L -11.1204,-25.8271
 L -11.534,-24.9391 L -11.7873,-23.9927 L -11.8725,-23.0166 L -11.7873,-22.0406 L -11.534,-21.0941 L -11.1204,-20.2062
 L -10.5591,-19.4036 L -9.86713,-18.7108 L -9.06553,-18.1488 L -8.17866,-17.7348 L -7.23347,-17.4812 L -6.25866,-17.3958
 z
M -3.62183,-20.7083 L -3.99411,-20.8252 L -4.3372,-21.015 L -4.63792,-21.2705 L -4.88472,-21.5818 L -5.0681,-21.9369
 L -5.18103,-22.3223 L -5.21916,-22.7231 L -5.18103,-23.1238 L -5.0681,-23.5092 L -4.88472,-23.8643 L -4.63792,-24.1756
 L -4.3372,-24.4311 L -3.99411,-24.6209 L -3.62183,-24.7378 L -3.23468,-24.7773 L -2.89008,-24.7461 L -2.55594,-24.6534
 L -2.24243,-24.5021 L -1.95907,-24.2967 L -1.71447,-24.0435 L -1.51606,-23.7502 L -1.36987,-23.4256 L -1.28034,-23.0798
 L -1.25019,-22.7231 L -1.28034,-22.3664 L -1.36987,-22.0205 L -1.51606,-21.696 L -1.71447,-21.4026 L -1.95907,-21.1494
 L -2.24243,-20.9441 L -2.55594,-20.7927 L -2.89008,-20.7001 L -3.23468,-20.6688 z
M 9.17455,-16.7964 L 10.1197,-17.0499 L 11.0066,-17.464 L 11.8082,-18.0259 L 12.5002,-18.7187 L 13.0615,-19.5213
 L 13.475,-20.4093 L 13.7283,-21.3557 L 13.8136,-22.3318 L 13.7283,-23.3079 L 13.475,-24.2543 L 13.0615,-25.1423
 L 12.5002,-25.9448 L 11.8082,-26.6376 L 11.0066,-27.1996 L 10.1197,-27.6136 L 9.17455,-27.8672 L 8.19974,-27.9526
 L 7.22493,-27.8672 L 6.27973,-27.6136 L 5.39286,-27.1996 L 4.59127,-26.6376 L 3.89931,-25.9448 L 3.33801,-25.1423
 L 2.92443,-24.2543 L 2.67115,-23.3079 L 2.58585,-22.3318 L 2.67115,-21.3557 L 2.92443,-20.4093 L 3.33801,-19.5213
 L 3.89931,-18.7187 L 4.59127,-18.0259 L 5.39286,-17.464 L 6.27973,-17.0499 L 7.22493,-16.7964 L 8.19974,-16.711
 z
M 10.8791,-20.0154 L 10.545,-20.1081 L 10.2315,-20.2594 L 9.94811,-20.4648 L 9.70351,-20.718 L 9.5051,-21.0113
 L 9.35891,-21.3358 L 9.26938,-21.6817 L 9.23923,-22.0384 L 9.27736,-22.4392 L 9.39029,-22.8245 L 9.57368,-23.1797
 L 9.82047,-23.491 L 10.1212,-23.7465 L 10.4643,-23.9363 L 10.8366,-24.0532 L 11.2237,-24.0927 L 11.6109,-24.0532
 L 11.9831,-23.9363 L 12.3262,-23.7465 L 12.627,-23.491 L 12.8738,-23.1797 L 13.0571,-22.8245 L 13.1701,-22.4392
 L 13.2082,-22.0384 L 13.1781,-21.6817 L 13.0885,-21.3358 L 12.9423,-21.0113 L 12.7439,-20.718 L 12.4993,-20.4648
 L 12.216,-20.2594 L 11.9025,-20.1081 L 11.5683,-20.0154 L 11.2237,-19.9842 z
M 2.08197,-9.21562 L 2.25139,-9.24854 L 2.41094,-9.30637 L 2.55756,-9.38981 L 2.68877,-9.50015 L 2.80234,-9.63966
 L 2.89548,-9.81156 L 2.96435,-10.0194 L 3.00418,-10.2662 L 3.00982,-10.5588 L 3.00344,-10.705 L 2.99688,-10.8533
 L 2.99032,-10.999 L 2.98379,-11.1422 L 2.97729,-11.2828 L 2.97083,-11.4207 L 2.96441,-11.5558 L 2.95803,-11.6882
 L 2.95172,-11.8177 L 2.94547,-11.9443 L 2.93929,-12.068 L 2.93318,-12.1888 L 2.92717,-12.3064 L 2.92124,-12.421
 L 2.91541,-12.5325 L 2.90969,-12.6408 L 2.90408,-12.7458 L 2.90271,-12.7711 L 2.83569,-12.7852 L 2.82126,-12.7886
 L 2.6916,-12.8226 L 2.67757,-12.8267 L 2.55734,-12.8645 L 2.5442,-12.869 L 2.43207,-12.9101 L 2.42036,-12.9147
 L 2.315,-12.9584 L 2.30522,-12.9627 L 2.20531,-13.0084 L 2.19786,-13.0119 L 2.10207,-13.0589 L 2.09729,-13.0613
 L 2.0043,-13.1091 L 2.0024,-13.11 L 1.91144,-13.1576 L 1.82269,-13.2034 L 1.73575,-13.2467 L 1.64914,-13.2869
 L 1.56125,-13.324 L 1.47034,-13.3578 L 1.37454,-13.388 L 1.2719,-13.4145 L 1.16048,-13.4368 L 1.0384,-13.4544
 L 0.903904,-13.4667 L 0.752466,-13.4729 L 0.747271,-13.473 L 0.738601,-13.4731 L 0.729977,-13.4732 L 0.7269,-13.4732
 L 0.7269,-13.3465 L 0.7269,-12.8246 L 0.7269,-12.6352 L 0.7269,-12.4403 L 0.7269,-12.2414 L 0.7269,-12.0397
 L 0.7269,-11.8365 L 0.7269,-11.8365 L 0.7269,-11.4316 L 0.7269,-11.2324 L 0.7269,-11.0373 L 0.7269,-10.8475
 L 0.7269,-10.3241 L 0.7269,-10.177 L 0.743955,-10.0106 L 0.790447,-9.8634 L 0.86465,-9.7271 L 0.964296,-9.60251
 L 1.08665,-9.49135 L 1.22833,-9.39573 L 1.38543,-9.31773 L 1.55375,-9.25924 L 1.72889,-9.22188 L 1.90642,-9.20699
 z
M -0.575092,-9.22199 L -0.399948,-9.25935 L -0.231631,-9.31784 L -0.0745261,-9.39584 L 0.0671509,-9.49146 L 0.189504,-9.60262
 L 0.289149,-9.72721 L 0.363352,-9.86351 L 0.409845,-10.0107 L 0.4269,-10.1772 L 0.4269,-12.2416 L 0.4269,-12.6354
 L 0.4269,-12.8248 L 0.4269,-12.8248 L 0.4269,-13.0074 L 0.4269,-13.0074 L 0.4269,-13.1818 L 0.4269,-13.4593
 L 0.322648,-13.4469 L 0.207599,-13.4264 L 0.101444,-13.4012 L 0.00194253,-13.3716 L -0.0931174,-13.3382 L -0.185838,-13.301
 L -0.27816,-13.2604 L -0.371851,-13.2168 L -0.468083,-13.1709 L -0.468952,-13.1705 L -0.567548,-13.1239 L -0.571717,-13.1219
 L -0.672918,-13.0759 L -0.680153,-13.0728 L -0.785466,-13.0282 L -0.795406,-13.0242 L -0.906337,-12.9819 L -0.918501,-12.9775
 L -1.03656,-12.9382 L -1.05037,-12.934 L -1.17706,-12.8985 L -1.1919,-12.8947 L -1.32873,-12.8638 L -1.34399,-12.8608
 L -1.49246,-12.8352 L -1.50761,-12.833 L -1.66924,-12.8136 L -1.68385,-12.8122 L -1.74698,-12.8078 L -1.74779,-12.7928
 L -1.7535,-12.6865 L -1.75933,-12.5767 L -1.76527,-12.4635 L -1.77132,-12.347 L -1.77746,-12.2272 L -1.7837,-12.1042
 L -1.79003,-11.9781 L -1.79643,-11.8488 L -1.80289,-11.7165 L -1.80942,-11.5811 L -1.81601,-11.4428 L -1.82264,-11.3017
 L -1.82931,-11.1576 L -1.83601,-11.0108 L -1.84273,-10.8613 L -1.84947,-10.7091 L -1.85602,-10.5589 L -1.85038,-10.2664
 L -1.81055,-10.0195 L -1.74168,-9.81167 L -1.64854,-9.63977 L -1.53497,-9.50026 L -1.40376,-9.38992 L -1.25714,-9.30648
 L -1.09759,-9.24865 L -0.928175,-9.21573 L -0.752626,-9.20709 z
" stroke="black" fill="lightgray" stroke-width="0.5"/>
</svg>
