<?xml version="1.0" standalone="no"?>
<!DOCTYPE svg PUBLIC "-//W3C//DTD SVG 1.1//EN" "http://www.w3.org/Graphics/SVG/1.1/DTD/svg11.dtd">
<svg width="47mm" height="64mm" viewBox="-23 -32 47 64" xmlns="http://www.w3.org/2000/svg" version="1.1">
<title>OpenSCAD Model</title>
<path d="
M 15.9086,31.7363 L 15.9818,31.7286 L 16.1677,31.6975 L 16.2366,31.6817 L 16.4197,31.6283 L 16.4848,31.6052
 L 16.6607,31.5311 L 16.7226,31.5007 L 16.8868,31.4079 L 16.9461,31.3697 L 17.0947,31.261 L 17.1512,31.214
 L 17.2807,31.0924 L 17.3339,31.0355 L 17.4415,30.9042 L 17.4899,30.8359 L 17.5739,30.6979 L 17.6148,30.6178
 L 17.6747,30.4749 L 17.7046,30.3837 L 17.7402,30.2359 L 17.7555,30.1368 L 17.7662,29.9817 L 17.7646,29.88
 L 17.7478,29.7136 L 17.7296,29.6156 L 17.6798,29.4335 L 17.6479,29.3449 L 17.5514,29.1314 L 17.5252,29.0801
 L 17.4478,28.9451 L 17.434,28.9221 L 17.3428,28.7783 L 17.3281,28.7563 L 17.2308,28.6168 L 17.2154,28.5958
 L 17.1119,28.4604 L 17.096,28.4405 L 16.9864,28.3091 L 16.9702,28.2903 L 16.8545,28.1627 L 16.8379,28.1452
 L 16.7162,28.0213 L 16.6995,28.005 L 16.5717,27.8847 L 16.555,27.8696 L 16.4213,27.7529 L 16.4047,27.7389
 L 16.2651,27.6257 L 16.2487,27.6128 L 16.1032,27.503 L 16.0871,27.4912 L 15.9359,27.3849 L 15.9201,27.3741
 L 15.7633,27.2711 L 15.7479,27.2613 L 15.5856,27.1616 L 15.5706,27.1527 L 15.403,27.0563 L 15.3884,27.0482
 L 15.2155,26.9551 L 15.2014,26.9478 L 15.0235,26.8579 L 15.0099,26.8513 L 14.9815,26.8378 L 14.8237,26.7038
 L 14.754,26.5088 L 14.7912,26.3051 L 14.8797,26.184 L 15.2245,25.862 L 15.2422,25.8449 L 15.6044,25.4777
 L 15.6216,25.4595 L 15.9644,25.0817 L 15.9811,25.0624 L 16.3043,24.6743 L 16.3204,24.654 L 16.6238,24.2559
 L 16.6393,24.2346 L 16.9226,23.8268 L 16.9373,23.8045 L 17.2005,23.3873 L 17.2144,23.3642 L 17.4573,22.9378
 L 17.4702,22.9138 L 17.6926,22.4786 L 17.7046,22.4538 L 17.9062,22.0099 L 17.9171,21.9845 L 18.0979,21.5322
 L 18.1076,21.5062 L 18.2673,21.0458 L 18.2759,21.0192 L 18.4143,20.551 L 18.4216,20.524 L 18.5385,20.048
 L 18.5445,20.0208 L 18.6397,19.5373 L 18.6444,19.5099 L 18.7175,19.0192 L 18.721,18.9918 L 18.7719,18.494
 L 18.774,18.4667 L 18.8024,17.9621 L 18.8033,17.9349 L 18.8089,17.4165 L 18.8089,17.404 L 18.8029,16.8077
 L 18.8028,16.8067 L 18.7981,16.1788 L 18.7981,16.178 L 18.7944,15.5256 L 18.7944,15.525 L 18.7916,14.8492
 L 18.7916,14.8489 L 18.7894,14.1512 L 18.7894,14.151 L 18.7876,13.4327 L 18.7876,13.4327 L 18.7857,12.6953
 L 18.7857,12.6952 L 18.7838,11.9401 L 18.7838,11.9398 L 18.7813,11.1685 L 18.7813,11.168 L 18.7782,10.3818
 L 18.7782,10.3811 L 18.7741,9.58127 L 18.7741,9.58042 L 18.7688,8.76825 L 18.7688,8.76723 L 18.762,7.94407
 L 18.762,7.94288 L 18.7535,7.11005 L 18.7535,7.1087 L 18.743,6.26753 L 18.743,6.26601 L 18.7303,5.41782
 L 18.7303,5.41613 L 18.715,4.56225 L 18.715,4.56038 L 18.697,3.70214 L 18.697,3.70009 L 18.6779,2.91741
 L 18.7266,2.71617 L 18.8694,2.56623 L 19.0681,2.50779 L 19.3407,2.60619 L 19.3449,2.6099 L 19.4364,2.68891
 L 19.4413,2.69309 L 19.5314,2.7692 L 19.5369,2.77379 L 19.6254,2.84678 L 19.6316,2.85181 L 19.7184,2.92147
 L 19.7253,2.92697 L 19.8103,2.9931 L 19.8181,2.99908 L 19.901,3.06146 L 19.9098,3.06796 L 19.9904,3.12638
 L 20.0004,3.13342 L 20.0785,3.18767 L 20.0898,3.19528 L 20.1652,3.24516 L 20.178,3.25334 L 20.2504,3.29866
 L 20.2649,3.30742 L 20.334,3.34799 L 20.3505,3.35731 L 20.416,3.39299 L 20.4348,3.40282 L 20.4977,3.43426
 L 20.5161,3.44308 L 20.6198,3.49063 L 20.6376,3.49844 L 20.7382,3.54065 L 20.7588,3.54886 L 20.8544,3.58486
 L 20.8782,3.59325 L 20.9684,3.62297 L 20.9957,3.63125 L 21.0802,3.65471 L 21.1113,3.66246 L 21.19,3.67982
 L 21.2251,3.68649 L 21.2977,3.69804 L 21.337,3.70296 L 21.4036,3.70909 L 21.4469,3.7115 L 21.5078,3.71268
 L 21.5547,3.71176 L 21.6105,3.70847 L 21.6603,3.70346 L 21.712,3.69606 L 21.7634,3.68639 L 21.8123,3.67497
 L 21.8641,3.6604 L 21.9117,3.64468 L 21.9623,3.62538 L 22.0101,3.60466 L 22.0582,3.5812 L 22.1074,3.5544
 L 22.1518,3.52769 L 22.2034,3.49346 L 22.2434,3.46459 L 22.298,3.42151 L 22.3332,3.39156 L 22.3911,3.33826
 L 22.4215,3.3082 L 22.4824,3.24346 L 22.5084,3.21408 L 22.5694,3.14013 L 22.5961,3.10521 L 22.6483,3.03166
 L 22.6745,2.99129 L 22.7228,2.91018 L 22.7438,2.87159 L 22.7893,2.78045 L 22.8063,2.74339 L 22.8478,2.6438
 L 22.8615,2.6079 L 22.8981,2.50153 L 22.909,2.46634 L 22.9398,2.35491 L 22.9483,2.31994 L 22.9728,2.20519
 L 22.9792,2.16995 L 22.9967,2.05364 L 23.0011,2.01763 L 23.0115,1.90152 L 23.0137,1.8642 L 23.0168,1.75008
 L 23.0166,1.71092 L 23.0124,1.60057 L 23.0094,1.55906 L 22.9981,1.45424 L 22.9916,1.40987 L 22.9736,1.31229
 L 22.9628,1.26468 L 22.9388,1.17588 L 22.9226,1.12484 L 22.8936,1.0461 L 22.8705,0.991807 L 22.8376,0.923928
 L 22.8062,0.867123 L 22.7705,0.810225 L 22.7294,0.752435 L 22.6918,0.705785 L 22.6402,0.649406 L 22.6007,0.611454
 L 22.5388,0.559573 L 22.485,0.520317 L 22.4383,0.489467 L 22.3402,0.431015 L 22.3174,0.418079 L 22.1945,0.35195
 L 22.1743,0.341602 L 22.0386,0.27509 L 22.0208,0.266694 L 21.8735,0.20042 L 21.8575,0.193515 L 21.6998,0.127952
 L 21.6854,0.122201 L 21.5183,0.0577171 L 21.5053,0.0528709 L 21.3296,-0.0102396 L 21.3178,-0.0143687 L 21.1347,-0.0758645
 L 21.1237,-0.0794192 L 20.9341,-0.139097 L 20.9239,-0.142188 L 20.7287,-0.199874 L 20.7192,-0.202585 L 20.5191,-0.258125
 L 20.5102,-0.260525 L 20.3063,-0.313782 L 20.2978,-0.315924 L 20.0908,-0.366772 L 20.0828,-0.3687 L 19.8736,-0.417023
 L 19.8658,-0.41877 L 19.6552,-0.464459 L 19.6477,-0.466055 L 19.4366,-0.509008 L 19.4292,-0.510475 L 19.2184,-0.550592
 L 19.211,-0.55195 L 19.0015,-0.589138 L 18.9941,-0.590401 L 18.9047,-0.605119 L 18.716,-0.690478 L 18.5953,-0.858722
 L 18.5696,-0.999084 L 18.569,-1.34363 L 18.5691,-1.3517 L 18.581,-2.00341 L 18.5813,-2.01126 L 18.605,-2.63624
 L 18.6054,-2.64369 L 18.6395,-3.24569 L 18.6399,-3.25255 L 18.683,-3.8353 L 18.6835,-3.8414 L 18.7342,-4.40865
 L 18.7347,-4.41381 L 18.7916,-4.96929 L 18.792,-4.97334 L 18.8538,-5.52075 L 18.8541,-5.52358 L 18.9192,-6.06658
 L 18.9194,-6.0681 L 18.9866,-6.61033 L 18.9866,-6.6105 L 19.0541,-7.15406 L 19.0544,-7.15581 L 19.1207,-7.70263
 L 19.1211,-7.70631 L 19.1848,-8.25985 L 19.1854,-8.26532 L 19.2451,-8.82931 L 19.2458,-8.83636 L 19.3,-9.41459
 L 19.3008,-9.42299 L 19.3483,-10.0192 L 19.349,-10.0288 L 19.3883,-10.6469 L 19.3889,-10.6572 L 19.4188,-11.301
 L 19.4192,-11.3119 L 19.4382,-11.9852 L 19.4384,-11.9964 L 19.4451,-12.7044 L 19.4451,-12.713 L 19.443,-13.1218
 L 19.443,-13.128 L 19.4368,-13.5315 L 19.4366,-13.5378 L 19.4263,-13.9349 L 19.4261,-13.9414 L 19.4118,-14.3321
 L 19.4116,-14.3387 L 19.3933,-14.7232 L 19.3929,-14.7299 L 19.3707,-15.1082 L 19.3703,-15.115 L 19.3442,-15.4872
 L 19.3437,-15.4941 L 19.3138,-15.8603 L 19.3132,-15.8673 L 19.2796,-16.2276 L 19.2789,-16.2347 L 19.2415,-16.5892
 L 19.2407,-16.5964 L 19.1997,-16.945 L 19.1988,-16.9523 L 19.1542,-17.2953 L 19.1532,-17.3027 L 19.105,-17.6401
 L 19.1039,-17.6476 L 19.0523,-17.9795 L 19.051,-17.987 L 18.9959,-18.3135 L 18.9946,-18.3211 L 18.9361,-18.6422
 L 18.9346,-18.6499 L 18.8728,-18.9657 L 18.8712,-18.9735 L 18.8061,-19.2841 L 18.8044,-19.292 L 18.7484,-19.5424
 L 18.757,-19.7492 L 18.8679,-19.9241 L 19.015,-20.0101 L 19.049,-20.0211 L 19.3482,-20.1317 L 19.3928,-20.1503
 L 19.672,-20.2799 L 19.7154,-20.3023 L 19.9751,-20.4497 L 20.0168,-20.4757 L 20.2574,-20.6397 L 20.2968,-20.669
 L 20.5189,-20.8486 L 20.5555,-20.8808 L 20.7594,-21.075 L 20.7928,-21.1096 L 20.9787,-21.3175 L 21.0088,-21.354
 L 21.1766,-21.5746 L 21.2033,-21.6127 L 21.3532,-21.845 L 21.3764,-21.8842 L 21.5082,-22.1273 L 21.528,-22.1672
 L 21.6416,-22.4199 L 21.6581,-22.4604 L 21.7532,-22.7215 L 21.7665,-22.7623 L 21.8431,-23.0306 L 21.8532,-23.0716
 L 21.911,-23.3458 L 21.9182,-23.3868 L 21.957,-23.6657 L 21.9612,-23.7067 L 21.9809,-23.9888 L 21.9824,-24.0297
 L 21.9827,-24.3138 L 21.9814,-24.3546 L 21.9624,-24.6392 L 21.9583,-24.6798 L 21.9197,-24.9648 L 21.9133,-25.003
 L 21.8541,-25.2961 L 21.8454,-25.3331 L 21.7692,-25.6164 L 21.7576,-25.6547 L 21.6648,-25.926 L 21.6498,-25.9655
 L 21.5407,-26.2237 L 21.5218,-26.264 L 21.3964,-26.5084 L 21.3735,-26.5491 L 21.2319,-26.7791 L 21.2047,-26.8196
 L 21.0468,-27.0347 L 21.0151,-27.0742 L 20.8407,-27.274 L 20.8048,-27.3118 L 20.6134,-27.4959 L 20.5735,-27.5311
 L 20.3644,-27.6993 L 20.3211,-27.731 L 20.0934,-27.8828 L 20.0476,-27.9105 L 19.8002,-28.0453 L 19.7528,-28.0684
 L 19.4844,-28.1853 L 19.4364,-28.2038 L 19.1458,-28.3018 L 19.0982,-28.3156 L 18.7842,-28.3933 L 18.7378,-28.4028
 L 18.3996,-28.4586 L 18.3551,-28.4642 L 17.9917,-28.4965 L 17.9495,-28.4987 L 17.5605,-28.5058 L 17.5209,-28.5052
 L 17.1057,-28.4853 L 17.0689,-28.4824 L 16.6217,-28.4334 L 16.5986,-28.4304 L 16.4671,-28.4108 L 16.455,-28.4088
 L 16.3237,-28.3865 L 16.311,-28.3842 L 16.1857,-28.3601 L 16.1723,-28.3573 L 16.0529,-28.3315 L 16.0389,-28.3283
 L 15.9253,-28.3009 L 15.9106,-28.2972 L 15.8028,-28.2682 L 15.7874,-28.2639 L 15.6852,-28.2335 L 15.6691,-28.2285
 L 15.5725,-28.1968 L 15.5558,-28.1911 L 15.4646,-28.1582 L 15.4472,-28.1516 L 15.3614,-28.1176 L 15.3434,-28.1102
 L 15.2627,-28.0751 L 15.2442,-28.0667 L 15.1686,-28.0308 L 15.1496,-28.0214 L 15.0789,-27.9847 L 15.0594,-27.9741
 L 14.9935,-27.9367 L 14.9737,-27.925 L 14.9122,-27.887 L 14.8922,-27.8741 L 14.8351,-27.8356 L 14.815,-27.8214
 L 14.7957,-27.8072 L 14.6029,-27.7318 L 14.3982,-27.7629 L 14.2974,-27.8263 L 14.0224,-28.0633 L 13.9946,-28.0859
 L 13.4487,-28.5024 L 13.4209,-28.5224 L 12.8498,-28.9087 L 12.8225,-28.9261 L 12.2276,-29.2834 L 12.2009,-29.2984
 L 11.5836,-29.6276 L 11.5579,-29.6405 L 10.9195,-29.9424 L 10.8949,-29.9534 L 10.2371,-30.2292 L 10.2137,-30.2384
 L 9.53802,-30.489 L 9.51594,-30.4967 L 8.82394,-30.7231 L 8.80317,-30.7295 L 8.09654,-30.9327 L 8.07706,-30.9379
 L 7.35747,-31.1189 L 7.33927,-31.1231 L 6.60841,-31.2829 L 6.59145,-31.2863 L 5.85101,-31.4259 L 5.83525,-31.4287
 L 5.08694,-31.5492 L 5.07232,-31.5513 L 4.31785,-31.6539 L 4.30432,-31.6555 L 3.5454,-31.7411 L 3.53291,-31.7424
 L 2.77124,-31.8122 L 2.75974,-31.8132 L 1.99704,-31.8683 L 1.98647,-31.8689 L 1.22445,-31.9105 L 1.21477,-31.911
 L 0.453161,-31.9402 L 0.44824,-31.9404 L 0.395841,-31.9419 L 0.395134,-31.942 L 0.340739,-31.9435 L 0.340028,-31.9436
 L 0.285746,-31.9451 L 0.28503,-31.9451 L 0.230861,-31.9465 L 0.23014,-31.9465 L 0.176083,-31.9479 L 0.175358,-31.9479
 L 0.121413,-31.9492 L 0.120684,-31.9493 L 0.0668504,-31.9505 L 0.0661164,-31.9505 L 0.0123939,-31.9517 L 0.0116553,-31.9517
 L -0.0419566,-31.9528 L -0.0426997,-31.9528 L -0.0962015,-31.9538 L -0.0969491,-31.9538 L -0.150341,-31.9548 L -0.151093,-31.9548
 L -0.204376,-31.9557 L -0.205133,-31.9557 L -0.258307,-31.9566 L -0.259068,-31.9566 L -0.312134,-31.9573 L -0.312899,-31.9573
 L -0.365857,-31.958 L -0.366627,-31.958 L -0.419477,-31.9586 L -0.420252,-31.9587 L -0.472995,-31.9592 L -0.473774,-31.9592
 L -0.52641,-31.9597 L -0.527194,-31.9597 L -0.579724,-31.9601 L -0.580513,-31.9601 L -0.630612,-31.9604 L -0.637081,-31.9604
 L -1.41279,-31.9571 L -1.42568,-31.9569 L -2.17539,-31.9375 L -2.18935,-31.937 L -2.91575,-31.9013 L -2.93082,-31.9004
 L -3.63442,-31.8481 L -3.65062,-31.8466 L -4.33194,-31.7773 L -4.34929,-31.7753 L -5.00888,-31.6888 L -5.02737,-31.686
 L -5.66578,-31.582 L -5.68539,-31.5784 L -6.3032,-31.4565 L -6.32387,-31.452 L -6.9217,-31.312 L -6.94335,-31.3065
 L -7.52183,-31.1481 L -7.54435,-31.1414 L -8.10417,-30.9643 L -8.12739,-30.9564 L -8.66926,-30.7603 L -8.69302,-30.7511
 L -9.21767,-30.5355 L -9.24175,-30.525 L -9.74995,-30.2898 L -9.77411,-30.2779 L -10.2667,-30.0225 L -10.2907,-30.0093
 L -10.7683,-29.7332 L -10.7919,-29.7189 L -11.2555,-29.4217 L -11.2784,-29.4062 L -11.7287,-29.0874 L -11.7508,-29.071
 L -12.1885,-28.7299 L -12.2095,-28.7127 L -12.362,-28.5824 L -12.5489,-28.4932 L -12.7553,-28.5094 L -12.8846,-28.5849
 L -12.8992,-28.5976 L -12.9214,-28.616 L -12.9771,-28.66 L -12.9995,-28.6769 L -13.0601,-28.7203 L -13.0825,-28.7356
 L -13.1483,-28.7784 L -13.1705,-28.7922 L -13.2419,-28.8343 L -13.2637,-28.8466 L -13.3409,-28.8878 L -13.3622,-28.8987
 L -13.4454,-28.939 L -13.4662,-28.9486 L -13.5556,-28.9878 L -13.5757,-28.9962 L -13.6716,-29.0341 L -13.6909,-29.0414
 L -13.7936,-29.078 L -13.812,-29.0842 L -13.9215,-29.1193 L -13.9391,-29.1247 L -14.0555,-29.158 L -14.0724,-29.1626
 L -14.1958,-29.1941 L -14.2118,-29.198 L -14.3425,-29.2275 L -14.3577,-29.2308 L -14.4956,-29.2583 L -14.51,-29.261
 L -14.6554,-29.2863 L -14.669,-29.2885 L -14.8165,-29.3106 L -14.8403,-29.3137 L -15.2871,-29.3628 L -15.3239,-29.3656
 L -15.7391,-29.3855 L -15.7786,-29.3861 L -16.1677,-29.379 L -16.2099,-29.3768 L -16.5732,-29.3445 L -16.6177,-29.3389
 L -16.956,-29.2831 L -17.0024,-29.2736 L -17.3163,-29.196 L -17.3639,-29.1821 L -17.6545,-29.0842 L -17.7025,-29.0657
 L -17.9709,-28.9488 L -18.0183,-28.9256 L -18.2657,-28.7908 L -18.3115,-28.7632 L -18.5392,-28.6114 L -18.5825,-28.5796
 L -18.7915,-28.4115 L -18.8314,-28.3763 L -19.0228,-28.1922 L -19.0588,-28.1544 L -19.2332,-27.9546 L -19.2648,-27.9151
 L -19.4227,-27.7 L -19.4499,-27.6595 L -19.5915,-27.4295 L -19.6145,-27.3888 L -19.7398,-27.1444 L -19.7587,-27.1041
 L -19.8678,-26.8458 L -19.8828,-26.8063 L -19.9756,-26.5351 L -19.9872,-26.4968 L -20.0634,-26.2134 L -20.0721,-26.1764
 L -20.1313,-25.8829 L -20.1377,-25.8456 L -20.175,-25.573 L -20.179,-25.5341 L -20.1984,-25.2615 L -20.1999,-25.2225
 L -20.2015,-24.9503 L -20.2004,-24.9111 L -20.1843,-24.6406 L -20.1806,-24.6013 L -20.1469,-24.3336 L -20.1407,-24.2943
 L -20.0895,-24.0306 L -20.0805,-23.9913 L -20.012,-23.7327 L -20.0002,-23.6935 L -19.9146,-23.4412 L -19.8999,-23.4023
 L -19.7974,-23.1574 L -19.7796,-23.1188 L -19.6603,-22.8823 L -19.6395,-22.8444 L -19.5035,-22.6172 L -19.4795,-22.5802
 L -19.327,-22.3634 L -19.2998,-22.3277 L -19.1309,-22.122 L -19.1006,-22.0879 L -18.9151,-21.8943 L -18.8818,-21.8621
 L -18.6797,-21.6814 L -18.6437,-21.6516 L -18.4248,-21.4847 L -18.3863,-21.4576 L -18.1503,-21.3053 L -18.1098,-21.2813
 L -17.8562,-21.1445 L -17.8143,-21.124 L -17.5427,-21.0037 L -17.5197,-20.9945 L -17.3536,-20.8709 L -17.2717,-20.6807
 L -17.2803,-20.5224 L -17.2807,-20.5206 L -17.2835,-20.5096 L -17.3693,-20.151 L -17.3717,-20.1403 L -17.4526,-19.7724
 L -17.4548,-19.7622 L -17.5309,-19.3847 L -17.5328,-19.3748 L -17.6042,-18.9873 L -17.6059,-18.9779 L -17.6727,-18.58
 L -17.6741,-18.571 L -17.7363,-18.1624 L -17.7375,-18.1538 L -17.7952,-17.7341 L -17.7962,-17.726 L -17.8494,-17.2949
 L -17.8503,-17.2871 L -17.8991,-16.8442 L -17.8999,-16.8369 L -17.9444,-16.3819 L -17.945,-16.3749 L -17.9853,-15.9074
 L -17.9858,-15.9009 L -18.0219,-15.4205 L -18.0223,-15.4144 L -18.0543,-14.9209 L -18.0547,-14.9151 L -18.0826,-14.4081
 L -18.0829,-14.4027 L -18.1069,-13.8818 L -18.1071,-13.8767 L -18.1273,-13.3416 L -18.1275,-13.3369 L -18.1438,-12.7872
 L -18.1439,-12.7828 L -18.1566,-12.2182 L -18.1567,-12.2141 L -18.1657,-11.6341 L -18.1658,-11.6308 L -18.1725,-10.9592
 L -18.1725,-10.9565 L -18.1761,-10.3227 L -18.1761,-10.3201 L -18.1769,-9.72039 L -18.1769,-9.71802 L -18.1754,-9.14863
 L -18.1754,-9.14653 L -18.172,-8.60363 L -18.172,-8.60189 L -18.1673,-8.08164 L -18.1673,-8.08035 L -18.1617,-7.57892
 L -18.1617,-7.57815 L -18.1556,-7.09172 L -18.1556,-7.09155 L -18.1496,-6.61669 L -18.1496,-6.61637 L -18.144,-6.14986
 L -18.144,-6.1491 L -18.1394,-5.68734 L -18.1393,-5.68613 L -18.1361,-5.22535 L -18.1361,-5.22373 L -18.1347,-4.76014
 L -18.1347,-4.75815 L -18.1357,-4.28795 L -18.1357,-4.28566 L -18.1394,-3.80503 L -18.1394,-3.8025 L -18.1464,-3.30761
 L -18.1464,-3.30494 L -18.157,-2.79197 L -18.1571,-2.7892 L -18.1719,-2.25433 L -18.172,-2.25155 L -18.1914,-1.69097
 L -18.1915,-1.68823 L -18.2026,-1.41871 L -18.2645,-1.2211 L -18.4168,-1.08088 L -18.5305,-1.04178 L -18.6135,-1.02663
 L -18.6204,-1.02534 L -18.8154,-0.987395 L -18.8224,-0.986008 L -19.0175,-0.945665 L -19.0245,-0.944164 L -19.2191,-0.901499
 L -19.2263,-0.899865 L -19.4196,-0.854961 L -19.4271,-0.85317 L -19.6185,-0.806114 L -19.6263,-0.804139 L -19.8151,-0.755021
 L -19.8233,-0.752828 L -20.0089,-0.701747 L -20.0175,-0.699295 L -20.1991,-0.646358 L -20.2083,-0.643595 L -20.3853,-0.58892
 L -20.3952,-0.585782 L -20.5668,-0.529502 L -20.5774,-0.52591 L -20.7429,-0.468175 L -20.7545,-0.464028 L -20.9132,-0.405014
 L -20.9257,-0.400181 L -21.0769,-0.340098 L -21.0907,-0.334411 L -21.2334,-0.273512 L -21.2487,-0.266751 L -21.3821,-0.205351
 L -21.3991,-0.197224 L -21.5225,-0.135722 L -21.5414,-0.12584 L -21.6538,-0.0647526 L -21.6751,-0.0525873 L -21.7641,0.000633938
 L -21.8098,0.030865 L -21.864,0.0704472 L -21.9259,0.122332 L -21.9654,0.160255 L -22.0171,0.216643 L -22.0546,0.263263
 L -22.0958,0.321067 L -22.1314,0.377939 L -22.1629,0.434757 L -22.1958,0.502615 L -22.2189,0.556922 L -22.2479,0.635647
 L -22.2641,0.686697 L -22.2881,0.775485 L -22.2989,0.823104 L -22.3169,0.920681 L -22.3233,0.965057 L -22.3346,1.06987
 L -22.3377,1.11139 L -22.3419,1.22175 L -22.3421,1.26091 L -22.339,1.37503 L -22.3368,1.41235 L -22.3264,1.52847
 L -22.322,1.56449 L -22.3044,1.68081 L -22.298,1.71605 L -22.2736,1.8308 L -22.265,1.86577 L -22.2342,1.97721
 L -22.2233,2.01241 L -22.1867,2.11878 L -22.1731,2.15469 L -22.1315,2.25428 L -22.1146,2.29134 L -22.0691,2.38249
 L -22.048,2.42108 L -21.9997,2.50219 L -21.9735,2.54257 L -21.9213,2.61614 L -21.8946,2.65102 L -21.8336,2.72499
 L -21.8076,2.75437 L -21.7467,2.81911 L -21.7163,2.84916 L -21.6584,2.90246 L -21.6233,2.93241 L -21.5686,2.97548
 L -21.5286,3.00436 L -21.477,3.03857 L -21.4326,3.06529 L -21.3834,3.09208 L -21.3353,3.11554 L -21.2876,3.13625
 L -21.237,3.15556 L -21.1894,3.17126 L -21.1376,3.18583 L -21.0887,3.19724 L -21.0373,3.20691 L -20.9855,3.2143
 L -20.9358,3.21931 L -20.88,3.22259 L -20.8331,3.22351 L -20.7722,3.22231 L -20.7289,3.2199 L -20.6623,3.21377
 L -20.623,3.20884 L -20.5504,3.19728 L -20.5153,3.19061 L -20.4366,3.17323 L -20.4055,3.16549 L -20.3209,3.142
 L -20.2937,3.13373 L -20.2035,3.10399 L -20.1797,3.0956 L -20.0841,3.05958 L -20.0635,3.05138 L -19.9629,3.00914
 L -19.9451,3.00134 L -19.8403,2.95331 L -19.8239,2.94548 L -19.7753,2.92141 L -19.76,2.91355 L -19.709,2.88647
 L -19.6953,2.87892 L -19.6419,2.84873 L -19.6295,2.84152 L -19.5739,2.80829 L -19.5627,2.80144 L -19.5051,2.76525
 L -19.495,2.75876 L -19.4354,2.7197 L -19.4263,2.71357 L -19.365,2.67174 L -19.3567,2.66597 L -19.2938,2.62146
 L -19.2863,2.61604 L -19.2219,2.56896 L -19.215,2.56387 L -19.1493,2.51433 L -19.143,2.50956 L -19.0959,2.47306
 L -18.9049,2.39303 L -18.6995,2.4192 L -18.5347,2.54457 L -18.4519,2.81573 L -18.4673,3.04949 L -18.4674,3.05085
 L -18.5388,4.17052 L -18.5389,4.17259 L -18.603,5.23678 L -18.6031,5.23965 L -18.6593,6.2525 L -18.6595,6.25625
 L -18.7069,7.22188 L -18.7071,7.22661 L -18.7452,8.14915 L -18.7454,8.15492 L -18.7733,9.03853 L -18.7735,9.04539
 L -18.7906,9.89424 L -18.7907,9.90223 L -18.7963,10.7205 L -18.7963,10.7296 L -18.7897,11.5216 L -18.7895,11.5318
 L -18.77,12.3017 L -18.7696,12.3129 L -18.7365,13.0651 L -18.7359,13.0772 L -18.6886,13.8161 L -18.6876,13.8287
 L -18.6253,14.5587 L -18.624,14.5718 L -18.546,15.2974 L -18.5444,15.3107 L -18.45,16.0362 L -18.4481,16.0495
 L -18.3364,16.7794 L -18.3343,16.7924 L -18.2046,17.5313 L -18.2023,17.5437 L -18.0539,18.2959 L -18.0514,18.3077
 L -17.8835,19.0766 L -17.8806,19.0894 L -17.8029,19.411 L -17.7992,19.4256 L -17.7125,19.749 L -17.7084,19.7637
 L -17.6121,20.0893 L -17.6075,20.1041 L -17.5015,20.4314 L -17.4964,20.4463 L -17.3803,20.7749 L -17.3748,20.79
 L -17.2484,21.1194 L -17.2423,21.1346 L -17.1053,21.4645 L -17.0987,21.4798 L -16.9509,21.8097 L -16.9438,21.825
 L -16.7848,22.1546 L -16.7772,22.17 L -16.6068,22.4988 L -16.5986,22.5141 L -16.4166,22.8417 L -16.4078,22.8571
 L -16.2139,23.1831 L -16.2045,23.1984 L -15.9984,23.5224 L -15.9884,23.5376 L -15.7699,23.8592 L -15.7593,23.8743
 L -15.528,24.1931 L -15.5167,24.2081 L -15.2724,24.5237 L -15.2606,24.5384 L -15.0029,24.8504 L -14.9906,24.8649
 L -14.7193,25.173 L -14.7064,25.1872 L -14.4654,25.4437 L -14.3676,25.6262 L -14.374,25.8331 L -14.5474,26.0583
 L -14.6626,26.1291 L -14.68,26.1403 L -14.8441,26.2492 L -14.8611,26.2609 L -15.021,26.3751 L -15.0376,26.3874
 L -15.1931,26.5068 L -15.2093,26.5197 L -15.3602,26.644 L -15.376,26.6575 L -15.5222,26.7867 L -15.5375,26.8008
 L -15.6788,26.9347 L -15.6937,26.9493 L -15.83,27.0877 L -15.8444,27.1029 L -15.9755,27.2457 L -15.9895,27.2615
 L -16.1152,27.4085 L -16.1287,27.4249 L -16.2489,27.576 L -16.2619,27.5929 L -16.3764,27.7479 L -16.3889,27.7654
 L -16.4976,27.9241 L -16.5095,27.9422 L -16.6122,28.1045 L -16.6236,28.1231 L -16.7202,28.2888 L -16.731,28.3081
 L -16.8214,28.4771 L -16.8315,28.4969 L -16.9155,28.669 L -16.925,28.6894 L -16.9957,28.8492 L -17.016,28.9014
 L -17.091,29.1254 L -17.1139,29.2176 L -17.1453,29.4065 L -17.1533,29.5055 L -17.1531,29.6781 L -17.1446,29.7778
 L -17.1173,29.9384 L -17.0932,30.033 L -17.0409,30.185 L -17.0039,30.2703 L -16.9273,30.4151 L -16.881,30.4889
 L -16.7808,30.6258 L -16.7284,30.6881 L -16.6059,30.8148 L -16.5494,30.8664 L -16.4073,30.9802 L -16.3476,31.0222
 L -16.1893,31.12 L -16.1268,31.1537 L -15.9565,31.2328 L -15.8907,31.2588 L -15.7131,31.317 L -15.6434,31.3354
 L -15.4632,31.3713 L -15.3889,31.3813 L -15.2108,31.3941 L -15.1314,31.3946 L -14.9597,31.3842 L -14.8756,31.373
 L -14.7134,31.3398 L -14.6261,31.3148 L -14.475,31.259 L -14.3878,31.2186 L -14.2479,31.1395 L -14.1655,31.0834
 L -14.0357,30.9783 L -13.9633,30.9089 L -13.8269,30.7542 L -13.7958,30.7159 L -13.6911,30.5755 L -13.6911,30.5754
 L -13.5737,30.418 L -13.5729,30.4169 L -13.4573,30.2629 L -13.4558,30.2609 L -13.3413,30.1103 L -13.339,30.1074
 L -13.225,29.9603 L -13.222,29.9564 L -13.108,29.813 L -13.1041,29.8082 L -12.9895,29.6685 L -12.9847,29.6628
 L -12.8689,29.5268 L -12.8633,29.5203 L -12.7456,29.3881 L -12.739,29.3808 L -12.619,29.2523 L -12.6115,29.2445
 L -12.4884,29.1197 L -12.48,29.1114 L -12.3532,28.9903 L -12.3439,28.9817 L -12.2128,28.8642 L -12.2026,28.8554
 L -12.0666,28.7415 L -12.0556,28.7326 L -11.9138,28.6223 L -11.9021,28.6135 L -11.7539,28.5066 L -11.7416,28.4981
 L -11.5863,28.3946 L -11.5735,28.3865 L -11.4102,28.2864 L -11.3972,28.2788 L -11.2252,28.1822 L -11.212,28.1751
 L -11.2111,28.1746 L -11.0087,28.131 L -10.8387,28.1783 L -10.5951,28.3095 L -10.5792,28.3178 L -10.1425,28.5365
 L -10.1265,28.5442 L -9.67366,28.7544 L -9.6577,28.7616 L -9.18838,28.9631 L -9.17245,28.9697 L -8.68641,29.162
 L -8.67055,29.168 L -8.16751,29.3509 L -8.15176,29.3563 L -7.63142,29.5292 L -7.61582,29.5342 L -7.07792,29.6967
 L -7.06248,29.7012 L -6.50675,29.853 L -6.49152,29.857 L -5.91766,29.9977 L -5.90266,30.0012 L -5.31043,30.1304
 L -5.29568,30.1335 L -4.6848,30.2508 L -4.67032,30.2534 L -4.04053,30.3584 L -4.02634,30.3606 L -3.37737,30.4529
 L -3.36348,30.4547 L -2.69509,30.5339 L -2.68151,30.5354 L -1.99344,30.6011 L -1.98018,30.6022 L -1.27217,30.654
 L -1.25924,30.6548 L -0.53104,30.6923 L -0.518445,30.6928 L 0.230192,30.7156 L 0.242453,30.7158 L 1.01209,30.7235
 L 1.02337,30.7235 L 1.55134,30.7189 L 1.56202,30.7187 L 2.08364,30.7048 L 2.09445,30.7044 L 2.60929,30.6814
 L 2.62023,30.6808 L 3.12819,30.6488 L 3.13926,30.648 L 3.64027,30.6072 L 3.65146,30.6061 L 4.14543,30.5565
 L 4.15675,30.5553 L 4.6436,30.497 L 4.65504,30.4955 L 5.13468,30.4287 L 5.14625,30.427 L 5.6186,30.3518
 L 5.63029,30.3498 L 6.09528,30.2664 L 6.10709,30.2641 L 6.56462,30.1725 L 6.57654,30.17 L 7.02654,30.0703
 L 7.03858,30.0675 L 7.48097,29.9599 L 7.49311,29.9569 L 7.9278,29.8415 L 7.94006,29.8381 L 8.36697,29.715
 L 8.37932,29.7113 L 8.79839,29.5807 L 8.81084,29.5767 L 9.22197,29.4387 L 9.2345,29.4343 L 9.63763,29.289
 L 9.65025,29.2842 L 10.0453,29.1317 L 10.058,29.1266 L 10.3451,29.0082 L 10.5654,28.9837 L 10.731,29.0122
 L 10.7469,29.0153 L 11.003,29.0701 L 11.0195,29.074 L 11.2611,29.1366 L 11.278,29.1413 L 11.5064,29.2112
 L 11.5233,29.2169 L 11.7397,29.2938 L 11.7565,29.3002 L 11.9621,29.384 L 11.9786,29.3911 L 12.1745,29.4814
 L 12.1904,29.4891 L 12.378,29.5858 L 12.393,29.5939 L 12.5735,29.6969 L 12.5873,29.7051 L 12.7619,29.8142
 L 12.7745,29.8224 L 12.9442,29.9375 L 12.9554,29.9454 L 13.1213,30.0664 L 13.1311,30.0738 L 13.2943,30.2007
 L 13.3026,30.2073 L 13.464,30.3398 L 13.4709,30.3455 L 13.6315,30.4834 L 13.6369,30.4882 L 13.7976,30.6313
 L 13.8017,30.635 L 13.9634,30.783 L 13.9662,30.7856 L 14.1299,30.9382 L 14.1314,30.9396 L 14.298,31.0966
 L 14.2983,31.0968 L 14.4512,31.2411 L 14.4866,31.272 L 14.6512,31.4046 L 14.7283,31.4574 L 14.8832,31.5465
 L 14.9655,31.5859 L 15.1292,31.6493 L 15.2127,31.6749 L 15.385,31.7142 L 15.4665,31.7269 L 15.6463,31.7425
 L 15.7239,31.7442 z
M 0.24648,30.2158 L -0.504229,30.193 L -1.23456,30.1554 L -1.94476,30.1034 L -2.63507,30.0375 L -3.30576,29.958
 L -3.95706,29.8654 L -4.58925,29.7599 L -5.20257,29.6421 L -5.79728,29.5124 L -6.37366,29.371 L -6.93195,29.2185
 L -7.47244,29.0551 L -7.99539,28.8813 L -8.50108,28.6976 L -8.98977,28.5042 L -9.46175,28.3015 L -9.91729,28.09
 L -10.3567,27.87 L -10.7821,27.6408 L -10.9538,27.5436 L -11.1246,27.4439 L -11.2927,27.3429 L -11.4581,27.2407
 L -11.6207,27.1372 L -11.7808,27.0324 L -11.9382,26.9264 L -12.0929,26.8193 L -12.2451,26.711 L -12.3947,26.6015
 L -12.5418,26.491 L -12.6863,26.3794 L -12.8283,26.2667 L -12.9678,26.153 L -13.1048,26.0384 L -13.2394,25.9227
 L -13.3716,25.8061 L -13.5014,25.6886 L -13.6288,25.5702 L -13.752,25.4526 L -14.0555,25.1497 L -14.3429,24.8437
 L -14.6163,24.5333 L -14.876,24.2188 L -15.1223,23.9007 L -15.3554,23.5794 L -15.5757,23.2553 L -15.7834,22.9288
 L -15.9788,22.6002 L -16.1622,22.2701 L -16.3338,21.9387 L -16.494,21.6066 L -16.643,21.2741 L -16.7811,20.9416
 L -16.9085,20.6096 L -17.0254,20.2785 L -17.1323,19.9487 L -17.2293,19.6207 L -17.3167,19.2949 L -17.3949,18.971
 L -17.5632,18.2001 L -17.712,17.4459 L -17.8421,16.7049 L -17.9541,15.9728 L -18.0488,15.2451 L -18.127,14.5173
 L -18.1895,13.7852 L -18.237,13.0442 L -18.2701,12.29 L -18.2897,11.5183 L -18.2963,10.7247 L -18.2907,9.90501
 L -18.2735,9.05492 L -18.2456,8.17026 L -18.2075,7.24684 L -18.16,6.28051 L -18.1038,5.26711 L -18.0397,4.20251
 L -17.9684,3.08256 L -17.8905,1.90293 L -17.8889,1.87866 L -17.8873,1.85426 L -17.8857,1.82984 L -17.884,1.8054
 L -17.8824,1.78094 L -17.8808,1.75646 L -17.8791,1.73196 L -17.8775,1.70744 L -17.8759,1.68289 L -17.8742,1.65832
 L -17.8726,1.63372 L -17.8709,1.6091 L -17.8693,1.58445 L -17.8676,1.55977 L -17.866,1.53506 L -17.8643,1.51033
 L -17.8627,1.48556 L -17.861,1.46076 L -17.8594,1.43593 L -17.8577,1.41106 L -17.8577,1.4109 L -17.8485,1.27387
 L -17.8485,1.27337 L -17.8396,1.13787 L -17.8396,1.13736 L -17.8309,1.00339 L -17.8309,1.00287 L -17.8224,0.870393
 L -17.8224,0.869872 L -17.8142,0.738863 L -17.8142,0.738336 L -17.8062,0.608776 L -17.8062,0.608243 L -17.7984,0.480108
 L -17.7984,0.479569 L -17.7909,0.352838 L -17.7908,0.352293 L -17.7835,0.226942 L -17.7835,0.226392 L -17.7764,0.102398
 L -17.7764,0.101842 L -17.7695,-0.0208176 L -17.7695,-0.0213794 L -17.7628,-0.142727 L -17.7628,-0.143294 L -17.7563,-0.263353
 L -17.7563,-0.263926 L -17.75,-0.382719 L -17.75,-0.383297 L -17.744,-0.500847 L -17.7439,-0.50143 L -17.7381,-0.61776
 L -17.7381,-0.618348 L -17.7324,-0.733481 L -17.7324,-0.734073 L -17.7269,-0.848032 L -17.7269,-0.848628 L -17.7216,-0.961437
 L -17.7216,-0.962037 L -17.7165,-1.07372 L -17.7164,-1.07574 L -17.6918,-1.66857 L -17.6917,-1.67201 L -17.6722,-2.23539
 L -17.6721,-2.23887 L -17.6572,-2.77654 L -17.6571,-2.77999 L -17.6465,-3.29571 L -17.6464,-3.29906 L -17.6394,-3.79657
 L -17.6394,-3.79973 L -17.6357,-4.28279 L -17.6356,-4.28565 L -17.6347,-4.75801 L -17.6347,-4.76049 L -17.6354,-5.00149
 L -17.6354,-5.00153 L -17.6361,-5.22602 L -17.6361,-5.22805 L -17.6394,-5.69024 L -17.6394,-5.69175 L -17.644,-6.1545
 L -17.644,-6.15545 L -17.6487,-6.54475 L -17.6487,-6.54475 L -17.6496,-6.6224 L -17.6496,-6.6228 L -17.6557,-7.09784
 L -17.6617,-7.58437 L -17.6657,-7.93896 L -17.6657,-7.93896 L -17.6673,-8.08605 L -17.672,-8.60655 L -17.6754,-9.14977
 L -17.6769,-9.71953 L -17.6761,-10.3197 L -17.6725,-10.954 L -17.6658,-11.626 L -17.6567,-12.2067 L -17.6441,-12.7719
 L -17.6277,-13.3224 L -17.6075,-13.8583 L -17.5834,-14.3801 L -17.5554,-14.8881 L -17.5233,-15.3826 L -17.4872,-15.864
 L -17.4468,-16.3326 L -17.4022,-16.7888 L -17.3533,-17.233 L -17.2999,-17.6654 L -17.2421,-18.0865 L -17.1797,-18.4965
 L -17.1127,-18.8959 L -17.0409,-19.285 L -16.9645,-19.6642 L -16.8832,-20.0338 L -16.797,-20.3942 L -16.7046,-20.7506
 L -16.706,-20.751 L -16.6969,-20.9679 L -16.8084,-21.2014 L -17.0217,-21.3479 L -17.3367,-21.4593 L -17.6154,-21.5827
 L -17.8758,-21.7232 L -18.1184,-21.8798 L -18.3435,-22.0515 L -18.5514,-22.2374 L -18.7421,-22.4365 L -18.9159,-22.648
 L -19.0726,-22.8709 L -19.2123,-23.1042 L -19.3348,-23.3472 L -19.44,-23.5985 L -19.5278,-23.8574 L -19.598,-24.1225
 L -19.6504,-24.3928 L -19.685,-24.6671 L -19.7015,-24.9442 L -19.6999,-25.2228 L -19.6801,-25.5019 L -19.6419,-25.7808
 L -19.5813,-26.0806 L -19.5035,-26.3702 L -19.4086,-26.648 L -19.2966,-26.9129 L -19.1678,-27.1641 L -19.022,-27.4009
 L -18.8592,-27.6226 L -18.6792,-27.8289 L -18.4815,-28.0191 L -18.2655,-28.1929 L -18.0304,-28.3496 L -17.7752,-28.4886
 L -17.4989,-28.609 L -17.2003,-28.7096 L -16.8785,-28.7892 L -16.5327,-28.8462 L -16.1622,-28.8791 L -15.7663,-28.8862
 L -15.3447,-28.8661 L -14.8928,-28.8165 L -14.7422,-28.7939 L -14.5946,-28.7682 L -14.4541,-28.7402 L -14.3209,-28.71
 L -14.1947,-28.6778 L -14.0754,-28.6436 L -13.963,-28.6076 L -13.8572,-28.5699 L -13.758,-28.5306 L -13.6651,-28.4899
 L -13.5784,-28.4479 L -13.4977,-28.4047 L -13.4227,-28.3604 L -13.3532,-28.3152 L -13.2888,-28.2691 L -13.2294,-28.2222
 L -13.1746,-28.1744 L -13.1241,-28.1259 L -13.0775,-28.0764 L -13.0265,-28.0164 L -12.813,-27.8691 L -12.555,-27.8485
 L -12.3213,-27.9596 L -12.2825,-27.9926 L -12.282,-27.9931 L -11.883,-28.3341 L -11.8774,-28.3384 L -11.8605,-28.3522
 L -11.854,-28.3577 L -11.7074,-28.4709 L -11.7056,-28.4723 L -11.4416,-28.678 L -11.4198,-28.6935 L -11.4032,-28.7057
 L -11.3819,-28.7222 L -11.2195,-28.8353 L -11.2163,-28.8375 L -10.9876,-28.9995 L -10.9482,-29.0247 L -10.9323,-29.0354
 L -10.8953,-29.0612 L -10.732,-29.1634 L -10.7274,-29.1663 L -10.5201,-29.2992 L -10.462,-29.3328 L -10.4469,-29.3419
 L -10.3932,-29.3755 L -10.2345,-29.4643 L -10.2285,-29.4677 L -10.0385,-29.5775 L -9.96021,-29.6181 L -9.94619,-29.6257
 L -9.87471,-29.6657 L -9.72352,-29.741 L -9.71614,-29.7447 L -9.54193,-29.8351 L -9.44199,-29.8813 L -9.42924,-29.8875
 L -9.33901,-29.9324 L -9.19726,-29.9947 L -9.18855,-29.9987 L -9.0297,-30.0722 L -8.90643,-30.1229 L -8.89508,-30.1277
 L -8.78514,-30.1761 L -8.65439,-30.2265 L -8.64445,-30.2305 L -8.50106,-30.2894 L -8.35259,-30.3431 L -8.34273,-30.3468
 L -8.2122,-30.3972 L -8.09383,-30.437 L -8.0828,-30.4408 L -7.95527,-30.487 L -7.77943,-30.5426 L -7.7711,-30.5453
 L -7.61933,-30.5963 L -7.51464,-30.6266 L -7.50268,-30.6302 L -7.39164,-30.6653 L -7.18576,-30.7217 L -7.17896,-30.7236
 L -7.00569,-30.7737 L -6.91597,-30.7958 L -6.90326,-30.7991 L -6.80947,-30.8248 L -6.57004,-30.8808 L -6.56471,-30.8821
 L -6.37045,-30.9299 L -6.29705,-30.945 L -6.28376,-30.9479 L -6.20812,-30.9656 L -5.9298,-31.0205 L -5.92586,-31.0213
 L -5.71286,-31.0652 L -5.65713,-31.0746 L -5.64345,-31.0771 L -5.58695,-31.0882 L -5.25977,-31.1416 L -5.25711,-31.142
 L -5.03218,-31.1799 L -4.99555,-31.1848 L -4.98163,-31.1869 L -4.94537,-31.1928 L -4.54244,-31.2457 L -4.54094,-31.2459
 L -4.3277,-31.2745 L -4.31165,-31.2762 L -4.29766,-31.2778 L -4.2828,-31.2798 L -3.62557,-31.3466 L -3.62511,-31.3467
 L -3.59875,-31.3494 L -3.57216,-31.3513 L -3.57173,-31.3513 L -2.89247,-31.4019 L -2.87421,-31.4028 L -2.86209,-31.4035
 L -2.84466,-31.4048 L -2.60813,-31.4158 L -2.60693,-31.4159 L -2.16365,-31.4377 L -2.11758,-31.4389 L -2.10715,-31.4392
 L -2.06481,-31.4412 L -1.79735,-31.4471 L -1.7955,-31.4472 L -1.4117,-31.4571 L -1.33606,-31.4574 L -1.32717,-31.4575
 L -1.25857,-31.459 L -0.986868,-31.4589 L -0.984487,-31.4589 L -0.634383,-31.4604 L -0.583679,-31.4601 L -0.531018,-31.4597
 L -0.478252,-31.4592 L -0.427884,-31.4587 L -0.425439,-31.4587 L -0.422869,-31.4586 L -0.372401,-31.4581 L -0.319315,-31.4574
 L -0.266123,-31.4566 L -0.212822,-31.4558 L -0.159414,-31.4549 L -0.105897,-31.4539 L -0.0522706,-31.4529 L 0.00146488,-31.4518
 L 0.0553101,-31.4506 L 0.109266,-31.4494 L 0.163332,-31.4481 L 0.217509,-31.4467 L 0.271798,-31.4453 L 0.326199,-31.4437
 L 0.380712,-31.4422 L 0.430628,-31.4407 L 0.435163,-31.4405 L 0.435941,-31.4405 L 1.1965,-31.4113 L 1.96021,-31.3697
 L 2.72474,-31.3144 L 3.4884,-31.2444 L 4.24948,-31.1586 L 5.00629,-31.0558 L 5.75713,-30.9348 L 6.50029,-30.7947
 L 7.23408,-30.6343 L 7.95681,-30.4526 L 8.66679,-30.2485 L 9.36236,-30.0209 L 10.0419,-29.7689 L 10.3418,-29.6432
 L 10.3418,-29.6432 L 10.7037,-29.4914 L 11.3462,-29.1875 L 11.968,-28.856 L 12.5674,-28.4961 L 13.1431,-28.1066
 L 13.6937,-27.6866 L 14.2296,-27.2246 L 14.4163,-27.1233 L 14.6751,-27.1177 L 14.902,-27.2423 L 14.9554,-27.2935
 L 15.0042,-27.3363 L 15.0567,-27.3785 L 15.1131,-27.4199 L 15.1736,-27.4607 L 15.2383,-27.5008 L 15.3076,-27.54
 L 15.3815,-27.5784 L 15.4602,-27.6158 L 15.544,-27.6521 L 15.6328,-27.6873 L 15.7268,-27.7212 L 15.8262,-27.7538
 L 15.9311,-27.785 L 16.0414,-27.8146 L 16.1574,-27.8426 L 16.2791,-27.8689 L 16.4065,-27.8934 L 16.5398,-27.9161
 L 16.6743,-27.9361 L 17.1265,-27.9857 L 17.5481,-28.0059 L 17.944,-27.9987 L 18.3146,-27.9658 L 18.6604,-27.9088
 L 18.9822,-27.8293 L 19.2808,-27.7286 L 19.5571,-27.6083 L 19.8124,-27.4692 L 20.0475,-27.3125 L 20.2635,-27.1387
 L 20.4612,-26.9485 L 20.6412,-26.7423 L 20.804,-26.5205 L 20.9498,-26.2837 L 21.0786,-26.0325 L 21.1906,-25.7676
 L 21.2855,-25.4899 L 21.3633,-25.2002 L 21.4238,-24.9008 L 21.4633,-24.6093 L 21.4827,-24.3179 L 21.4823,-24.027
 L 21.4622,-23.738 L 21.4225,-23.4523 L 21.3632,-23.1712 L 21.2847,-22.8961 L 21.1871,-22.6282 L 21.0705,-22.3689
 L 20.9351,-22.1192 L 20.7811,-21.8804 L 20.6085,-21.6536 L 20.4174,-21.4397 L 20.2077,-21.2399 L 19.9792,-21.0552
 L 19.7318,-20.8866 L 19.4651,-20.7351 L 19.1786,-20.6021 L 18.8719,-20.4888 L 18.526,-20.3912 L 18.3182,-20.2733
 L 18.1826,-20.0529 L 18.1753,-19.7942 L 18.248,-19.489 L 18.3166,-19.1822 L 18.382,-18.8703 L 18.4441,-18.5532
 L 18.5028,-18.2309 L 18.5581,-17.9032 L 18.61,-17.5701 L 18.6583,-17.2315 L 18.7031,-16.8873 L 18.7421,-16.5552
 L 18.7421,-16.5552 L 18.7442,-16.5374 L 18.7443,-16.5367 L 18.7443,-16.5366 L 18.7817,-16.1818 L 18.8155,-15.8203
 L 18.8454,-15.4529 L 18.8716,-15.0795 L 18.8939,-14.7 L 18.9122,-14.3144 L 18.9265,-13.9225 L 18.9369,-13.5243
 L 18.9431,-13.1197 L 18.9451,-12.7098 L 18.9385,-12.0002 L 18.9194,-11.3251 L 18.8895,-10.6795 L 18.85,-10.0597
 L 18.8023,-9.46198 L 18.748,-8.88247 L 18.6882,-8.31743 L 18.6244,-7.76313 L 18.558,-7.21585 L 18.4904,-6.67206
 L 18.4904,-6.67184 L 18.4232,-6.12877 L 18.4229,-6.12687 L 18.3575,-5.58169 L 18.3571,-5.57815 L 18.295,-5.0273
 L 18.2945,-5.02223 L 18.2371,-4.46215 L 18.2365,-4.4557 L 18.1853,-3.88283 L 18.1847,-3.8752 L 18.1411,-3.28597
 L 18.1405,-3.27739 L 18.106,-2.66824 L 18.1056,-2.65893 L 18.0815,-2.02629 L 18.0813,-2.01649 L 18.0691,-1.35682
 L 18.0691,-1.34673 L 18.0703,-0.656452 L 18.0703,-0.651029 L 18.0709,-0.604556 L 18.0709,-0.603907 L 18.0716,-0.557286
 L 18.0716,-0.556635 L 18.0723,-0.509866 L 18.0723,-0.509214 L 18.0731,-0.462294 L 18.0731,-0.461641 L 18.074,-0.41457
 L 18.074,-0.413915 L 18.0749,-0.366693 L 18.0749,-0.366036 L 18.0759,-0.318661 L 18.0759,-0.318003 L 18.0769,-0.270474
 L 18.0769,-0.269815 L 18.078,-0.22213 L 18.078,-0.22147 L 18.0792,-0.173629 L 18.0792,-0.172968 L 18.0805,-0.124969
 L 18.0805,-0.124307 L 18.0818,-0.0761505 L 18.0818,-0.0754874 L 18.0832,-0.0271712 L 18.0832,-0.0265072 L 18.0846,0.0219696
 L 18.0847,0.0226344 L 18.0862,0.0712727 L 18.0862,0.0719383 L 18.0878,0.120739 L 18.0878,0.121406 L 18.0895,0.17037
 L 18.0895,0.171037 L 18.0912,0.220167 L 18.0912,0.220834 L 18.093,0.27013 L 18.093,0.270798 L 18.0949,0.32026
 L 18.0949,0.320506 L 18.0981,0.403853 L 18.1013,0.4871 L 18.1044,0.570366 L 18.1074,0.65365 L 18.1105,0.736949
 L 18.1135,0.820264 L 18.1164,0.903593 L 18.1193,0.986934 L 18.1222,1.07029 L 18.1251,1.15365 L 18.1279,1.23702
 L 18.1307,1.3204 L 18.1334,1.40378 L 18.1362,1.48717 L 18.1388,1.57057 L 18.1415,1.65396 L 18.1441,1.73736
 L 18.1467,1.82076 L 18.1493,1.90416 L 18.1518,1.98708 L 18.1761,2.8509 L 18.197,3.71254 L 18.215,4.5711
 L 18.2302,5.42527 L 18.243,6.27372 L 18.2535,7.11512 L 18.262,7.94816 L 18.2688,8.77149 L 18.2741,9.58381
 L 18.2782,10.3838 L 18.2813,11.1701 L 18.2837,11.9415 L 18.2857,12.6965 L 18.2875,13.434 L 18.2875,13.434
 L 18.2894,14.1524 L 18.2894,14.1527 L 18.2916,14.8506 L 18.2916,14.8511 L 18.2944,15.5273 L 18.2944,15.5281
 L 18.2981,16.1812 L 18.2981,16.1822 L 18.3029,16.811 L 18.3029,16.8122 L 18.3089,17.4101 L 18.3033,17.9318
 L 18.2747,18.4409 L 18.2234,18.9433 L 18.1495,19.4385 L 18.0535,19.9266 L 17.9355,20.407 L 17.7957,20.8798
 L 17.6345,21.3445 L 17.452,21.8011 L 17.2484,22.2491 L 17.0239,22.6884 L 16.7788,23.1187 L 16.5132,23.5398
 L 16.2273,23.9512 L 15.9214,24.3528 L 15.5955,24.7442 L 15.2498,25.1252 L 14.8847,25.4953 L 14.5002,25.8543
 L 14.0943,26.2037 L 13.9318,26.336 L 13.7641,26.4683 L 13.5934,26.5986 L 13.4198,26.7271 L 13.2433,26.8536
 L 13.0639,26.9782 L 12.8816,27.1008 L 12.6964,27.2214 L 12.5084,27.34 L 12.3175,27.4565 L 12.1238,27.571
 L 11.9273,27.6833 L 11.728,27.7936 L 11.5259,27.9017 L 11.321,28.0076 L 11.1133,28.1114 L 10.9029,28.213
 L 10.6898,28.3124 L 10.4739,28.4095 L 10.2565,28.5038 L 9.86632,28.6648 L 9.46917,28.8181 L 9.06395,28.9642
 L 8.65074,29.103 L 8.2296,29.2342 L 7.80063,29.3579 L 7.3639,29.4738 L 6.9195,29.5819 L 6.4675,29.682
 L 6.00799,29.774 L 5.54105,29.8578 L 5.06675,29.9333 L 4.58519,30.0004 L 4.09645,30.0589 L 3.6006,30.1087
 L 3.09774,30.1497 L 2.58794,30.1818 L 2.07129,30.2049 L 1.54788,30.2188 L 1.01808,30.2235 z
M -6.24557,-17.0958 L -5.24458,-17.1835 L -5.2188,-17.1881 L -4.24823,-17.4484 L -4.22364,-17.4574 L -3.31297,-17.8826
 L -3.29032,-17.8956 L -2.46723,-18.4727 L -2.4472,-18.4895 L -1.7367,-19.2009 L -1.7199,-19.2209 L -1.14357,-20.045
 L -1.13051,-20.0676 L -0.705863,-20.9794 L -0.696938,-21.0039 L -0.436873,-21.9757 L -0.432343,-22.0014 L -0.344768,-23.0036
 L -0.344768,-23.0297 L -0.432343,-24.0319 L -0.436873,-24.0576 L -0.696938,-25.0293 L -0.705863,-25.0539 L -1.13051,-25.9657
 L -1.14357,-25.9883 L -1.7199,-26.8124 L -1.7367,-26.8324 L -2.4472,-27.5438 L -2.46723,-27.5606 L -3.29032,-28.1376
 L -3.31297,-28.1507 L -4.22364,-28.5759 L -4.24823,-28.5848 L -5.2188,-28.8452 L -5.24458,-28.8498 L -6.24557,-28.9374
 L -6.27175,-28.9374 L -7.27273,-28.8498 L -7.29851,-28.8452 L -8.26908,-28.5848 L -8.29367,-28.5759 L -9.20434,-28.1507
 L -9.22699,-28.1376 L -10.0501,-27.5606 L -10.0701,-27.5438 L -10.7806,-26.8324 L -10.7974,-26.8124 L -11.3737,-25.9883
 L -11.3868,-25.9657 L -11.8115,-25.0539 L -11.8204,-25.0293 L -12.0804,-24.0576 L -12.085,-24.0319 L -12.1725,-23.0297
 L -12.1725,-23.0036 L -12.085,-22.0014 L -12.0804,-21.9757 L -11.8204,-21.0039 L -11.8115,-20.9794 L -11.3868,-20.0676
 L -11.3737,-20.045 L -10.7974,-19.2209 L -10.7806,-19.2009 L -10.0701,-18.4895 L -10.0501,-18.4727 L -9.22699,-17.8956
 L -9.20434,-17.8826 L -8.29367,-17.4574 L -8.26908,-17.4484 L -7.29851,-17.1881 L -7.27273,-17.1835 L -6.27175,-17.0958
 z
M -7.23347,-17.4812 L -8.17866,-17.7348 L -9.06553,-18.1488 L -9.86713,-18.7108 L -10.5591,-19.4036 L -11.1204,-20.2062
 L -11.534,-21.0941 L -11.7873,-22.0406 L -11.8725,-23.0166 L -11.7873,-23.9927 L -11.534,-24.9391 L -11.1204,-25.8271
 L -10.5591,-26.6297 L -9.86713,-27.3225 L -9.06553,-27.8844 L -8.17866,-28.2985 L -7.23347,-28.5521 L -6.25866,-28.6374
 L -5.28385,-28.5521 L -4.33865,-28.2985 L -3.45178,-27.8844 L -2.65019,-27.3225 L -1.95823,-26.6297 L -1.39693,-25.8271
 L -0.983349,-24.9391 L -0.730063,-23.9927 L -0.64477,-23.0166 L -0.730063,-22.0406 L -0.983349,-21.0941 L -1.39693,-20.2062
 L -1.95823,-19.4036 L -2.65019,-18.7108 L -3.45178,-18.1488 L -4.33865,-17.7348 L -5.28385,-17.4812 L -6.25866,-17.3958
 z
M -2.89008,-20.7001 L -2.55594,-20.7927 L -2.24243,-20.9441 L -1.95907,-21.1494 L -1.71447,-21.4026 L -1.51606,-21.696
 L -1.36987,-22.0205 L -1.28034,-22.3664 L -1.25019,-22.7231 L -1.28034,-23.0798 L -1.36987,-23.4256 L -1.51606,-23.7502
 L -1.71447,-24.0435 L -1.95907,-24.2967 L -2.24243,-24.5021 L -2.55594,-24.6534 L -2.89008,-24.7461 L -3.23468,-24.7773
 L -3.62183,-24.7378 L -3.99411,-24.6209 L -4.3372,-24.4311 L -4.63792,-24.1756 L -4.88472,-23.8643 L -5.0681,-23.5092
 L -5.18103,-23.1238 L -5.21916,-22.7231 L -5.18103,-22.3223 L -5.0681,-21.9369 L -4.88472,-21.5818 L -4.63792,-21.2705
 L -4.3372,-21.015 L -3.99411,-20.8252 L -3.62183,-20.7083 L -3.23468,-20.6688 z
M 9.21381,-16.4987 L 9.23959,-16.5032 L 10.2102,-16.7636 L 10.2348,-16.7725 L 11.1454,-17.1977 L 11.1681,-17.2108
 L 11.9912,-17.7878 L 12.0112,-17.8046 L 12.7217,-18.516 L 12.7385,-18.536 L 13.3148,-19.3601 L 13.3279,-19.3828
 L 13.7525,-20.2945 L 13.7615,-20.3191 L 14.0215,-21.2908 L 14.0261,-21.3165 L 14.1136,-22.3187 L 14.1136,-22.3448
 L 14.0261,-23.347 L 14.0215,-23.3728 L 13.7615,-24.3445 L 13.7525,-24.369 L 13.3279,-25.2808 L 13.3148,-25.3034
 L 12.7385,-26.1275 L 12.7217,-26.1476 L 12.0112,-26.8589 L 11.9912,-26.8757 L 11.1681,-27.4528 L 11.1454,-27.4659
 L 10.2348,-27.891 L 10.2102,-27.9 L 9.23959,-28.1604 L 9.21381,-28.1649 L 8.21283,-28.2526 L 8.18665,-28.2526
 L 7.18566,-28.1649 L 7.15988,-28.1604 L 6.18931,-27.9 L 6.16472,-27.891 L 5.25405,-27.4659 L 5.2314,-27.4528
 L 4.40831,-26.8757 L 4.38829,-26.8589 L 3.67778,-26.1476 L 3.66099,-26.1275 L 3.08465,-25.3034 L 3.0716,-25.2808
 L 2.64694,-24.369 L 2.63802,-24.3445 L 2.37796,-23.3728 L 2.37343,-23.347 L 2.28585,-22.3448 L 2.28585,-22.3187
 L 2.37343,-21.3165 L 2.37796,-21.2908 L 2.63802,-20.3191 L 2.64694,-20.2945 L 3.0716,-19.3828 L 3.08465,-19.3601
 L 3.66099,-18.536 L 3.67778,-18.516 L 4.38829,-17.8046 L 4.40831,-17.7878 L 5.2314,-17.2108 L 5.25405,-17.1977
 L 6.16472,-16.7725 L 6.18931,-16.7636 L 7.15988,-16.5032 L 7.18566,-16.4987 L 8.18665,-16.411 L 8.21283,-16.411
 z
M 7.22493,-16.7964 L 6.27973,-17.0499 L 5.39286,-17.464 L 4.59127,-18.0259 L 3.89931,-18.7187 L 3.33801,-19.5213
 L 2.92443,-20.4093 L 2.67115,-21.3557 L 2.58585,-22.3318 L 2.67115,-23.3079 L 2.92443,-24.2543 L 3.33801,-25.1423
 L 3.89931,-25.9448 L 4.59127,-26.6376 L 5.39286,-27.1996 L 6.27973,-27.6136 L 7.22493,-27.8672 L 8.19974,-27.9526
 L 9.17455,-27.8672 L 10.1197,-27.6136 L 11.0066,-27.1996 L 11.8082,-26.6376 L 12.5002,-25.9448 L 13.0615,-25.1423
 L 13.475,-24.2543 L 13.7283,-23.3079 L 13.8136,-22.3318 L 13.7283,-21.3557 L 13.475,-20.4093 L 13.0615,-19.5213
 L 12.5002,-18.7187 L 11.8082,-18.0259 L 11.0066,-17.464 L 10.1197,-17.0499 L 9.17455,-16.7964 L 8.19974,-16.711
 z
M 11.5683,-20.0154 L 11.9025,-20.1081 L 12.216,-20.2594 L 12.4993,-20.4648 L 12.7439,-20.718 L 12.9423,-21.0113
 L 13.0885,-21.3358 L 13.1781,-21.6817 L 13.2082,-22.0384 L 13.1701,-22.4392 L 13.0571,-22.8245 L 12.8738,-23.1797
 L 12.627,-23.491 L 12.3262,-23.7465 L 11.9831,-23.9363 L 11.6109,-24.0532 L 11.2237,-24.0927 L 10.8366,-24.0532
 L 10.4643,-23.9363 L 10.1212,-23.7465 L 9.82047,-23.491 L 9.57368,-23.1797 L 9.39029,-22.8245 L 9.27736,-22.4392
 L 9.23923,-22.0384 L 9.26938,-21.6817 L 9.35891,-21.3358 L 9.5051,-21.0113 L 9.70351,-20.718 L 9.94811,-20.4648
 L 10.2315,-20.2594 L 10.545,-20.1081 L 10.8791,-20.0154 L 11.2237,-19.9842 z
M -16.0004,-23.5383 L -15.8281,-23.6692 L -15.8183,-23.6852 L -15.8183,-23.6852 L -15.7902,-23.7309 L -15.7902,-23.7309
 L -15.7459,-23.8029 L -15.7459,-23.8029 L -15.6875,-23.8979 L -15.6875,-23.8979 L -15.6169,-24.0126 L -15.6169,-24.0126
 L -15.5363,-24.1437 L -15.5363,-24.1437 L -15.4477,-24.2878 L -15.4477,-24.2878 L -15.3531,-24.4416 L -15.3531,-24.4416
 L -15.2547,-24.6017 L -15.2547,-24.6018 L -15.1544,-24.7649 L -15.1544,-24.765 L -15.0544,-24.9278 L -15.0544,-24.9279
 L -14.9566,-25.0871 L -14.9566,-25.0871 L -14.8632,-25.2394 L -14.8631,-25.2395 L -14.7761,-25.3814 L -14.7761,-25.3815
 L -14.6975,-25.5098 L -14.6974,-25.51 L -14.6293,-25.6213 L -14.6291,-25.6216 L -14.5736,-25.7126 L -14.5733,-25.7131
 L -14.5324,-25.7805 L -14.5316,-25.7818 L -14.5074,-25.8222 L -14.5014,-25.8326 L -14.4959,-25.8427 L -14.4592,-25.9936
 L -14.5192,-26.1668 L -14.5564,-26.2164 L -14.5648,-26.227 L -14.6041,-26.2747 L -14.6129,-26.2849 L -14.6542,-26.3307
 L -14.6635,-26.3406 L -14.7068,-26.3844 L -14.7166,-26.3939 L -14.7618,-26.4356 L -14.772,-26.4447 L -14.819,-26.4843
 L -14.8297,-26.4929 L -14.8784,-26.5303 L -14.8896,-26.5385 L -14.94,-26.5736 L -14.9516,-26.5813 L -15.0036,-26.614
 L -15.0157,-26.6213 L -15.0692,-26.6515 L -15.0817,-26.6582 L -15.1366,-26.686 L -15.1496,-26.6921 L -15.2059,-26.7173
 L -15.2192,-26.7229 L -15.2769,-26.7454 L -15.2906,-26.7503 L -15.3495,-26.7701 L -15.3635,-26.7744 L -15.4236,-26.7913
 L -15.4379,-26.7949 L -15.4991,-26.8089 L -15.5137,-26.8119 L -15.5759,-26.8229 L -15.5907,-26.8252 L -15.6539,-26.8331
 L -15.6689,-26.8346 L -15.7329,-26.8395 L -15.748,-26.8402 L -15.8129,-26.8419 L -15.833,-26.8417 L -15.9415,-26.8372
 L -15.9665,-26.835 L -16.0726,-26.8216 L -16.0972,-26.8175 L -16.2006,-26.7956 L -16.2245,-26.7895 L -16.3248,-26.7594
 L -16.3478,-26.7514 L -16.4446,-26.7136 L -16.4667,-26.7039 L -16.5598,-26.6586 L -16.5807,-26.6473 L -16.6696,-26.595
 L -16.6894,-26.5822 L -16.7738,-26.5231 L -16.7923,-26.509 L -16.872,-26.4435 L -16.8892,-26.4282 L -16.9637,-26.3567
 L -16.9796,-26.3402 L -17.0486,-26.263 L -17.0631,-26.2454 L -17.1264,-26.1629 L -17.1395,-26.1443 L -17.1965,-26.0567
 L -17.2082,-26.0372 L -17.2588,-25.945 L -17.269,-25.9246 L -17.3127,-25.8282 L -17.3213,-25.807 L -17.3579,-25.7066
 L -17.3649,-25.6847 L -17.3939,-25.5807 L -17.3993,-25.5582 L -17.4204,-25.4511 L -17.424,-25.428 L -17.437,-25.318
 L -17.4388,-25.2947 L -17.4432,-25.1822 L -17.4432,-25.1603 L -17.4398,-25.0615 L -17.4384,-25.0411 L -17.4285,-24.9442
 L -17.4257,-24.9239 L -17.4093,-24.8292 L -17.4052,-24.8093 L -17.3827,-24.7169 L -17.3772,-24.6974 L -17.3489,-24.6077
 L -17.3421,-24.5887 L -17.308,-24.5018 L -17.3001,-24.4833 L -17.2606,-24.3995 L -17.2514,-24.3817 L -17.2067,-24.3012
 L -17.1964,-24.2841 L -17.1467,-24.2072 L -17.1353,-24.1908 L -17.0808,-24.1177 L -17.0683,-24.1021 L -17.0093,-24.033
 L -16.9958,-24.0182 L -16.9324,-23.9534 L -16.9179,-23.9394 L -16.8505,-23.8791 L -16.8349,-23.8661 L -16.7637,-23.8105
 L -16.7471,-23.7985 L -16.6723,-23.7479 L -16.6548,-23.737 L -16.5765,-23.6916 L -16.5581,-23.6817 L -16.4767,-23.6418
 L -16.4574,-23.6332 L -16.3731,-23.5989 L -16.353,-23.5916 L -16.2659,-23.5633 L -16.2452,-23.5574 L -16.1557,-23.5352
 z
M 17.8469,-22.5292 L 17.8715,-22.5318 L 17.9758,-22.5468 L 18,-22.5513 L 18.1016,-22.5746 L 18.1251,-22.581
 L 18.2235,-22.6122 L 18.2462,-22.6204 L 18.3412,-22.6591 L 18.3628,-22.6689 L 18.4542,-22.7148 L 18.4747,-22.7262
 L 18.5619,-22.7789 L 18.5813,-22.7917 L 18.6641,-22.851 L 18.6822,-22.8651 L 18.7603,-22.9306 L 18.7772,-22.9458
 L 18.8502,-23.0172 L 18.8658,-23.0336 L 18.9334,-23.1104 L 18.9476,-23.1279 L 19.0095,-23.2099 L 19.0224,-23.2284
 L 19.0783,-23.3152 L 19.0897,-23.3346 L 19.1392,-23.426 L 19.1492,-23.4462 L 19.192,-23.5417 L 19.2005,-23.5628
 L 19.2362,-23.6621 L 19.2431,-23.6839 L 19.2715,-23.7867 L 19.2768,-23.809 L 19.2974,-23.915 L 19.301,-23.9378
 L 19.3136,-24.0465 L 19.3154,-24.0696 L 19.3197,-24.1808 L 19.3199,-24.1923 L 19.3199,-24.1923 L 19.3197,-24.204
 L 19.3153,-24.3165 L 19.3135,-24.3398 L 19.3005,-24.4498 L 19.2969,-24.4729 L 19.2758,-24.58 L 19.2704,-24.6025
 L 19.2414,-24.7064 L 19.2344,-24.7284 L 19.1979,-24.8288 L 19.1892,-24.85 L 19.1455,-24.9464 L 19.1353,-24.9668
 L 19.0847,-25.059 L 19.073,-25.0785 L 19.016,-25.1661 L 19.0029,-25.1847 L 18.9397,-25.2672 L 18.9251,-25.2848
 L 18.8561,-25.362 L 18.8402,-25.3785 L 18.7657,-25.45 L 18.7485,-25.4653 L 18.6689,-25.5308 L 18.6504,-25.5449
 L 18.5659,-25.604 L 18.5461,-25.6168 L 18.4572,-25.6691 L 18.4363,-25.6804 L 18.3432,-25.7257 L 18.3212,-25.7354
 L 18.2244,-25.7732 L 18.2013,-25.7812 L 18.101,-25.8113 L 18.0771,-25.8174 L 17.9737,-25.8393 L 17.9491,-25.8434
 L 17.843,-25.8568 L 17.818,-25.859 L 17.7095,-25.8635 L 17.6895,-25.8637 L 17.6256,-25.8621 L 17.6108,-25.8614
 L 17.5477,-25.8567 L 17.533,-25.8552 L 17.4707,-25.8475 L 17.4562,-25.8453 L 17.3949,-25.8346 L 17.3805,-25.8318
 L 17.3202,-25.8182 L 17.3061,-25.8146 L 17.2468,-25.7982 L 17.233,-25.7941 L 17.1749,-25.7749 L 17.1614,-25.7701
 L 17.1045,-25.7483 L 17.0913,-25.7429 L 17.0357,-25.7185 L 17.0229,-25.7125 L 16.9686,-25.6855 L 16.9562,-25.679
 L 16.9033,-25.6496 L 16.8913,-25.6426 L 16.8399,-25.6108 L 16.8283,-25.6033 L 16.7784,-25.5692 L 16.7673,-25.5613
 L 16.719,-25.5249 L 16.7084,-25.5165 L 16.6617,-25.478 L 16.6515,-25.4692 L 16.6067,-25.4286 L 16.5969,-25.4194
 L 16.5538,-25.3768 L 16.5445,-25.3672 L 16.5033,-25.3226 L 16.4945,-25.3127 L 16.4552,-25.2663 L 16.4469,-25.256
 L 16.4285,-25.2322 L 16.4238,-25.2294 L 16.4179,-25.2185 L 16.4096,-25.2077 L 16.4113,-25.2064 L 16.3495,-25.093
 L 16.3569,-24.9265 L 16.3689,-24.8909 L 16.377,-24.8697 L 16.4049,-24.8039 L 16.408,-24.797 L 16.4498,-24.7048
 L 16.4514,-24.7014 L 16.5053,-24.5866 L 16.5063,-24.5845 L 16.5703,-24.4507 L 16.571,-24.4493 L 16.6432,-24.3004
 L 16.6437,-24.2994 L 16.7222,-24.139 L 16.7226,-24.1383 L 16.8054,-23.9703 L 16.8057,-23.9697 L 16.891,-23.7977
 L 16.8912,-23.7972 L 16.977,-23.6251 L 16.9772,-23.6247 L 17.0615,-23.4562 L 17.0618,-23.4558 L 17.1427,-23.2946
 L 17.1429,-23.2942 L 17.2186,-23.1442 L 17.2188,-23.1437 L 17.2873,-23.0085 L 17.2876,-23.008 L 17.3469,-22.8914
 L 17.3473,-22.8907 L 17.3956,-22.7964 L 17.3962,-22.7952 L 17.4316,-22.7271 L 17.4332,-22.7239 L 17.4536,-22.6857
 L 17.4805,-22.644 L 17.4841,-22.6393 L 17.6074,-22.5449 L 17.7401,-22.5227 z
M 2.10742,-8.91651 L 2.12868,-8.91908 L 2.32011,-8.95629 L 2.34261,-8.96251 L 2.52516,-9.02867 L 2.54824,-9.03933
 L 2.71782,-9.13584 L 2.74017,-9.1514 L 2.89269,-9.27966 L 2.91248,-9.29976 L 3.04387,-9.46115 L 3.05942,-9.4844
 L 3.16557,-9.68032 L 3.17607,-9.70459 L 3.25291,-9.93643 L 3.25861,-9.95973 L 3.30203,-10.2289 L 3.30392,-10.2499
 L 3.30985,-10.5578 L 3.30974,-10.5672 L 3.30316,-10.7181 L 3.30315,-10.7182 L 3.29658,-10.8666 L 3.29658,-10.8667
 L 3.29002,-11.0126 L 3.29001,-11.0127 L 3.28348,-11.1559 L 3.28348,-11.156 L 3.27697,-11.2967 L 3.27697,-11.2968
 L 3.2705,-11.4348 L 3.27049,-11.4349 L 3.26406,-11.5701 L 3.26406,-11.5702 L 3.25768,-11.7026 L 3.25768,-11.7027
 L 3.25136,-11.8324 L 3.25136,-11.8324 L 3.2451,-11.9592 L 3.2451,-11.9593 L 3.23891,-12.0831 L 3.23891,-12.0832
 L 3.2328,-12.204 L 3.2328,-12.204 L 3.22677,-12.3218 L 3.22677,-12.3219 L 3.22084,-12.4366 L 3.22083,-12.4367
 L 3.215,-12.5482 L 3.215,-12.5483 L 3.20927,-12.6566 L 3.20927,-12.6567 L 3.20586,-12.7205 L 3.24832,-12.7155
 L 3.25259,-12.715 L 3.30567,-12.7096 L 3.30986,-12.7092 L 3.36438,-12.7044 L 3.3685,-12.7041 L 3.4245,-12.6999
 L 3.42853,-12.6996 L 3.48605,-12.6961 L 3.49,-12.6959 L 3.54908,-12.6931 L 3.55294,-12.6929 L 3.61363,-12.6908
 L 3.6174,-12.6907 L 3.67974,-12.6894 L 3.68341,-12.6893 L 3.74744,-12.6887 L 3.75101,-12.6887 L 3.81678,-12.6888
 L 3.82026,-12.6888 L 3.8878,-12.6897 L 3.89118,-12.6898 L 3.96054,-12.6915 L 3.96383,-12.6916 L 4.03505,-12.6942
 L 4.03824,-12.6943 L 4.11137,-12.6977 L 4.11446,-12.6979 L 4.18953,-12.7021 L 4.19253,-12.7023 L 4.26959,-12.7075
 L 4.29054,-12.7096 L 4.46723,-12.734 L 4.50674,-12.7422 L 4.67134,-12.788 L 4.70991,-12.8017 L 4.862,-12.8674
 L 4.89815,-12.886 L 5.0373,-12.9702 L 5.06984,-12.9929 L 5.19563,-13.0938 L 5.22386,-13.1196 L 5.33585,-13.2358
 L 5.35954,-13.2636 L 5.45731,-13.3934 L 5.47654,-13.4223 L 5.55968,-13.5643 L 5.57476,-13.5937 L 5.64282,-13.7462
 L 5.65413,-13.7757 L 5.70669,-13.9373 L 5.7146,-13.9665 L 5.75124,-14.1356 L 5.75605,-14.1646 L 5.77634,-14.3395
 L 5.77828,-14.3682 L 5.7818,-14.5475 L 5.78101,-14.5759 L 5.76733,-14.758 L 5.76389,-14.786 L 5.73258,-14.9694
 L 5.72651,-14.997 L 5.67714,-15.18 L 5.66843,-15.2071 L 5.60058,-15.3882 L 5.58923,-15.4146 L 5.50247,-15.5923
 L 5.48851,-15.6177 L 5.38241,-15.7904 L 5.36594,-15.8146 L 5.24008,-15.9807 L 5.22773,-15.996 L 5.15771,-16.0768
 L 5.15081,-16.0845 L 5.07918,-16.1617 L 5.0718,-16.1694 L 4.99848,-16.243 L 4.99062,-16.2506 L 4.91553,-16.3206
 L 4.90722,-16.3281 L 4.83028,-16.3947 L 4.82157,-16.402 L 4.74269,-16.4652 L 4.73364,-16.4722 L 4.65274,-16.5321
 L 4.6434,-16.5388 L 4.56039,-16.5955 L 4.55085,-16.6017 L 4.46565,-16.6553 L 4.45599,-16.6611 L 4.36851,-16.7117
 L 4.35879,-16.7171 L 4.26896,-16.7646 L 4.25928,-16.7695 L 4.167,-16.8141 L 4.15742,-16.8186 L 4.06262,-16.8604
 L 4.05322,-16.8643 L 3.95581,-16.9034 L 3.94666,-16.9069 L 3.84655,-16.9433 L 3.83769,-16.9464 L 3.73481,-16.9802
 L 3.72629,-16.9828 L 3.62055,-17.0141 L 3.6124,-17.0164 L 3.50372,-17.0453 L 3.49597,-17.0472 L 3.38426,-17.0737
 L 3.37693,-17.0754 L 3.35623,-17.0797 L 3.36836,-17.1114 L 3.3794,-17.1434 L 3.38934,-17.1756 L 3.39816,-17.208
 L 3.40584,-17.2407 L 3.41238,-17.2735 L 3.41776,-17.3066 L 3.42196,-17.3399 L 3.42499,-17.3733 L 3.42681,-17.407
 L 3.42742,-17.4408 L 3.41865,-17.5691 L 3.39279,-17.6947 L 3.35052,-17.8169 L 3.29252,-17.9355 L 3.21948,-18.05
 L 3.13207,-18.16 L 3.03098,-18.2652 L 2.91688,-18.3651 L 2.79046,-18.4593 L 2.65241,-18.5475 L 2.50339,-18.6292
 L 2.34409,-18.7039 L 2.1752,-18.7714 L 1.99739,-18.8312 L 1.81135,-18.8829 L 1.61775,-18.9261 L 1.41728,-18.9604
 L 1.21062,-18.9854 L 0.998442,-19.0007 L 0.781439,-19.0059 L 0.564407,-19.0007 L 0.35221,-18.9854 L 0.14553,-18.9604
 L -0.0549534,-18.9261 L -0.24856,-18.8829 L -0.434608,-18.8312 L -0.612418,-18.7714 L -0.781308,-18.7039 L -0.940599,-18.6292
 L -1.08961,-18.5475 L -1.22766,-18.4593 L -1.35406,-18.3651 L -1.46815,-18.2652 L -1.56923,-18.16 L -1.65663,-18.05
 L -1.72966,-17.9355 L -1.78765,-17.8169 L -1.82992,-17.6947 L -1.85577,-17.5691 L -1.86454,-17.4408 L -1.86406,-17.4108
 L -1.86262,-17.3809 L -1.86023,-17.3511 L -1.8569,-17.3215 L -1.85264,-17.2921 L -1.84746,-17.2628 L -1.84136,-17.2337
 L -1.83437,-17.2047 L -1.82649,-17.176 L -1.81893,-17.1513 L -1.84909,-17.1454 L -1.85645,-17.1438 L -1.96117,-17.1204
 L -1.96892,-17.1186 L -2.07105,-17.0929 L -2.07915,-17.0907 L -2.17876,-17.0627 L -2.1872,-17.0602 L -2.28437,-17.0297
 L -2.29311,-17.0268 L -2.3879,-16.9939 L -2.3969,-16.9906 L -2.4894,-16.9551 L -2.4986,-16.9514 L -2.58887,-16.9133
 L -2.59821,-16.9091 L -2.68633,-16.8684 L -2.69576,-16.8638 L -2.78179,-16.8203 L -2.79124,-16.8153 L -2.87527,-16.7689
 L -2.88466,-16.7635 L -2.96675,-16.7143 L -2.97602,-16.7085 L -3.05624,-16.6563 L -3.06532,-16.6502 L -3.14375,-16.595
 L -3.15257,-16.5885 L -3.22929,-16.5303 L -3.23779,-16.5236 L -3.31287,-16.4622 L -3.321,-16.4553 L -3.39451,-16.3906
 L -3.40225,-16.3836 L -3.47425,-16.3157 L -3.48156,-16.3086 L -3.55214,-16.2373 L -3.55899,-16.2302 L -3.62822,-16.1555
 L -3.63566,-16.1365 L -3.64095,-16.1408 L -3.77236,-15.9793 L -3.7897,-15.9557 L -3.90157,-15.787 L -3.91643,-15.762
 L -4.00915,-15.5875 L -4.02142,-15.5615 L -4.09535,-15.3829 L -4.10499,-15.3561 L -4.16052,-15.175 L -4.16753,-15.1476
 L -4.20502,-14.9655 L -4.20941,-14.9375 L -4.22924,-14.756 L -4.23099,-14.7277 L -4.23353,-14.5484 L -4.23256,-14.5197
 L -4.21819,-14.3441 L -4.21436,-14.315 L -4.18345,-14.1447 L -4.17654,-14.1152 L -4.12946,-13.9518 L -4.11917,-13.9221
 L -4.0563,-13.7671 L -4.04225,-13.7373 L -3.96396,-13.5924 L -3.94577,-13.563 L -3.85243,-13.4296 L -3.82977,-13.4011
 L -3.72176,-13.281 L -3.6945,-13.2543 L -3.57219,-13.1489 L -3.54053,-13.1251 L -3.4043,-13.036 L -3.3689,-13.0161
 L -3.21911,-12.9449 L -3.18111,-12.93 L -3.01814,-12.8782 L -2.97899,-12.8686 L -2.80322,-12.8379 L -2.78298,-12.8351
 L -2.73199,-12.8297 L -2.73003,-12.8295 L -2.6799,-12.8246 L -2.6779,-12.8244 L -2.62861,-12.8198 L -2.62657,-12.8197
 L -2.57812,-12.8155 L -2.57604,-12.8154 L -2.52841,-12.8117 L -2.52629,-12.8115 L -2.47947,-12.8082 L -2.47731,-12.808
 L -2.43129,-12.8051 L -2.42909,-12.805 L -2.38386,-12.8024 L -2.38161,-12.8023 L -2.33716,-12.8002 L -2.33487,-12.8001
 L -2.29118,-12.7983 L -2.28885,-12.7982 L -2.24591,-12.7968 L -2.24354,-12.7967 L -2.20133,-12.7956 L -2.19893,-12.7956
 L -2.15745,-12.7948 L -2.155,-12.7948 L -2.11424,-12.7944 L -2.11175,-12.7944 L -2.07169,-12.7944 L -2.06916,-12.7944
 L -2.04813,-12.7946 L -2.05307,-12.7025 L -2.05307,-12.7024 L -2.05891,-12.5925 L -2.05891,-12.5925 L -2.06486,-12.4792
 L -2.06486,-12.4791 L -2.07092,-12.3625 L -2.07092,-12.3624 L -2.07707,-12.2426 L -2.07708,-12.2425 L -2.08332,-12.1194
 L -2.08333,-12.1193 L -2.08965,-11.993 L -2.08966,-11.9929 L -2.09606,-11.8636 L -2.09607,-11.8635 L -2.10254,-11.7311
 L -2.10254,-11.731 L -2.10908,-11.5955 L -2.10908,-11.5954 L -2.11567,-11.4571 L -2.11567,-11.457 L -2.12231,-11.3157
 L -2.12231,-11.3156 L -2.12899,-11.1715 L -2.12899,-11.1714 L -2.1357,-11.0245 L -2.1357,-11.0244 L -2.14243,-10.8747
 L -2.14243,-10.8746 L -2.14918,-10.7223 L -2.14918,-10.7222 L -2.15594,-10.5673 L -2.15605,-10.5579 L -2.15012,-10.25
 L -2.14823,-10.229 L -2.10481,-9.95984 L -2.09911,-9.93654 L -2.02227,-9.7047 L -2.01178,-9.68043 L -1.90563,-9.48451
 L -1.89007,-9.46126 L -1.75869,-9.29987 L -1.73889,-9.27976 L -1.58637,-9.15151 L -1.56402,-9.13595 L -1.39444,-9.03944
 L -1.37136,-9.02878 L -1.18881,-8.96262 L -1.16631,-8.9564 L -0.974879,-8.91919 L -0.953625,-8.91661 L -0.757394,-8.90697
 L -0.73749,-8.90731 L -0.540549,-8.92383 L -0.521792,-8.92661 L -0.32823,-8.9679 L -0.310287,-8.97291 L -0.12419,-9.03758
 L -0.106726,-9.04492 L 0.0678181,-9.13157 L 0.0850294,-9.14159 L 0.243934,-9.24884 L 0.260886,-9.26215 L 0.400064,-9.38859
 L 0.416342,-9.40593 L 0.531706,-9.55018 L 0.546304,-9.57214 L 0.57687,-9.62829 L 0.607495,-9.57203 L 0.622094,-9.55007
 L 0.737458,-9.40582 L 0.753736,-9.38849 L 0.892914,-9.26204 L 0.909865,-9.24873 L 1.06877,-9.14148 L 1.08598,-9.13146
 L 1.26053,-9.04481 L 1.27799,-9.03747 L 1.46409,-8.9728 L 1.48203,-8.96779 L 1.67559,-8.9265 L 1.69435,-8.92372
 L 1.89129,-8.9072 L 1.91119,-8.90686 z
M 1.72889,-9.22188 L 1.55375,-9.25924 L 1.38543,-9.31773 L 1.22833,-9.39573 L 1.08665,-9.49135 L 0.964296,-9.60251
 L 0.86465,-9.7271 L 0.790447,-9.8634 L 0.743955,-10.0106 L 0.7269,-10.177 L 0.7269,-10.3241 L 0.7269,-10.8475
 L 0.7269,-11.0373 L 0.7269,-11.2324 L 0.7269,-11.4316 L 0.7269,-11.8365 L 0.7269,-11.8365 L 0.7269,-12.0397
 L 0.7269,-12.2414 L 0.7269,-12.4403 L 0.7269,-12.6352 L 0.7269,-12.8246 L 0.7269,-13.3465 L 0.7269,-13.4732
 L 0.729977,-13.4732 L 0.738601,-13.4731 L 0.747271,-13.473 L 0.752466,-13.4729 L 0.903904,-13.4667 L 1.0384,-13.4544
 L 1.16048,-13.4368 L 1.2719,-13.4145 L 1.37454,-13.388 L 1.47034,-13.3578 L 1.56125,-13.324 L 1.64914,-13.2869
 L 1.73575,-13.2467 L 1.82269,-13.2034 L 1.91144,-13.1576 L 2.0024,-13.11 L 2.0043,-13.1091 L 2.09729,-13.0613
 L 2.10207,-13.0589 L 2.19786,-13.0119 L 2.20531,-13.0084 L 2.30522,-12.9627 L 2.315,-12.9584 L 2.42036,-12.9147
 L 2.43207,-12.9101 L 2.5442,-12.869 L 2.55734,-12.8645 L 2.67757,-12.8267 L 2.6916,-12.8226 L 2.82126,-12.7886
 L 2.83569,-12.7852 L 2.90271,-12.7711 L 2.90408,-12.7458 L 2.90969,-12.6408 L 2.91541,-12.5325 L 2.92124,-12.421
 L 2.92717,-12.3064 L 2.93318,-12.1888 L 2.93929,-12.068 L 2.94547,-11.9443 L 2.95172,-11.8177 L 2.95803,-11.6882
 L 2.96441,-11.5558 L 2.97083,-11.4207 L 2.97729,-11.2828 L 2.98379,-11.1422 L 2.99032,-10.999 L 2.99688,-10.8533
 L 3.00344,-10.705 L 3.00982,-10.5588 L 3.00418,-10.2662 L 2.96435,-10.0194 L 2.89548,-9.81156 L 2.80234,-9.63966
 L 2.68877,-9.50015 L 2.55756,-9.38981 L 2.41094,-9.30637 L 2.25139,-9.24854 L 2.08197,-9.21562 L 1.90642,-9.20699
 z
M -0.928175,-9.21573 L -1.09759,-9.24865 L -1.25714,-9.30648 L -1.40376,-9.38992 L -1.53497,-9.50026 L -1.64854,-9.63977
 L -1.74168,-9.81167 L -1.81055,-10.0195 L -1.85038,-10.2664 L -1.85602,-10.5589 L -1.84947,-10.7091 L -1.84273,-10.8613
 L -1.83601,-11.0108 L -1.82931,-11.1576 L -1.82264,-11.3017 L -1.81601,-11.4428 L -1.80942,-11.5811 L -1.80289,-11.7165
 L -1.79643,-11.8488 L -1.79003,-11.9781 L -1.7837,-12.1042 L -1.77746,-12.2272 L -1.77132,-12.347 L -1.76527,-12.4635
 L -1.75933,-12.5767 L -1.7535,-12.6865 L -1.74779,-12.7928 L -1.74698,-12.8078 L -1.68385,-12.8122 L -1.66924,-12.8136
 L -1.50761,-12.833 L -1.49246,-12.8352 L -1.34399,-12.8608 L -1.32873,-12.8638 L -1.1919,-12.8947 L -1.17706,-12.8985
 L -1.05037,-12.934 L -1.03656,-12.9382 L -0.918501,-12.9775 L -0.906337,-12.9819 L -0.795406,-13.0242 L -0.785466,-13.0282
 L -0.680153,-13.0728 L -0.672918,-13.0759 L -0.571717,-13.1219 L -0.567548,-13.1239 L -0.468952,-13.1705 L -0.468083,-13.1709
 L -0.371851,-13.2168 L -0.27816,-13.2604 L -0.185838,-13.301 L -0.0931174,-13.3382 L 0.00194253,-13.3716 L 0.101444,-13.4012
 L 0.207599,-13.4264 L 0.322648,-13.4469 L 0.4269,-13.4593 L 0.4269,-13.1818 L 0.4269,-13.0074 L 0.4269,-13.0074
 L 0.4269,-12.8248 L 0.4269,-12.8248 L 0.4269,-12.6354 L 0.4269,-12.2416 L 0.4269,-10.1772 L 0.409845,-10.0107
 L 0.363352,-9.86351 L 0.289149,-9.72721 L 0.189504,-9.60262 L 0.0671509,-9.49146 L -0.0745261,-9.39584 L -0.231631,-9.31784
 L -0.399948,-9.25935 L -0.575092,-9.22199 L -0.752626,-9.20709 z
" stroke="black" fill="lightgray" stroke-width="0.5"/>
</svg>
