<?xml version="1.0" standalone="no"?>
<!DOCTYPE svg PUBLIC "-//W3C//DTD SVG 1.1//EN" "http://www.w3.org/Graphics/SVG/1.1/DTD/svg11.dtd">
<svg width="47mm" height="59mm" viewBox="-23 -27 47 59" xmlns="http://www.w3.org/2000/svg" version="1.1">
<title>OpenSCAD Model</title>
<path d="
M -16.0738,-23.8424 L -16.0457,-23.8881 L -16.0014,-23.9601 L -15.943,-24.0551 L -15.8724,-24.1698 L -15.7918,-24.3008
 L -15.7032,-24.4449 L -15.6087,-24.5987 L -15.5103,-24.7588 L -15.4101,-24.922 L -15.31,-25.0848 L -15.2123,-25.244
 L -15.1189,-25.3963 L -15.0319,-25.5382 L -14.9533,-25.6665 L -14.8853,-25.7778 L -14.8297,-25.8688 L -14.7888,-25.9362
 L -14.7646,-25.9766 L -14.7591,-25.9867 L -14.7963,-26.0362 L -14.8356,-26.084 L -14.877,-26.1298 L -14.9202,-26.1736
 L -14.9654,-26.2153 L -15.0124,-26.255 L -15.0611,-26.2924 L -15.1115,-26.3275 L -15.1634,-26.3602 L -15.2169,-26.3905
 L -15.2719,-26.4182 L -15.3282,-26.4434 L -15.3859,-26.4659 L -15.4448,-26.4856 L -15.5049,-26.5025 L -15.566,-26.5165
 L -15.6283,-26.5275 L -15.6914,-26.5355 L -15.7555,-26.5403 L -15.8204,-26.542 L -15.9289,-26.5374 L -16.035,-26.524
 L -16.1383,-26.5021 L -16.2386,-26.472 L -16.3354,-26.4342 L -16.4284,-26.3889 L -16.5173,-26.3365 L -16.6018,-26.2774
 L -16.6814,-26.2118 L -16.7559,-26.1403 L -16.8249,-26.0631 L -16.8881,-25.9805 L -16.9452,-25.893 L -16.9957,-25.8008
 L -17.0394,-25.7044 L -17.076,-25.604 L -17.1049,-25.5001 L -17.1261,-25.393 L -17.139,-25.283 L -17.1434,-25.1705
 L -17.14,-25.0718 L -17.13,-24.975 L -17.1137,-24.8803 L -17.0912,-24.7879 L -17.0628,-24.6982 L -17.0288,-24.6113
 L -16.9892,-24.5275 L -16.9445,-24.447 L -16.8947,-24.3701 L -16.8402,-24.2969 L -16.7812,-24.2278 L -16.7179,-24.163
 L -16.6504,-24.1027 L -16.5792,-24.0471 L -16.5043,-23.9965 L -16.426,-23.9511 L -16.3446,-23.9112 L -16.2602,-23.8769
 L -16.1732,-23.8486 L -16.0836,-23.8265 z
M 17.8287,-22.8287 L 17.933,-22.8437 L 18.0345,-22.867 L 18.133,-22.8982 L 18.2281,-22.9369 L 18.3194,-22.9828
 L 18.4066,-23.0356 L 18.4894,-23.0949 L 18.5675,-23.1604 L 18.6405,-23.2318 L 18.7082,-23.3086 L 18.7701,-23.3907
 L 18.826,-23.4775 L 18.8754,-23.5689 L 18.9182,-23.6644 L 18.9539,-23.7637 L 18.9823,-23.8665 L 19.003,-23.9724
 L 19.0156,-24.0811 L 19.0199,-24.1923 L 19.0199,-24.1923 L 19.0155,-24.3048 L 19.0026,-24.4148 L 18.9815,-24.5219
 L 18.9525,-24.6258 L 18.9159,-24.7262 L 18.8722,-24.8226 L 18.8217,-24.9148 L 18.7647,-25.0023 L 18.7014,-25.0849
 L 18.6324,-25.1621 L 18.5579,-25.2336 L 18.4783,-25.2992 L 18.3938,-25.3583 L 18.3049,-25.4107 L 18.2119,-25.456
 L 18.1151,-25.4938 L 18.0149,-25.5239 L 17.9115,-25.5458 L 17.8054,-25.5592 L 17.6969,-25.5638 L 17.633,-25.5622
 L 17.5699,-25.5575 L 17.5077,-25.5498 L 17.4464,-25.5391 L 17.3861,-25.5255 L 17.3269,-25.5091 L 17.2688,-25.49
 L 17.2119,-25.4682 L 17.1562,-25.4437 L 17.1019,-25.4168 L 17.049,-25.3874 L 16.9976,-25.3556 L 16.9477,-25.3215
 L 16.8994,-25.2852 L 16.8527,-25.2467 L 16.8078,-25.2061 L 16.7647,-25.1635 L 16.7235,-25.1189 L 16.6842,-25.0725
 L 16.6469,-25.0242 L 16.6411,-25.0225 L 16.6532,-24.9869 L 16.6811,-24.9211 L 16.723,-24.8289 L 16.7769,-24.714
 L 16.8409,-24.5803 L 16.9132,-24.4313 L 16.9917,-24.2709 L 17.0745,-24.1029 L 17.1598,-23.931 L 17.2455,-23.7589
 L 17.3298,-23.5904 L 17.4108,-23.4293 L 17.4865,-23.2793 L 17.5549,-23.1441 L 17.6143,-23.0275 L 17.6626,-22.9333
 L 17.6979,-22.8651 L 17.7183,-22.8269 L 17.7219,-22.8222 z
M -2.94413,-20.9964 L -2.66209,-21.0746 L -2.39688,-21.2026 L -2.1565,-21.3769 L -1.94835,-21.5923 L -1.779,-21.8427
 L -1.65389,-22.1204 L -1.57713,-22.4169 L -1.55126,-22.7231 L -1.57713,-23.0292 L -1.65389,-23.3257 L -1.779,-23.6034
 L -1.94835,-23.8538 L -2.1565,-24.0693 L -2.39688,-24.2435 L -2.66209,-24.3715 L -2.94413,-24.4497 L -3.23298,-24.4759
 L -3.56106,-24.4425 L -3.87535,-24.3438 L -4.16577,-24.1831 L -4.42118,-23.9661 L -4.63153,-23.7008 L -4.78832,-23.3972
 L -4.88509,-23.0669 L -4.91781,-22.7231 L -4.88509,-22.3792 L -4.78832,-22.049 L -4.63153,-21.7453 L -4.42118,-21.48
 L -4.16577,-21.2631 L -3.87535,-21.1024 L -3.56106,-21.0037 L -3.23298,-20.9702 z
M 11.5143,-20.3118 L 11.7963,-20.39 L 12.0615,-20.518 L 12.3019,-20.6922 L 12.51,-20.9077 L 12.6794,-21.1581
 L 12.8045,-21.4358 L 12.8813,-21.7323 L 12.907,-22.0368 L 12.8741,-22.3823 L 12.7774,-22.7125 L 12.6206,-23.0162
 L 12.4102,-23.2815 L 12.1548,-23.4984 L 11.8644,-23.6591 L 11.5501,-23.7578 L 11.2237,-23.7911 L 10.8973,-23.7578
 L 10.583,-23.6591 L 10.2926,-23.4984 L 10.0372,-23.2815 L 9.82687,-23.0162 L 9.67008,-22.7125 L 9.5733,-22.3823
 L 9.54043,-22.0368 L 9.56617,-21.7323 L 9.64293,-21.4358 L 9.76804,-21.1581 L 9.93739,-20.9077 L 10.1455,-20.6922
 L 10.3859,-20.518 L 10.6511,-20.39 L 10.9332,-20.3118 L 11.2237,-20.2854 z
M 3.81617,-12.9888 L 3.88371,-12.9897 L 3.95307,-12.9914 L 4.0243,-12.994 L 4.09743,-12.9974 L 4.1725,-13.0017
 L 4.24956,-13.0068 L 4.42625,-13.0312 L 4.59085,-13.077 L 4.74294,-13.1428 L 4.88209,-13.2269 L 5.00788,-13.3278
 L 5.11987,-13.444 L 5.21765,-13.5739 L 5.30078,-13.7159 L 5.36884,-13.8685 L 5.42141,-14.0301 L 5.45805,-14.1991
 L 5.47834,-14.3741 L 5.48186,-14.5534 L 5.46817,-14.7355 L 5.43686,-14.9188 L 5.38749,-15.1019 L 5.31964,-15.283
 L 5.23288,-15.4607 L 5.12679,-15.6334 L 5.00094,-15.7996 L 4.93091,-15.8804 L 4.85928,-15.9576 L 4.78596,-16.0312
 L 4.71088,-16.1013 L 4.63393,-16.1679 L 4.55505,-16.2311 L 4.47415,-16.2911 L 4.39113,-16.3478 L 4.30593,-16.4014
 L 4.21846,-16.4519 L 4.12862,-16.4994 L 4.03635,-16.5441 L 3.94155,-16.5859 L 3.84414,-16.625 L 3.74404,-16.6614
 L 3.64116,-16.6952 L 3.53542,-16.7265 L 3.42674,-16.7553 L 3.31502,-16.7818 L 3.2002,-16.806 L 3.13461,-16.7251
 L 3.06155,-16.6468 L 2.9813,-16.5713 L 2.89414,-16.4988 L 2.80033,-16.4295 L 2.70015,-16.3634 L 2.59388,-16.3008
 L 2.48177,-16.2418 L 2.36412,-16.1866 L 2.24119,-16.1353 L 2.11325,-16.0882 L 1.98058,-16.0453 L 1.84346,-16.0069
 L 1.70214,-15.973 L 1.55692,-15.944 L 1.40805,-15.9198 L 1.25582,-15.9007 L 1.10049,-15.8869 L 0.942343,-15.8785
 L 0.781648,-15.8757 L 0.614594,-15.8787 L 0.450306,-15.8878 L 0.28909,-15.9027 L 0.131255,-15.9233 L -0.0228919,-15.9494
 L -0.173044,-15.9807 L -0.318894,-16.0171 L -0.460135,-16.0585 L -0.596459,-16.1046 L -0.727558,-16.1552 L -0.853127,-16.2103
 L -0.972856,-16.2695 L -1.08644,-16.3327 L -1.19357,-16.3998 L -1.29394,-16.4705 L -1.38724,-16.5446 L -1.47317,-16.6221
 L -1.55141,-16.7026 L -1.62167,-16.786 L -1.68363,-16.8722 L -1.79101,-16.851 L -1.89573,-16.8276 L -1.99786,-16.8019
 L -2.09747,-16.7739 L -2.19463,-16.7434 L -2.28943,-16.7105 L -2.38192,-16.675 L -2.47219,-16.6369 L -2.56031,-16.5961
 L -2.64634,-16.5526 L -2.73037,-16.5062 L -2.81246,-16.457 L -2.89268,-16.4048 L -2.97112,-16.3496 L -3.04784,-16.2914
 L -3.12292,-16.2299 L -3.19643,-16.1653 L -3.26843,-16.0974 L -3.33901,-16.0262 L -3.40824,-15.9515 L -3.40824,-15.9515
 L -3.53964,-15.79 L -3.65152,-15.6212 L -3.74423,-15.4468 L -3.81817,-15.2682 L -3.8737,-15.0871 L -3.91119,-14.905
 L -3.93102,-14.7235 L -3.93356,-14.5441 L -3.91919,-14.3685 L -3.88827,-14.1983 L -3.84119,-14.0349 L -3.77832,-13.8799
 L -3.70002,-13.735 L -3.60668,-13.6017 L -3.49867,-13.4816 L -3.37635,-13.3762 L -3.24011,-13.2871 L -3.09032,-13.2159
 L -2.92735,-13.1641 L -2.75158,-13.1334 L -2.70059,-13.1281 L -2.65046,-13.1231 L -2.60117,-13.1186 L -2.55272,-13.1145
 L -2.5051,-13.1108 L -2.45828,-13.1074 L -2.41226,-13.1045 L -2.36703,-13.102 L -2.32258,-13.0998 L -2.27888,-13.098
 L -2.23594,-13.0966 L -2.19374,-13.0955 L -2.15226,-13.0948 L -2.11149,-13.0944 L -2.07143,-13.0944 L -2.03206,-13.0947
 L -1.99337,-13.0953 L -1.95534,-13.0963 L -1.91797,-13.0975 L -1.88124,-13.0991 L -1.70495,-13.1115 L -1.54333,-13.1309
 L -1.39485,-13.1564 L -1.25803,-13.1873 L -1.13134,-13.2229 L -1.01328,-13.2622 L -0.902349,-13.3045 L -0.797037,-13.349
 L -0.695836,-13.395 L -0.597241,-13.4417 L -0.499744,-13.4882 L -0.401839,-13.5338 L -0.302019,-13.5776 L -0.198778,-13.619
 L -0.0906083,-13.6571 L 0.0239964,-13.6911 L 0.146543,-13.7203 L 0.278538,-13.7438 L 0.421488,-13.7608 L 0.5769,-13.7707
 L 0.585733,-13.771 L 0.594596,-13.7713 L 0.603488,-13.7716 L 0.612412,-13.7718 L 0.621369,-13.7721 L 0.630362,-13.7723
 L 0.639391,-13.7725 L 0.648458,-13.7727 L 0.657566,-13.7728 L 0.666715,-13.773 L 0.675907,-13.7731 L 0.685145,-13.7732
 L 0.694429,-13.7732 L 0.703761,-13.7733 L 0.713143,-13.7733 L 0.722576,-13.7732 L 0.732063,-13.7732 L 0.741604,-13.7731
 L 0.751202,-13.773 L 0.760858,-13.7729 L 0.923707,-13.7661 L 1.07344,-13.7525 L 1.21139,-13.7326 L 1.33888,-13.7071
 L 1.45724,-13.6765 L 1.56778,-13.6416 L 1.67184,-13.603 L 1.77074,-13.5612 L 1.86581,-13.517 L 1.95837,-13.471
 L 2.04976,-13.4238 L 2.14128,-13.376 L 2.23428,-13.3282 L 2.33007,-13.2812 L 2.42998,-13.2355 L 2.53534,-13.1918
 L 2.64747,-13.1507 L 2.76771,-13.1128 L 2.89736,-13.0788 L 3.03777,-13.0493 L 3.08431,-13.0411 L 3.13207,-13.0333
 L 3.1811,-13.0261 L 3.23144,-13.0195 L 3.28313,-13.0135 L 3.33621,-13.008 L 3.39073,-13.0032 L 3.44673,-12.9991
 L 3.50426,-12.9956 L 3.56334,-12.9928 L 3.62403,-12.9907 L 3.68637,-12.9893 L 3.7504,-12.9886 z
M -20.8277,3.41344 L -20.77,3.41231 L -20.7673,3.41223 L -20.7628,3.41206 L -20.7601,3.41193 L -20.7198,3.40969
 L -20.7171,3.40952 L -20.7126,3.40918 L -20.7099,3.40896 L -20.6463,3.40309 L -20.6438,3.40285 L -20.6397,3.4024
 L -20.6372,3.40211 L -20.6007,3.39753 L -20.5983,3.3972 L -20.5942,3.39662 L -20.5918,3.39626 L -20.5218,3.38512
 L -20.5196,3.38475 L -20.5159,3.38411 L -20.5137,3.38371 L -20.4811,3.37751 L -20.4789,3.37708 L -20.4752,3.37633
 L -20.473,3.37586 L -20.3967,3.359 L -20.3948,3.35856 L -20.3915,3.35779 L -20.3896,3.35732 L -20.3607,3.35012
 L -20.3587,3.34963 L -20.3555,3.34878 L -20.3536,3.34825 L -20.2711,3.32535 L -20.2694,3.32486 L -20.2665,3.32403
 L -20.2648,3.32352 L -20.2395,3.31583 L -20.2378,3.31531 L -20.2349,3.31441 L -20.2332,3.31386 L -20.1448,3.28472
 L -20.1433,3.28422 L -20.1408,3.28338 L -20.1394,3.28286 L -20.1173,3.27506 L -20.1158,3.27453 L -20.1133,3.27363
 L -20.1118,3.27308 L -20.0178,3.23765 L -20.0165,3.23716 L -20.0144,3.23632 L -20.0131,3.23582 L -19.9939,3.22819
 L -19.9927,3.22768 L -19.9905,3.2268 L -19.9892,3.22627 L -19.89,3.18461 L -19.8888,3.18413 L -19.887,3.18333
 L -19.8859,3.18285 L -19.8694,3.1756 L -19.8683,3.17511 L -19.8664,3.17428 L -19.8653,3.17378 L -19.7617,3.12631
 L -19.7607,3.12583 L -19.759,3.12503 L -19.7579,3.12454 L -19.7427,3.11727 L -19.7416,3.11678 L -19.7399,3.11595
 L -19.7389,3.11545 L -19.6915,3.09193 L -19.6905,3.09145 L -19.6889,3.09064 L -19.6879,3.09015 L -19.6737,3.08285
 L -19.6728,3.08235 L -19.6712,3.08152 L -19.6702,3.08102 L -19.6203,3.05449 L -19.6194,3.05403 L -19.618,3.05325
 L -19.6171,3.05278 L -19.6044,3.04576 L -19.6035,3.04529 L -19.6021,3.04449 L -19.6012,3.04401 L -19.5488,3.01435
 L -19.548,3.0139 L -19.5467,3.01316 L -19.5459,3.01271 L -19.5344,3.00601 L -19.5336,3.00556 L -19.5323,3.0048
 L -19.5316,3.00434 L -19.4768,2.97161 L -19.4761,2.97119 L -19.475,2.97048 L -19.4743,2.97006 L -19.4639,2.96369
 L -19.4632,2.96326 L -19.462,2.96254 L -19.4613,2.9621 L -19.4044,2.92639 L -19.4038,2.92599 L -19.4027,2.92532
 L -19.4021,2.92491 L -19.3927,2.91888 L -19.3921,2.91848 L -19.391,2.91779 L -19.3904,2.91738 L -19.3315,2.87877
 L -19.331,2.87839 L -19.33,2.87776 L -19.3294,2.87738 L -19.3209,2.87169 L -19.3204,2.8713 L -19.3194,2.87066
 L -19.3188,2.87027 L -19.2582,2.82886 L -19.2577,2.8285 L -19.2568,2.82791 L -19.2563,2.82755 L -19.2486,2.82219
 L -19.248,2.82182 L -19.2472,2.82122 L -19.2467,2.82085 L -19.1843,2.77674 L -19.1839,2.77641 L -19.1831,2.77585
 L -19.1826,2.77551 L -19.1756,2.77047 L -19.1751,2.77013 L -19.1743,2.76956 L -19.1739,2.76922 L -19.11,2.72251
 L -19.1096,2.7222 L -19.1089,2.72167 L -19.1084,2.72135 L -19.1021,2.71663 L -19.1016,2.71631 L -19.1009,2.71578
 L -19.1005,2.71546 L -19.0352,2.66626 L -19.0348,2.66596 L -19.0341,2.66547 L -19.0337,2.66517 L -19.0279,2.66075
 L -19.0276,2.66045 L -19.0269,2.65995 L -19.0265,2.65965 L -19.0098,2.64668 L -18.9872,2.63354 L -18.9031,2.5983
 L -18.8518,2.59133 L -18.8006,2.59786 L -18.7527,2.61747 L -18.7242,2.63914 L -18.6891,2.68952 L -18.647,2.82729
 L -18.6308,2.86288 L -18.6076,2.90007 L -18.5512,2.95274 L -18.5303,2.96383 L -18.4551,2.98122 L -18.4315,2.9804
 L -18.3577,2.95786 L -18.3431,2.94876 L -18.2854,2.88161 L -18.2607,2.82466 L -18.2487,2.77509 L -18.1899,1.88312
 L -18.1899,1.88307 L -18.1882,1.85876 L -18.1882,1.85875 L -18.1882,1.85875 L -18.1866,1.83435 L -18.1866,1.83434
 L -18.185,1.80992 L -18.185,1.80991 L -18.1834,1.78547 L -18.1834,1.78547 L -18.1834,1.78547 L -18.1817,1.761
 L -18.1817,1.761 L -18.1801,1.73652 L -18.1801,1.73651 L -18.1801,1.73651 L -18.1801,1.73651 L -18.1785,1.71201
 L -18.1785,1.712 L -18.1768,1.68747 L -18.1768,1.68747 L -18.1752,1.66292 L -18.1752,1.66292 L -18.1752,1.66292
 L -18.1736,1.63834 L -18.1736,1.63834 L -18.1736,1.63834 L -18.1736,1.63834 L -18.1719,1.61373 L -18.1719,1.61373
 L -18.1719,1.61373 L -18.1719,1.61373 L -18.1703,1.5891 L -18.1703,1.5891 L -18.1703,1.5891 L -18.1703,1.5891
 L -18.1686,1.56444 L -18.1686,1.56444 L -18.167,1.53976 L -18.167,1.53976 L -18.1653,1.51504 L -18.1653,1.51504
 L -18.1653,1.51504 L -18.1653,1.51504 L -18.1637,1.4903 L -18.1637,1.4903 L -18.1637,1.4903 L -18.162,1.46552
 L -18.162,1.46552 L -18.1603,1.44072 L -18.1603,1.44071 L -18.1587,1.41588 L -18.1587,1.41587 L -18.1587,1.41587
 L -18.157,1.39101 L -18.157,1.39099 L -18.157,1.39095 L -18.157,1.39093 L -18.1479,1.25394 L -18.1479,1.25387
 L -18.1479,1.25374 L -18.1479,1.25366 L -18.139,1.11825 L -18.139,1.11817 L -18.1389,1.11804 L -18.1389,1.11797
 L -18.1303,0.984068 L -18.1303,0.983991 L -18.1303,0.983862 L -18.1303,0.983785 L -18.1218,0.851381 L -18.1218,0.851303
 L -18.1218,0.851173 L -18.1218,0.851095 L -18.1136,0.720164 L -18.1136,0.720085 L -18.1136,0.719953 L -18.1136,0.719874
 L -18.1056,0.590393 L -18.1056,0.590313 L -18.1056,0.59018 L -18.1056,0.5901 L -18.0979,0.462046 L -18.0979,0.461965
 L -18.0979,0.46183 L -18.0979,0.46175 L -18.0903,0.3351 L -18.0903,0.335018 L -18.0903,0.334882 L -18.0903,0.3348
 L -18.083,0.209531 L -18.083,0.209449 L -18.083,0.209311 L -18.083,0.209228 L -18.0759,0.0853178 L -18.0759,0.0852343
 L -18.0759,0.0850952 L -18.0759,0.0850118 L -18.069,-0.0375636 L -18.069,-0.0376478 L -18.069,-0.0377883 L -18.069,-0.0378726
 L -18.0624,-0.159136 L -18.0624,-0.159221 L -18.0624,-0.159362 L -18.0623,-0.159448 L -18.0559,-0.279421 L -18.0559,-0.279507
 L -18.0559,-0.27965 L -18.0559,-0.279736 L -18.0496,-0.398443 L -18.0496,-0.39853 L -18.0496,-0.398674 L -18.0496,-0.398761
 L -18.0436,-0.516224 L -18.0436,-0.516312 L -18.0436,-0.516457 L -18.0436,-0.516545 L -18.0377,-0.632788 L -18.0377,-0.632876
 L -18.0377,-0.633022 L -18.0377,-0.63311 L -18.032,-0.748156 L -18.032,-0.748244 L -18.032,-0.748392 L -18.032,-0.748481
 L -18.0266,-0.862352 L -18.0266,-0.862441 L -18.0266,-0.86259 L -18.0265,-0.862679 L -18.0213,-0.975398 L -18.0213,-0.975488
 L -18.0213,-0.975638 L -18.0213,-0.975728 L -18.0162,-1.08721 L -18.0162,-1.08751 L -18.0162,-1.08802 L -18.0161,-1.08832
 L -18.0052,-1.35225 L -18.0087,-1.39119 L -18.0183,-1.43398 L -18.0541,-1.50238 L -18.07,-1.51975 L -18.1352,-1.56108
 L -18.1578,-1.56813 L -18.2349,-1.57133 L -18.2579,-1.56617 L -18.3263,-1.53038 L -18.3512,-1.50747 L -18.3856,-1.46035
 L -18.3909,-1.44888 L -18.398,-1.43058 L -18.4226,-1.352 L -18.4503,-1.30828 L -18.5008,-1.26179 L -18.536,-1.24081
 L -18.5716,-1.22858 L -18.5861,-1.22476 L -18.6474,-1.21358 L -18.6478,-1.21351 L -18.6485,-1.21337 L -18.649,-1.21329
 L -18.6553,-1.2121 L -18.6557,-1.21202 L -18.6565,-1.21188 L -18.6569,-1.2118 L -18.8515,-1.17395 L -18.8519,-1.17386
 L -18.8526,-1.17372 L -18.8531,-1.17363 L -18.8595,-1.17235 L -18.8599,-1.17226 L -18.8606,-1.17211 L -18.8611,-1.17202
 L -19.0557,-1.13178 L -19.0562,-1.13169 L -19.0569,-1.13154 L -19.0573,-1.13144 L -19.0639,-1.13005 L -19.0643,-1.12995
 L -19.065,-1.12979 L -19.0655,-1.1297 L -19.2595,-1.08715 L -19.26,-1.08705 L -19.2607,-1.08688 L -19.2612,-1.08678
 L -19.2679,-1.08526 L -19.2684,-1.08515 L -19.2691,-1.08498 L -19.2696,-1.08488 L -19.4624,-1.0401 L -19.4628,-1.03999
 L -19.4636,-1.0398 L -19.4641,-1.03969 L -19.471,-1.03803 L -19.4715,-1.03791 L -19.4723,-1.03772 L -19.4728,-1.03761
 L -19.6636,-0.990687 L -19.6641,-0.990566 L -19.6649,-0.990363 L -19.6654,-0.990241 L -19.6727,-0.988405 L -19.6731,-0.988281
 L -19.674,-0.988073 L -19.6744,-0.987947 L -19.8627,-0.938976 L -19.8632,-0.938842 L -19.864,-0.938617 L -19.8646,-0.938481
 L -19.8722,-0.936443 L -19.8727,-0.936305 L -19.8735,-0.936073 L -19.874,-0.935933 L -20.059,-0.885017 L -20.0595,-0.884867
 L -20.0604,-0.884615 L -20.061,-0.884462 L -20.069,-0.882183 L -20.0696,-0.882029 L -20.0705,-0.88177 L -20.071,-0.881614
 L -20.252,-0.828862 L -20.2526,-0.828692 L -20.2535,-0.828408 L -20.2541,-0.828237 L -20.2626,-0.825669 L -20.2632,-0.825495
 L -20.2642,-0.825204 L -20.2648,-0.825028 L -20.441,-0.770562 L -20.4417,-0.770369 L -20.4427,-0.770047 L -20.4433,-0.769852
 L -20.4525,-0.766937 L -20.4531,-0.766739 L -20.4541,-0.766408 L -20.4547,-0.766208 L -20.6256,-0.710166 L -20.6263,-0.709946
 L -20.6274,-0.709577 L -20.628,-0.709354 L -20.6379,-0.706016 L -20.6386,-0.70579 L -20.6397,-0.705411 L -20.6403,-0.705182
 L -20.8051,-0.64772 L -20.8058,-0.647467 L -20.807,-0.647041 L -20.8077,-0.646783 L -20.8184,-0.64293 L -20.8192,-0.642669
 L -20.8204,-0.64223 L -20.8211,-0.641966 L -20.9789,-0.583269 L -20.9797,-0.582974 L -20.981,-0.582478 L -20.9818,-0.582178
 L -20.9935,-0.577687 L -20.9943,-0.577383 L -20.9956,-0.576872 L -20.9964,-0.576563 L -21.1466,-0.516852 L -21.1474,-0.516504
 L -21.1489,-0.515921 L -21.1497,-0.515568 L -21.1626,-0.510284 L -21.1634,-0.509926 L -21.1649,-0.509324 L -21.1657,-0.508961
 L -21.3074,-0.448501 L -21.3084,-0.448089 L -21.31,-0.447395 L -21.3109,-0.446976 L -21.3251,-0.440694 L -21.3261,-0.440268
 L -21.3276,-0.439553 L -21.3286,-0.43912 L -21.4609,-0.378246 L -21.462,-0.37775 L -21.4638,-0.376917 L -21.4648,-0.376414
 L -21.4806,-0.368863 L -21.4817,-0.368351 L -21.4834,-0.36749 L -21.4845,-0.36697 L -21.6066,-0.306103 L -21.6078,-0.305502
 L -21.6097,-0.30449 L -21.6109,-0.303877 L -21.6286,-0.294695 L -21.6297,-0.294072 L -21.6317,-0.293025 L -21.6329,-0.292392
 L -21.7438,-0.232081 L -21.7451,-0.231341 L -21.7474,-0.230097 L -21.7487,-0.229343 L -21.7685,-0.21804 L -21.7698,-0.217273
 L -21.772,-0.215983 L -21.7734,-0.215202 L -21.8599,-0.163423 L -21.8629,-0.161632 L -21.8677,-0.158591 L -21.8706,-0.156733
 L -21.913,-0.128645 L -21.9158,-0.126722 L -21.9205,-0.123464 L -21.9233,-0.121477 L -21.9737,-0.0847268 L -21.9777,-0.0816803
 L -21.9843,-0.0764917 L -21.9883,-0.0733111 L -22.0458,-0.025106 L -22.0496,-0.021795 L -22.0558,-0.0161719 L -22.0595,-0.0127342
 L -22.095,0.0213266 L -22.0984,0.0246955 L -22.104,0.0303986 L -22.1073,0.0338743 L -22.1553,0.0862643 L -22.1585,0.0898431
 L -22.1637,0.0958899 L -22.1667,0.0995682 L -22.201,0.142117 L -22.2037,0.145615 L -22.2082,0.15151 L -22.2108,0.155087
 L -22.2491,0.208793 L -22.2516,0.212446 L -22.2557,0.218595 L -22.2581,0.222322 L -22.2912,0.275111 L -22.2933,0.278582
 L -22.2968,0.284412 L -22.2988,0.287939 L -22.328,0.340729 L -22.3299,0.344309 L -22.333,0.350317 L -22.3348,0.353948
 L -22.3658,0.417852 L -22.3674,0.421193 L -22.3699,0.426791 L -22.3714,0.430169 L -22.3929,0.480627 L -22.3943,0.484041
 L -22.3966,0.489758 L -22.3979,0.493205 L -22.4255,0.568186 L -22.4266,0.571342 L -22.4284,0.576623 L -22.4295,0.579803
 L -22.4446,0.627235 L -22.4456,0.630439 L -22.4471,0.635795 L -22.4481,0.639019 L -22.4711,0.724303 L -22.4718,0.727259
 L -22.4731,0.732197 L -22.4738,0.735167 L -22.4838,0.779411 L -22.4844,0.782395 L -22.4855,0.787379 L -22.4861,0.790375
 L -22.5034,0.884689 L -22.5039,0.887451 L -22.5047,0.892061 L -22.5051,0.894831 L -22.5111,0.936062 L -22.5115,0.93884
 L -22.5121,0.943475 L -22.5124,0.94626 L -22.5234,1.04803 L -22.5236,1.05062 L -22.524,1.05494 L -22.5242,1.05753
 L -22.5271,1.09611 L -22.5272,1.09871 L -22.5275,1.10304 L -22.5276,1.10564 L -22.5317,1.21313 L -22.5318,1.21558
 L -22.5318,1.21966 L -22.5319,1.22211 L -22.5321,1.25849 L -22.5321,1.26094 L -22.532,1.26502 L -22.532,1.26747
 L -22.5289,1.37888 L -22.5289,1.38122 L -22.5287,1.38511 L -22.5286,1.38744 L -22.5265,1.42212 L -22.5264,1.42445
 L -22.5261,1.42834 L -22.5259,1.43067 L -22.5157,1.54418 L -22.5155,1.54644 L -22.5151,1.5502 L -22.5148,1.55245
 L -22.5108,1.58592 L -22.5105,1.58817 L -22.51,1.59191 L -22.5097,1.59416 L -22.4925,1.70795 L -22.4921,1.71016
 L -22.4915,1.71385 L -22.4911,1.71605 L -22.4852,1.7488 L -22.4848,1.751 L -22.484,1.75466 L -22.4836,1.75685
 L -22.4597,1.86912 L -22.4592,1.87131 L -22.4584,1.87497 L -22.4579,1.87716 L -22.4499,1.90966 L -22.4494,1.91184
 L -22.4484,1.91547 L -22.4478,1.91764 L -22.446,1.92433 L -22.4138,1.97913 L -22.3703,2.00375 L -22.3166,2.00332
 L -22.278,1.98426 L -22.268,1.97664 L -22.266,1.97513 L -22.2204,1.93923 L -22.2189,1.93804 L -22.1726,1.90074
 L -22.1716,1.89988 L -22.1244,1.86117 L -22.1238,1.86067 L -22.0755,1.82056 L -22.0753,1.82041 L -22.0257,1.77908
 L -22.0256,1.77896 L -21.9747,1.73671 L -21.9743,1.73639 L -21.9219,1.69335 L -21.9213,1.69285 L -21.8671,1.64903
 L -21.8663,1.64838 L -21.8099,1.60378 L -21.8089,1.603 L -21.7501,1.55762 L -21.7489,1.55674 L -21.6872,1.51059
 L -21.686,1.50964 L -21.6211,1.46271 L -21.6197,1.46171 L -21.5513,1.41401 L -21.5498,1.41299 L -21.4775,1.36453
 L -21.476,1.36349 L -21.3995,1.31428 L -21.3979,1.31326 L -21.3169,1.2633 L -21.3153,1.2623 L -21.2294,1.2116
 L -21.2277,1.21063 L -21.1367,1.15921 L -21.135,1.15828 L -21.0393,1.10664 L -21.0339,1.10392 L -21.0155,1.09541
 L -21.0071,1.09198 L -20.9888,1.08542 L -20.9801,1.08276 L -20.9612,1.07789 L -20.9524,1.07602 L -20.9331,1.07288
 L -20.9241,1.07183 L -20.9057,1.07052 L -20.8931,1.07042 L -20.8843,1.07091 L -20.8832,1.0709 L -20.8582,1.07218
 L -20.8424,1.07425 L -20.8091,1.08139 L -20.7938,1.08594 L -20.762,1.09828 L -20.7476,1.10519 L -20.7182,1.12243
 L -20.7051,1.13152 L -20.6787,1.15321 L -20.6673,1.16426 L -20.6447,1.18986 L -20.6352,1.20259 L -20.6171,1.23107
 L -20.6091,1.24677 L -20.593,1.28605 L -20.5875,1.30479 L -20.5795,1.34597 L -20.5776,1.36543 L -20.5778,1.40738
 L -20.5798,1.42683 L -20.5882,1.46793 L -20.5939,1.48662 L -20.6101,1.52532 L -20.6194,1.54253 L -20.6428,1.57734
 L -20.6552,1.59242 L -20.6849,1.62202 L -20.7001,1.63439 L -20.7371,1.65907 L -20.7451,1.66384 L -20.8302,1.70971
 L -20.8326,1.71107 L -20.9125,1.75613 L -20.9151,1.75758 L -20.9898,1.80167 L -20.9924,1.80319 L -21.0625,1.8464
 L -21.065,1.84798 L -21.1308,1.8904 L -21.1333,1.89201 L -21.1954,1.93376 L -21.1978,1.93536 L -21.2567,1.97655
 L -21.2588,1.9781 L -21.3149,2.01885 L -21.3169,2.02032 L -21.3707,2.06077 L -21.3725,2.0621 L -21.4244,2.10237
 L -21.4259,2.10352 L -21.4765,2.14374 L -21.4776,2.14466 L -21.5273,2.18496 L -21.5281,2.18561 L -21.5773,2.22611
 L -21.5778,2.22646 L -21.627,2.26725 L -21.627,2.26728 L -21.6764,2.30821 L -21.6766,2.30839 L -21.7262,2.34926
 L -21.7266,2.34965 L -21.7768,2.39051 L -21.7775,2.39108 L -21.8287,2.432 L -21.8297,2.43275 L -21.8824,2.47381
 L -21.8835,2.47468 L -21.9366,2.51487 L -21.944,2.51997 L -21.9777,2.541 L -21.9934,2.54894 L -22.0202,2.55972
 L -22.0742,2.59667 L -22.0958,2.6417 L -22.0914,2.69794 L -22.0785,2.72299 L -22.0772,2.72478 L -22.0756,2.727
 L -22.0729,2.73069 L -22.0712,2.73288 L -22.0464,2.76528 L -22.0447,2.76745 L -22.0419,2.77103 L -22.0402,2.77316
 L -21.981,2.84487 L -21.9794,2.84674 L -21.9767,2.84985 L -21.9751,2.8517 L -21.9511,2.879 L -21.9494,2.88082
 L -21.9467,2.88384 L -21.945,2.88563 L -21.8861,2.94826 L -21.8842,2.95018 L -21.8811,2.95337 L -21.8792,2.95527
 L -21.851,2.98319 L -21.8491,2.98506 L -21.8458,2.98813 L -21.8439,2.98996 L -21.7883,3.04112 L -21.7862,3.04306
 L -21.7826,3.04625 L -21.7804,3.04814 L -21.7477,3.07597 L -21.7455,3.07782 L -21.7418,3.08087 L -21.7395,3.08268
 L -21.6875,3.12366 L -21.6851,3.12554 L -21.681,3.12863 L -21.6785,3.13046 L -21.6414,3.1573 L -21.6389,3.15908
 L -21.6347,3.162 L -21.6321,3.16373 L -21.5834,3.19596 L -21.5807,3.19772 L -21.5762,3.20061 L -21.5734,3.20231
 L -21.5322,3.22713 L -21.5294,3.22877 L -21.5247,3.23145 L -21.5219,3.23303 L -21.4759,3.25804 L -21.473,3.2596
 L -21.468,3.26216 L -21.465,3.26366 L -21.4204,3.28546 L -21.4173,3.2869 L -21.4123,3.28923 L -21.4092,3.29059
 L -21.365,3.30978 L -21.3619,3.3111 L -21.3566,3.31323 L -21.3535,3.31447 L -21.3064,3.33241 L -21.3033,3.33358
 L -21.2979,3.33547 L -21.2947,3.33657 L -21.2508,3.35108 L -21.2476,3.3521 L -21.2422,3.35374 L -21.239,3.35468
 L -21.1909,3.36822 L -21.1876,3.36909 L -21.1822,3.37049 L -21.1789,3.37129 L -21.1337,3.38185 L -21.1305,3.38256
 L -21.1252,3.38368 L -21.122,3.38432 L -21.0742,3.3933 L -21.0709,3.39387 L -21.0655,3.39476 L -21.0623,3.39526
 L -21.0142,3.40214 L -21.0111,3.40255 L -21.0059,3.40318 L -21.0028,3.40352 L -20.9566,3.40818 L -20.9535,3.40846
 L -20.9483,3.40887 L -20.9452,3.40909 L -20.8928,3.41216 L -20.8899,3.41231 L -20.885,3.4125 L -20.882,3.41258
 L -20.8385,3.41344 L -20.8355,3.41346 L -20.8307,3.41346 z
M 21.5103,3.90264 L 21.5132,3.90261 L 21.5568,3.90175 L 21.5597,3.90167 L 21.5646,3.90148 L 21.5675,3.90133
 L 21.6199,3.89825 L 21.623,3.89803 L 21.6282,3.89762 L 21.6313,3.89734 L 21.6775,3.89268 L 21.6807,3.89234
 L 21.6858,3.89171 L 21.6889,3.89129 L 21.7371,3.88441 L 21.7403,3.88391 L 21.7457,3.88302 L 21.7489,3.88245
 L 21.7967,3.87347 L 21.7999,3.87283 L 21.8052,3.8717 L 21.8084,3.87099 L 21.8537,3.86043 L 21.857,3.85963
 L 21.8624,3.85823 L 21.8656,3.85735 L 21.9138,3.84382 L 21.917,3.84287 L 21.9223,3.84123 L 21.9255,3.84021
 L 21.9695,3.82569 L 21.9727,3.8246 L 21.978,3.8227 L 21.9812,3.82153 L 22.0282,3.8036 L 22.0314,3.80235
 L 22.0366,3.80022 L 22.0397,3.79891 L 22.084,3.77971 L 22.087,3.77834 L 22.0921,3.77601 L 22.0951,3.77458
 L 22.1398,3.75278 L 22.1428,3.75128 L 22.1477,3.74872 L 22.1507,3.74716 L 22.1966,3.72214 L 22.1995,3.72056
 L 22.2041,3.71788 L 22.2069,3.71624 L 22.2482,3.69142 L 22.2509,3.68972 L 22.2555,3.68684 L 22.2582,3.68508
 L 22.3069,3.65283 L 22.3094,3.65111 L 22.3137,3.64818 L 22.3162,3.6464 L 22.3533,3.61957 L 22.3558,3.61774
 L 22.3599,3.61465 L 22.3623,3.61277 L 22.4143,3.57178 L 22.4166,3.56997 L 22.4203,3.56693 L 22.4225,3.56507
 L 22.4552,3.53724 L 22.4574,3.53535 L 22.461,3.53216 L 22.4631,3.53022 L 22.5187,3.47906 L 22.5206,3.47723
 L 22.5238,3.47415 L 22.5258,3.47229 L 22.554,3.44437 L 22.5559,3.44247 L 22.559,3.43928 L 22.5608,3.43735
 L 22.6198,3.37473 L 22.6215,3.37293 L 22.6242,3.36992 L 22.6259,3.36809 L 22.6499,3.34079 L 22.6515,3.33894
 L 22.6542,3.33584 L 22.6558,3.33396 L 22.7149,3.26228 L 22.7167,3.26014 L 22.7195,3.25656 L 22.7212,3.25439
 L 22.746,3.22195 L 22.7477,3.21975 L 22.7504,3.21606 L 22.7506,3.21583 L 22.7726,3.15631 L 22.7643,3.10708
 L 22.7281,3.06351 L 22.7041,3.05095 L 22.6766,3.04107 L 22.659,3.03266 L 22.621,3.00984 L 22.6122,3.0039
 L 22.5594,2.96396 L 22.5583,2.9631 L 22.5056,2.92203 L 22.5047,2.9213 L 22.4534,2.88037 L 22.4527,2.87981
 L 22.4024,2.83895 L 22.402,2.83857 L 22.3523,2.79769 L 22.3521,2.79752 L 22.3026,2.7566 L 22.3026,2.75655
 L 22.2533,2.71577 L 22.2528,2.71542 L 22.2035,2.67493 L 22.2027,2.67427 L 22.1529,2.63397 L 22.1517,2.63306
 L 22.101,2.59283 L 22.0995,2.59168 L 22.0474,2.55141 L 22.0457,2.55008 L 21.9918,2.50962 L 21.9898,2.50817
 L 21.9335,2.4674 L 21.9314,2.46585 L 21.8723,2.42465 L 21.87,2.42306 L 21.8077,2.38129 L 21.8053,2.3797
 L 21.7393,2.33726 L 21.7368,2.3357 L 21.6666,2.29247 L 21.6641,2.29096 L 21.5892,2.24686 L 21.5867,2.24542
 L 21.5067,2.20035 L 21.5043,2.19899 L 21.4192,2.15312 L 21.4112,2.14834 L 21.3742,2.12366 L 21.359,2.11129
 L 21.3293,2.0817 L 21.3169,2.06662 L 21.2935,2.03181 L 21.2842,2.01459 L 21.268,1.97589 L 21.2623,1.95721
 L 21.2539,1.9161 L 21.2519,1.89665 L 21.2517,1.85471 L 21.2536,1.83524 L 21.2615,1.79406 L 21.2671,1.77533
 L 21.2832,1.73602 L 21.2912,1.72041 L 21.3088,1.6925 L 21.3181,1.67999 L 21.3402,1.65479 L 21.3514,1.64389
 L 21.3771,1.62242 L 21.3898,1.61339 L 21.4185,1.59619 L 21.4325,1.58925 L 21.4636,1.57673 L 21.4785,1.57204
 L 21.5111,1.56451 L 21.5265,1.5622 L 21.5556,1.56014 L 21.5639,1.5599 L 21.5721,1.56 L 21.5721,1.56006
 L 21.5781,1.55992 L 21.5927,1.56067 L 21.6021,1.56161 L 21.6223,1.56458 L 21.6316,1.56641 L 21.6514,1.57128
 L 21.6605,1.57398 L 21.6797,1.58071 L 21.6885,1.58426 L 21.7078,1.59311 L 21.7134,1.59595 L 21.8091,1.64755
 L 21.8108,1.64847 L 21.9019,1.6999 L 21.9036,1.70086 L 21.9895,1.75156 L 21.9911,1.75256 L 22.0722,1.80252
 L 22.0738,1.80354 L 22.1504,1.85275 L 22.1519,1.85378 L 22.2243,1.90224 L 22.2258,1.90326 L 22.2943,1.95096
 L 22.2957,1.95195 L 22.3607,1.99888 L 22.362,1.99983 L 22.4238,2.04599 L 22.425,2.04686 L 22.484,2.09224
 L 22.485,2.09302 L 22.5415,2.13762 L 22.5423,2.13827 L 22.5966,2.18209 L 22.5972,2.18259 L 22.6497,2.22563
 L 22.6501,2.22595 L 22.7011,2.2682 L 22.7013,2.26832 L 22.751,2.30965 L 22.7512,2.3098 L 22.7996,2.34992
 L 22.8002,2.35041 L 22.8474,2.38914 L 22.8484,2.38998 L 22.8948,2.42731 L 22.8962,2.42848 L 22.942,2.46441
 L 22.9439,2.4659 L 22.9501,2.47055 L 23.0089,2.49457 L 23.0584,2.48779 L 23.1009,2.45484 L 23.1199,2.41634
 L 23.1226,2.40677 L 23.1231,2.4046 L 23.1241,2.40097 L 23.1246,2.39879 L 23.1326,2.36629 L 23.1331,2.3641
 L 23.1339,2.36045 L 23.1344,2.35825 L 23.1583,2.24599 L 23.1588,2.2438 L 23.1595,2.24014 L 23.1599,2.23794
 L 23.1659,2.2052 L 23.1663,2.20299 L 23.1669,2.19931 L 23.1672,2.1971 L 23.1844,2.08331 L 23.1847,2.08107
 L 23.1852,2.07732 L 23.1855,2.07507 L 23.1896,2.04161 L 23.1898,2.03935 L 23.1902,2.0356 L 23.1904,2.03334
 L 23.2006,1.91983 L 23.2008,1.9175 L 23.2011,1.91362 L 23.2013,1.91129 L 23.2033,1.87661 L 23.2034,1.87428
 L 23.2036,1.87039 L 23.2037,1.86805 L 23.2067,1.75664 L 23.2067,1.75419 L 23.2068,1.75011 L 23.2068,1.74767
 L 23.2066,1.71129 L 23.2066,1.70884 L 23.2065,1.70476 L 23.2064,1.70231 L 23.2023,1.59482 L 23.2022,1.59222
 L 23.2019,1.58789 L 23.2018,1.5853 L 23.199,1.54672 L 23.1988,1.54413 L 23.1984,1.53981 L 23.1981,1.53722
 L 23.1871,1.43545 L 23.1868,1.43266 L 23.1862,1.42803 L 23.1858,1.42525 L 23.1798,1.38403 L 23.1794,1.38126
 L 23.1786,1.37665 L 23.1782,1.37389 L 23.1608,1.27957 L 23.1602,1.27657 L 23.1592,1.27159 L 23.1585,1.2686
 L 23.1485,1.22437 L 23.1478,1.2214 L 23.1466,1.21646 L 23.1458,1.21351 L 23.1228,1.12821 L 23.1219,1.12499
 L 23.1203,1.11963 L 23.1193,1.11643 L 23.1042,1.06901 L 23.1032,1.06583 L 23.1014,1.06055 L 23.1002,1.05739
 L 23.0726,0.982394 L 23.0713,0.978948 L 23.069,0.973232 L 23.0676,0.96982 L 23.0462,0.919373 L 23.0447,0.915996
 L 23.0421,0.910399 L 23.0406,0.907059 L 23.0096,0.843132 L 23.0078,0.839503 L 23.0047,0.833496 L 23.0027,0.829917
 L 22.9735,0.777139 L 22.9715,0.773613 L 22.9681,0.767784 L 22.966,0.764314 L 22.9329,0.711498 L 22.9305,0.707772
 L 22.9264,0.701624 L 22.9238,0.697972 L 22.8856,0.644279 L 22.883,0.640702 L 22.8785,0.634808 L 22.8758,0.631311
 L 22.8415,0.588732 L 22.8384,0.585054 L 22.8333,0.579009 L 22.8301,0.575431 L 22.7821,0.52305 L 22.7788,0.519575
 L 22.7732,0.513873 L 22.7698,0.510504 L 22.7343,0.476413 L 22.7306,0.472975 L 22.7244,0.467353 L 22.7206,0.464042
 L 22.6631,0.415841 L 22.6592,0.41266 L 22.6525,0.407472 L 22.6485,0.404425 L 22.5987,0.368027 L 22.5958,0.365997
 L 22.591,0.36267 L 22.5881,0.360707 L 22.5447,0.332043 L 22.5418,0.330148 L 22.5369,0.327048 L 22.5339,0.325222
 L 22.4383,0.268261 L 22.4368,0.267429 L 22.4345,0.266055 L 22.4331,0.265239 L 22.4118,0.25322 L 22.4104,0.252419
 L 22.408,0.251097 L 22.4066,0.250312 L 22.2852,0.185003 L 22.2839,0.184339 L 22.2818,0.183241 L 22.2806,0.182588
 L 22.2619,0.172973 L 22.2606,0.172332 L 22.2585,0.171274 L 22.2572,0.170645 L 22.1229,0.104794 L 22.1218,0.104256
 L 22.1199,0.103366 L 22.1188,0.102836 L 22.1022,0.0950346 L 22.1011,0.0945144 L 22.0992,0.0936551 L 22.0981,0.0931441
 L 21.952,0.0274102 L 21.951,0.0269678 L 21.9494,0.0262364 L 21.9484,0.0258012 L 21.9336,0.0193851 L 21.9326,0.0189571
 L 21.9309,0.0182498 L 21.9299,0.0178291 L 21.7732,-0.0472872 L 21.7723,-0.0476553 L 21.7708,-0.048264 L 21.7699,-0.0486263
 L 21.7566,-0.0539698 L 21.7557,-0.0543264 L 21.7542,-0.0549158 L 21.7533,-0.0552666 L 21.5871,-0.119376 L 21.5863,-0.119686
 L 21.5849,-0.120199 L 21.5841,-0.120504 L 21.572,-0.125007 L 21.5712,-0.125308 L 21.5699,-0.125805 L 21.569,-0.126101
 L 21.3943,-0.188894 L 21.3936,-0.189158 L 21.3923,-0.189595 L 21.3916,-0.189855 L 21.3806,-0.193691 L 21.3798,-0.193947
 L 21.3786,-0.194371 L 21.3778,-0.194623 L 21.1955,-0.255848 L 21.1949,-0.256075 L 21.1937,-0.25645 L 21.193,-0.256674
 L 21.1829,-0.259977 L 21.1822,-0.260198 L 21.1811,-0.260563 L 21.1804,-0.26078 L 20.9915,-0.320223 L 20.9908,-0.32042
 L 20.9898,-0.320747 L 20.9892,-0.320942 L 20.9797,-0.323813 L 20.9791,-0.324005 L 20.978,-0.324322 L 20.9774,-0.324511
 L 20.7828,-0.381992 L 20.7822,-0.382165 L 20.7812,-0.382451 L 20.7806,-0.382622 L 20.7719,-0.385141 L 20.7713,-0.38531
 L 20.7703,-0.385588 L 20.7697,-0.385754 L 20.5703,-0.441113 L 20.5697,-0.441267 L 20.5688,-0.44152 L 20.5682,-0.441671
 L 20.56,-0.443901 L 20.5594,-0.44405 L 20.5585,-0.444297 L 20.5579,-0.444443 L 20.3546,-0.49754 L 20.3541,-0.497676
 L 20.3532,-0.497903 L 20.3526,-0.498038 L 20.3448,-0.500028 L 20.3443,-0.500161 L 20.3434,-0.500381 L 20.3429,-0.500512
 L 20.1365,-0.551216 L 20.1359,-0.551339 L 20.1351,-0.551543 L 20.1346,-0.551664 L 20.1271,-0.553455 L 20.1266,-0.553575
 L 20.1257,-0.553773 L 20.1252,-0.55389 L 19.9166,-0.602083 L 19.9161,-0.602195 L 19.9153,-0.60238 L 19.9148,-0.60249
 L 19.9076,-0.604114 L 19.9071,-0.604222 L 19.9063,-0.604401 L 19.9058,-0.604508 L 19.6958,-0.650079 L 19.6953,-0.650181
 L 19.6945,-0.65035 L 19.6941,-0.65045 L 19.687,-0.651933 L 19.6865,-0.652032 L 19.6858,-0.652196 L 19.6853,-0.652293
 L 19.4748,-0.695137 L 19.4743,-0.695231 L 19.4735,-0.695387 L 19.4731,-0.695479 L 19.4661,-0.696842 L 19.4657,-0.696933
 L 19.4649,-0.697084 L 19.4644,-0.697173 L 19.2542,-0.737191 L 19.2538,-0.737278 L 19.253,-0.737421 L 19.2525,-0.737507
 L 19.2457,-0.738768 L 19.2452,-0.738852 L 19.2444,-0.738991 L 19.244,-0.739074 L 19.0349,-0.776169 L 19.0345,-0.77625
 L 19.0337,-0.776384 L 19.0332,-0.776464 L 19.0264,-0.777637 L 19.0259,-0.777716 L 19.0251,-0.777845 L 19.0247,-0.777922
 L 18.9733,-0.786387 L 18.9483,-0.793952 L 18.8652,-0.831538 L 18.8252,-0.864356 L 18.7877,-0.916627 L 18.7706,-0.9569
 L 18.7701,-0.959646 L 18.7581,-0.996859 L 18.7393,-1.03648 L 18.6893,-1.09528 L 18.6698,-1.1087 L 18.5971,-1.13462
 L 18.5736,-1.13652 L 18.4977,-1.12261 L 18.4763,-1.1125 L 18.4175,-1.06248 L 18.4001,-1.03728 L 18.3758,-0.977715
 L 18.372,-0.955397 L 18.3698,-0.929716 L 18.3703,-0.657402 L 18.3703,-0.656589 L 18.3703,-0.655233 L 18.3703,-0.654419
 L 18.3709,-0.608402 L 18.3709,-0.608304 L 18.3709,-0.608142 L 18.3709,-0.608045 L 18.3716,-0.561521 L 18.3716,-0.561424
 L 18.3716,-0.561261 L 18.3716,-0.561164 L 18.3723,-0.514492 L 18.3723,-0.514394 L 18.3723,-0.514231 L 18.3723,-0.514133
 L 18.3731,-0.467312 L 18.3731,-0.467213 L 18.3731,-0.46705 L 18.3731,-0.466952 L 18.3739,-0.41998 L 18.3739,-0.419882
 L 18.3739,-0.419718 L 18.3739,-0.41962 L 18.3748,-0.372495 L 18.3748,-0.372397 L 18.3748,-0.372233 L 18.3748,-0.372134
 L 18.3758,-0.324858 L 18.3758,-0.324759 L 18.3758,-0.324594 L 18.3758,-0.324496 L 18.3768,-0.277065 L 18.3768,-0.276966
 L 18.3768,-0.276801 L 18.3768,-0.276703 L 18.3779,-0.229117 L 18.3779,-0.229018 L 18.3779,-0.228853 L 18.378,-0.228754
 L 18.3791,-0.181012 L 18.3791,-0.180912 L 18.3791,-0.180747 L 18.3791,-0.180648 L 18.3804,-0.132749 L 18.3804,-0.132649
 L 18.3804,-0.132484 L 18.3804,-0.132385 L 18.3817,-0.0843272 L 18.3817,-0.0842278 L 18.3817,-0.084062 L 18.3817,-0.0839626
 L 18.3831,-0.0357458 L 18.3831,-0.0356462 L 18.3831,-0.0354802 L 18.3831,-0.0353806 L 18.3845,0.0129965 L 18.3845,0.0130962
 L 18.3845,0.0132624 L 18.3845,0.0133621 L 18.386,0.0619007 L 18.386,0.0620005 L 18.386,0.0621669 L 18.386,0.0622668
 L 18.3876,0.110968 L 18.3876,0.111068 L 18.3876,0.111234 L 18.3876,0.111334 L 18.3893,0.160199 L 18.3893,0.160299
 L 18.3893,0.160466 L 18.3893,0.160566 L 18.391,0.209595 L 18.391,0.209695 L 18.391,0.209862 L 18.391,0.209962
 L 18.3928,0.259157 L 18.3928,0.259258 L 18.3928,0.259425 L 18.3928,0.259525 L 18.3947,0.308918 L 18.3947,0.308955
 L 18.3947,0.309017 L 18.3947,0.309054 L 18.3979,0.39243 L 18.3979,0.392477 L 18.401,0.475819 L 18.401,0.475865
 L 18.4042,0.559224 L 18.4042,0.55927 L 18.4072,0.642645 L 18.4072,0.64269 L 18.4103,0.72608 L 18.4103,0.726125
 L 18.4133,0.809529 L 18.4133,0.809573 L 18.4162,0.892989 L 18.4162,0.893009 L 18.4162,0.893032 L 18.4192,0.97646
 L 18.4192,0.976502 L 18.4221,1.05994 L 18.4221,1.05998 L 18.4249,1.14343 L 18.4249,1.14347 L 18.4277,1.22692
 L 18.4277,1.22695 L 18.4277,1.22696 L 18.4305,1.31042 L 18.4305,1.31047 L 18.4333,1.39393 L 18.4333,1.39397
 L 18.436,1.47744 L 18.436,1.47748 L 18.4387,1.56095 L 18.4387,1.56099 L 18.4413,1.64446 L 18.4413,1.6445
 L 18.444,1.72797 L 18.444,1.72801 L 18.4466,1.81148 L 18.4466,1.81152 L 18.4491,1.89499 L 18.4491,1.89501
 L 18.4491,1.89501 L 18.4491,1.89503 L 18.4517,1.97821 L 18.4517,1.97843 L 18.4759,2.84285 L 18.476,2.84323
 L 18.4765,2.86432 L 18.4825,2.90295 L 18.4949,2.94501 L 18.5351,3.01091 L 18.5522,3.02719 L 18.62,3.06415
 L 18.6429,3.0697 L 18.7201,3.06782 L 18.7327,3.06412 L 18.8108,3.00911 L 18.8538,2.95023 L 18.8783,2.8973
 L 18.893,2.83638 L 18.9178,2.79094 L 18.9534,2.75354 L 18.9976,2.72657 L 19.0306,2.71685 L 19.0928,2.71872
 L 19.2256,2.76666 L 19.257,2.78504 L 19.3121,2.83256 L 19.3124,2.83283 L 19.3129,2.83326 L 19.3132,2.83353
 L 19.3178,2.83741 L 19.3181,2.83767 L 19.3186,2.83811 L 19.3189,2.83837 L 19.4086,2.91416 L 19.4089,2.91445
 L 19.4095,2.91493 L 19.4098,2.91522 L 19.415,2.91949 L 19.4153,2.91977 L 19.4159,2.92025 L 19.4162,2.92054
 L 19.5043,2.99318 L 19.5047,2.9935 L 19.5053,2.99403 L 19.5057,2.99434 L 19.5115,2.99902 L 19.5119,2.99933
 L 19.5125,2.99985 L 19.5129,3.00016 L 19.5992,3.06945 L 19.5997,3.0698 L 19.6004,3.07038 L 19.6008,3.07072
 L 19.6073,3.07582 L 19.6077,3.07617 L 19.6084,3.07674 L 19.6089,3.07708 L 19.6933,3.1428 L 19.6938,3.14318
 L 19.6946,3.1438 L 19.6951,3.14418 L 19.7023,3.14974 L 19.7028,3.15011 L 19.7036,3.15073 L 19.7041,3.1511
 L 19.7864,3.21304 L 19.787,3.21345 L 19.7879,3.21413 L 19.7884,3.21454 L 19.7966,3.22057 L 19.7972,3.22098
 L 19.7981,3.22165 L 19.7986,3.22205 L 19.8786,3.27999 L 19.8792,3.28044 L 19.8803,3.28118 L 19.8809,3.28162
 L 19.8901,3.28816 L 19.8907,3.2886 L 19.8918,3.28933 L 19.8924,3.28976 L 19.9698,3.3435 L 19.9705,3.34398
 L 19.9717,3.34478 L 19.9724,3.34525 L 19.9828,3.35232 L 19.9835,3.35279 L 19.9847,3.35358 L 19.9854,3.35405
 L 20.06,3.40337 L 20.0608,3.40389 L 20.0621,3.40475 L 20.0629,3.40526 L 20.0748,3.41286 L 20.0756,3.41337
 L 20.0769,3.41422 L 20.0777,3.41472 L 20.1492,3.45944 L 20.1501,3.45999 L 20.1516,3.46092 L 20.1525,3.46147
 L 20.1659,3.46961 L 20.1668,3.47015 L 20.1683,3.47105 L 20.1693,3.47159 L 20.2373,3.51152 L 20.2383,3.51212
 L 20.24,3.5131 L 20.2411,3.51369 L 20.2564,3.52235 L 20.2574,3.52293 L 20.2591,3.52388 L 20.2602,3.52445
 L 20.3244,3.55945 L 20.3255,3.56008 L 20.3275,3.56112 L 20.3287,3.56174 L 20.3461,3.57088 L 20.3473,3.57149
 L 20.3493,3.5725 L 20.3505,3.57309 L 20.412,3.60388 L 20.4132,3.60444 L 20.4151,3.60538 L 20.4162,3.60593
 L 20.4333,3.61413 L 20.4345,3.61467 L 20.4364,3.61558 L 20.4376,3.61611 L 20.5401,3.66307 L 20.5412,3.66357
 L 20.543,3.6644 L 20.5441,3.66489 L 20.5607,3.67215 L 20.5618,3.67263 L 20.5636,3.67343 L 20.5647,3.6739
 L 20.664,3.71555 L 20.6653,3.71608 L 20.6674,3.71695 L 20.6687,3.71747 L 20.6879,3.7251 L 20.6891,3.7256
 L 20.6913,3.72644 L 20.6926,3.72693 L 20.7866,3.76234 L 20.7881,3.76289 L 20.7905,3.76379 L 20.792,3.76432
 L 20.8141,3.77212 L 20.8156,3.77264 L 20.8181,3.77349 L 20.8196,3.77399 L 20.908,3.80311 L 20.9097,3.80366
 L 20.9125,3.80456 L 20.9142,3.80508 L 20.9395,3.81277 L 20.9413,3.81328 L 20.9441,3.81411 L 20.9458,3.8146
 L 21.0283,3.83749 L 21.0302,3.83801 L 21.0335,3.83886 L 21.0354,3.83936 L 21.0643,3.84655 L 21.0662,3.84702
 L 21.0695,3.84779 L 21.0714,3.84823 L 21.1477,3.86508 L 21.1499,3.86555 L 21.1536,3.8663 L 21.1558,3.86673
 L 21.1884,3.87292 L 21.1906,3.87333 L 21.1943,3.87397 L 21.1965,3.87433 L 21.2665,3.88546 L 21.2689,3.88583
 L 21.273,3.88641 L 21.2755,3.88674 L 21.312,3.89131 L 21.3144,3.8916 L 21.3185,3.89205 L 21.321,3.89229
 L 21.3847,3.89815 L 21.3874,3.89837 L 21.3919,3.89871 L 21.3946,3.89888 L 21.4348,3.90112 L 21.4375,3.90124
 L 21.442,3.90141 L 21.4447,3.90149 L 21.5025,3.90261 L 21.5054,3.90264 z
M -15.1303,31.5845 L -15.1221,31.5843 L -15.1171,31.5841 L -14.9512,31.574 L -14.9459,31.5736 L -14.9371,31.5727
 L -14.9318,31.5721 L -14.8537,31.5618 L -14.8484,31.561 L -14.8397,31.5595 L -14.8345,31.5586 L -14.6784,31.5265
 L -14.6728,31.5253 L -14.6636,31.523 L -14.6581,31.5216 L -14.577,31.4984 L -14.5716,31.4967 L -14.5626,31.4938
 L -14.5572,31.4919 L -14.4124,31.4384 L -14.4068,31.4362 L -14.3975,31.4324 L -14.392,31.43 L -14.311,31.3924
 L -14.3056,31.3897 L -14.2967,31.3852 L -14.2914,31.3823 L -14.1575,31.3067 L -14.1521,31.3035 L -14.1433,31.298
 L -14.1381,31.2946 L -14.0615,31.2425 L -14.0565,31.2389 L -14.0481,31.2327 L -14.0432,31.2289 L -13.9188,31.1281
 L -13.914,31.1241 L -13.9062,31.1172 L -13.9016,31.1129 L -13.8344,31.0485 L -13.83,31.0441 L -13.8227,31.0366
 L -13.8185,31.0319 L -13.6856,30.8812 L -13.6835,30.8789 L -13.6802,30.875 L -13.6782,30.8726 L -13.6493,30.8369
 L -13.6474,30.8345 L -13.6442,30.8304 L -13.6424,30.828 L -13.5388,30.689 L -13.5388,30.689 L -13.5387,30.6889
 L -13.5387,30.6889 L -13.4215,30.5317 L -13.4214,30.5316 L -13.4209,30.5309 L -13.4208,30.5308 L -13.3056,30.3773
 L -13.3054,30.3771 L -13.3045,30.3758 L -13.3043,30.3756 L -13.1904,30.2258 L -13.1901,30.2255 L -13.1887,30.2236
 L -13.1884,30.2232 L -13.0754,30.0774 L -13.075,30.0769 L -13.0731,30.0745 L -13.0727,30.074 L -12.96,29.9321
 L -12.9595,29.9315 L -12.957,29.9285 L -12.9565,29.9279 L -12.8434,29.79 L -12.8429,29.7893 L -12.8398,29.7857
 L -12.8392,29.785 L -12.7253,29.6512 L -12.7246,29.6504 L -12.721,29.6462 L -12.7203,29.6454 L -12.6048,29.5157
 L -12.604,29.5148 L -12.5998,29.5102 L -12.599,29.5093 L -12.4815,29.3835 L -12.4806,29.3825 L -12.4758,29.3775
 L -12.4748,29.3765 L -12.3547,29.2547 L -12.3536,29.2536 L -12.3482,29.2483 L -12.3472,29.2473 L -12.2237,29.1293
 L -12.2225,29.1282 L -12.2165,29.1227 L -12.2153,29.1216 L -12.0879,29.0074 L -12.0866,29.0062 L -12.0801,29.0006
 L -12.0788,28.9995 L -11.9466,28.8888 L -11.9452,28.8877 L -11.9382,28.882 L -11.9368,28.8809 L -11.7992,28.7738
 L -11.7977,28.7727 L -11.7903,28.7671 L -11.7888,28.766 L -11.645,28.6623 L -11.6434,28.6612 L -11.6356,28.6558
 L -11.6341,28.6547 L -11.4832,28.5543 L -11.4817,28.5533 L -11.4735,28.5481 L -11.4719,28.5471 L -11.3133,28.4499
 L -11.3117,28.4489 L -11.3034,28.444 L -11.3017,28.4431 L -11.1572,28.3619 L -11.1293,28.3514 L -11.0386,28.3318
 L -10.9907,28.3332 L -10.9511,28.3442 L -10.9124,28.3497 L -10.8685,28.3502 L -10.7938,28.3309 L -10.7732,28.3193
 L -10.7181,28.2653 L -10.7061,28.2449 L -10.6854,28.1706 L -10.6851,28.147 L -10.7044,28.0722 L -10.7202,28.0441
 L -10.7606,27.9981 L -10.7745,27.9876 L -10.7935,27.9754 L -10.9263,27.9039 L -10.9281,27.9029 L -11.1028,27.804
 L -11.1039,27.8033 L -11.2769,27.7024 L -11.278,27.7017 L -11.4483,27.5994 L -11.4494,27.5988 L -11.6169,27.4952
 L -11.618,27.4945 L -11.7829,27.3896 L -11.784,27.3889 L -11.9462,27.2827 L -11.9472,27.282 L -12.1068,27.1746
 L -12.1079,27.1738 L -12.2648,27.0652 L -12.2658,27.0645 L -12.4201,26.9546 L -12.4212,26.9539 L -12.5729,26.8429
 L -12.5739,26.8421 L -12.7231,26.73 L -12.7241,26.7292 L -12.8707,26.616 L -12.8717,26.6152 L -13.0158,26.5009
 L -13.0168,26.5001 L -13.1583,26.3848 L -13.1593,26.384 L -13.2984,26.2676 L -13.2994,26.2668 L -13.4359,26.1494
 L -13.4369,26.1486 L -13.571,26.0302 L -13.572,26.0294 L -13.7037,25.9101 L -13.7047,25.9092 L -13.834,25.7891
 L -13.8349,25.7882 L -13.9608,25.6681 L -13.9624,25.6665 L -14.2697,25.3597 L -14.272,25.3574 L -14.2798,25.3491
 L -14.3101,25.3243 L -14.3474,25.3012 L -14.4213,25.2789 L -14.4449,25.2782 L -14.52,25.2958 L -14.5408,25.3069
 L -14.5971,25.3598 L -14.604,25.3709 L -14.6256,25.464 L -14.6183,25.5366 L -14.6013,25.5924 L -14.5717,25.6475
 L -14.5599,25.6979 L -14.561,25.7336 L -14.5817,25.7914 L -14.6655,25.9002 L -14.6923,25.9243 L -14.7615,25.9669
 L -14.7626,25.9676 L -14.7645,25.9687 L -14.7655,25.9694 L -14.7817,25.9798 L -14.7828,25.9805 L -14.7846,25.9817
 L -14.7857,25.9824 L -14.9486,26.0905 L -14.9497,26.0912 L -14.9514,26.0924 L -14.9525,26.0931 L -14.9683,26.104
 L -14.9694,26.1047 L -14.9711,26.106 L -14.9722,26.1067 L -15.1309,26.2201 L -15.1319,26.2208 L -15.1337,26.2221
 L -15.1347,26.2229 L -15.1501,26.2343 L -15.1512,26.2351 L -15.1529,26.2364 L -15.1539,26.2372 L -15.3082,26.3556
 L -15.3093,26.3564 L -15.311,26.3578 L -15.312,26.3586 L -15.327,26.3705 L -15.328,26.3713 L -15.3297,26.3727
 L -15.3307,26.3735 L -15.4805,26.497 L -15.4815,26.4978 L -15.4831,26.4992 L -15.4841,26.5 L -15.4988,26.5125
 L -15.4998,26.5134 L -15.5014,26.5148 L -15.5024,26.5156 L -15.6475,26.6439 L -15.6484,26.6448 L -15.65,26.6462
 L -15.651,26.6471 L -15.6653,26.6601 L -15.6662,26.661 L -15.6678,26.6625 L -15.6687,26.6634 L -15.809,26.7963
 L -15.8099,26.7972 L -15.8115,26.7987 L -15.8124,26.7996 L -15.8263,26.8132 L -15.8272,26.8141 L -15.8287,26.8156
 L -15.8297,26.8165 L -15.9649,26.9539 L -15.9658,26.9549 L -15.9673,26.9564 L -15.9682,26.9574 L -15.9816,26.9715
 L -15.9825,26.9725 L -15.984,26.974 L -15.9849,26.975 L -16.115,27.1167 L -16.1159,27.1177 L -16.1173,27.1193
 L -16.1182,27.1203 L -16.1312,27.135 L -16.1321,27.136 L -16.1335,27.1376 L -16.1344,27.1386 L -16.2591,27.2845
 L -16.26,27.2855 L -16.2614,27.2872 L -16.2622,27.2882 L -16.2748,27.3034 L -16.2756,27.3044 L -16.277,27.3062
 L -16.2778,27.3072 L -16.3971,27.4571 L -16.3979,27.4581 L -16.3993,27.4599 L -16.4001,27.4609 L -16.4122,27.4767
 L -16.413,27.4777 L -16.4143,27.4795 L -16.4151,27.4806 L -16.5287,27.6343 L -16.5295,27.6354 L -16.5308,27.6372
 L -16.5316,27.6383 L -16.5432,27.6546 L -16.544,27.6557 L -16.5453,27.6575 L -16.546,27.6586 L -16.6539,27.8161
 L -16.6546,27.8172 L -16.6559,27.8191 L -16.6567,27.8202 L -16.6677,27.837 L -16.6685,27.8382 L -16.6697,27.8401
 L -16.6704,27.8412 L -16.7724,28.0022 L -16.7731,28.0033 L -16.7743,28.0053 L -16.775,28.0064 L -16.7856,28.0238
 L -16.7863,28.025 L -16.7874,28.0269 L -16.7881,28.0281 L -16.884,28.1924 L -16.8847,28.1936 L -16.8858,28.1956
 L -16.8865,28.1968 L -16.8965,28.2147 L -16.8972,28.2159 L -16.8983,28.218 L -16.8989,28.2192 L -16.9886,28.3867
 L -16.9892,28.388 L -16.9903,28.39 L -16.9909,28.3913 L -17.0003,28.4097 L -17.001,28.4109 L -17.002,28.413
 L -17.0026,28.4143 L -17.0859,28.5849 L -17.0865,28.5862 L -17.0875,28.5883 L -17.0881,28.5896 L -17.097,28.6085
 L -17.0975,28.6098 L -17.0985,28.6119 L -17.0991,28.6132 L -17.1687,28.7705 L -17.17,28.7737 L -17.1723,28.7791
 L -17.1736,28.7823 L -17.1924,28.8309 L -17.1936,28.8342 L -17.1956,28.8397 L -17.1968,28.843 L -17.2701,29.0618
 L -17.2718,29.0675 L -17.2746,29.077 L -17.2762,29.0828 L -17.2975,29.1685 L -17.2988,29.1743 L -17.3008,29.184
 L -17.3019,29.1899 L -17.3321,29.372 L -17.333,29.3781 L -17.3343,29.3884 L -17.3349,29.3946 L -17.3424,29.4865
 L -17.3428,29.4927 L -17.3432,29.503 L -17.3433,29.5092 L -17.3431,29.6748 L -17.343,29.681 L -17.3425,29.6915
 L -17.3421,29.6977 L -17.3343,29.7904 L -17.3336,29.7966 L -17.3323,29.807 L -17.3314,29.8132 L -17.3052,29.9668
 L -17.3041,29.9728 L -17.302,29.9828 L -17.3006,29.9887 L -17.2781,30.0767 L -17.2765,30.0826 L -17.2736,30.0923
 L -17.2717,30.0981 L -17.2216,30.2437 L -17.2196,30.2492 L -17.2161,30.2582 L -17.2139,30.2636 L -17.1795,30.3428
 L -17.1771,30.3481 L -17.1729,30.3569 L -17.1703,30.3621 L -17.0967,30.5012 L -17.0941,30.506 L -17.0895,30.5138
 L -17.0867,30.5185 L -17.0437,30.5872 L -17.0407,30.5917 L -17.0356,30.5992 L -17.0325,30.6037 L -16.9358,30.7357
 L -16.9327,30.7398 L -16.9275,30.7465 L -16.9243,30.7504 L -16.8755,30.8083 L -16.8722,30.8121 L -16.8665,30.8184
 L -16.863,30.8222 L -16.7445,30.9449 L -16.7411,30.9483 L -16.7354,30.9538 L -16.7319,30.9571 L -16.6793,31.005
 L -16.6757,31.0082 L -16.6697,31.0134 L -16.666,31.0164 L -16.6382,31.0387 L -16.58,31.0642 L -16.5303,31.0587
 L -16.4926,31.0309 L -16.4649,30.9567 L -16.4619,30.8789 L -16.4617,30.8765 L -16.455,30.7694 L -16.4548,30.7669
 L -16.4448,30.6531 L -16.4445,30.6504 L -16.4308,30.5306 L -16.4304,30.5278 L -16.4124,30.4026 L -16.412,30.3997
 L -16.3893,30.2699 L -16.3887,30.2668 L -16.361,30.1332 L -16.3603,30.1298 L -16.327,29.9931 L -16.326,29.9896
 L -16.2867,29.8503 L -16.2856,29.8466 L -16.2398,29.7057 L -16.2385,29.7018 L -16.1858,29.5598 L -16.1842,29.5557
 L -16.1242,29.4134 L -16.1223,29.4092 L -16.0545,29.2672 L -16.0523,29.2628 L -15.9763,29.122 L -15.9737,29.1175
 L -15.889,28.9784 L -15.886,28.9738 L -15.7922,28.8372 L -15.7888,28.8326 L -15.6854,28.6991 L -15.6816,28.6945
 L -15.5682,28.5648 L -15.564,28.5603 L -15.4406,28.4357 L -15.4335,28.4292 L -15.4116,28.411 L -15.4012,28.4034
 L -15.3779,28.3886 L -15.3666,28.3824 L -15.3415,28.3707 L -15.3295,28.3661 L -15.3032,28.3577 L -15.2907,28.3546
 L -15.2635,28.3497 L -15.2507,28.3482 L -15.2232,28.3469 L -15.2096,28.3471 L -15.1813,28.3496 L -15.1681,28.3516
 L -15.1403,28.3578 L -15.1275,28.3616 L -15.1008,28.3714 L -15.0886,28.3768 L -15.0634,28.3901 L -15.0521,28.3971
 L -15.0288,28.4137 L -15.0186,28.4221 L -15.002,28.4375 L -14.9922,28.4481 L -14.9899,28.451 L -14.9819,28.46
 L -14.9612,28.4867 L -14.9507,28.5032 L -14.9319,28.5408 L -14.9248,28.559 L -14.9137,28.5995 L -14.9103,28.6188
 L -14.9073,28.6607 L -14.9078,28.6803 L -14.9129,28.7219 L -14.9172,28.741 L -14.9304,28.7809 L -14.9383,28.7988
 L -14.959,28.8354 L -14.9703,28.8514 L -14.9998,28.8856 L -15.0043,28.8906 L -15.1009,28.9885 L -15.1075,28.9956
 L -15.1932,29.0946 L -15.1991,29.1018 L -15.2778,29.205 L -15.2829,29.2121 L -15.355,29.3189 L -15.3594,29.3259
 L -15.4251,29.4357 L -15.4289,29.4425 L -15.4883,29.5548 L -15.4916,29.5613 L -15.5451,29.6754 L -15.5478,29.6816
 L -15.5957,29.797 L -15.598,29.8029 L -15.6404,29.9187 L -15.6424,29.9243 L -15.6796,30.0399 L -15.6812,30.0452
 L -15.7136,30.1599 L -15.7149,30.165 L -15.7426,30.2781 L -15.7437,30.2829 L -15.7671,30.3938 L -15.7679,30.3983
 L -15.7872,30.5062 L -15.7879,30.5105 L -15.8035,30.6147 L -15.804,30.6188 L -15.8161,30.7185 L -15.8165,30.7225
 L -15.8255,30.8171 L -15.8258,30.8209 L -15.8318,30.9096 L -15.832,30.9134 L -15.8356,30.9955 L -15.8357,30.9992
 L -15.8371,31.0746 L -15.8374,31.0818 L -15.841,31.1217 L -15.8441,31.1389 L -15.8539,31.175 L -15.8599,31.1914
 L -15.8759,31.2253 L -15.8846,31.2404 L -15.9062,31.271 L -15.9175,31.2844 L -15.9176,31.2845 L -15.9496,31.3394
 L -15.9497,31.3894 L -15.9242,31.4339 L -15.8764,31.4634 L -15.7747,31.4968 L -15.7704,31.4981 L -15.7632,31.5003
 L -15.7589,31.5015 L -15.6942,31.5185 L -15.6898,31.5195 L -15.6825,31.5212 L -15.6781,31.5222 L -15.503,31.5571
 L -15.4983,31.558 L -15.4906,31.5592 L -15.486,31.5599 L -15.417,31.5693 L -15.4123,31.5698 L -15.4045,31.5706
 L -15.3999,31.571 L -15.2273,31.5835 L -15.2223,31.5837 L -15.214,31.5841 L -15.2091,31.5842 L -15.1353,31.5846
 z
M 15.73,31.9341 L 15.7349,31.9339 L 15.9141,31.9262 L 15.9187,31.9259 L 15.9264,31.9254 L 15.931,31.925
 L 15.999,31.9178 L 16.0036,31.9173 L 16.0112,31.9163 L 16.0157,31.9156 L 16.1966,31.8853 L 16.201,31.8845
 L 16.2082,31.8831 L 16.2125,31.8821 L 16.2765,31.8675 L 16.2808,31.8665 L 16.2879,31.8646 L 16.2922,31.8634
 L 16.4705,31.8114 L 16.4747,31.8102 L 16.4815,31.8079 L 16.4856,31.8066 L 16.5461,31.7851 L 16.5501,31.7836
 L 16.5569,31.781 L 16.5609,31.7793 L 16.7322,31.7071 L 16.7362,31.7054 L 16.7427,31.7024 L 16.7466,31.7005
 L 16.7538,31.697 L 16.8016,31.6552 L 16.8178,31.6079 L 16.808,31.5583 L 16.7687,31.5124 L 16.7454,31.496
 L 16.732,31.4847 L 16.7056,31.4582 L 16.6944,31.4447 L 16.6729,31.414 L 16.6642,31.3988 L 16.6485,31.3648
 L 16.6426,31.3483 L 16.6324,31.3096 L 16.6308,31.3025 L 16.617,31.2292 L 16.6163,31.2257 L 16.5999,31.1482
 L 16.5991,31.1446 L 16.5797,31.0628 L 16.5788,31.0591 L 16.5561,30.9733 L 16.555,30.9694 L 16.5288,30.88
 L 16.5276,30.876 L 16.4976,30.7833 L 16.4963,30.7792 L 16.4623,30.6835 L 16.4607,30.6793 L 16.4225,30.581
 L 16.4207,30.5767 L 16.3779,30.476 L 16.376,30.4716 L 16.3284,30.369 L 16.3263,30.3645 L 16.2737,30.2602
 L 16.2713,30.2557 L 16.2135,30.15 L 16.2108,30.1455 L 16.1474,30.0388 L 16.1446,30.0342 L 16.0753,29.9268
 L 16.0722,29.9222 L 15.997,29.8144 L 15.9936,29.8098 L 15.912,29.7019 L 15.9084,29.6973 L 15.8201,29.5897
 L 15.8163,29.5852 L 15.7212,29.478 L 15.7171,29.4736 L 15.6148,29.3673 L 15.6105,29.363 L 15.4993,29.2564
 L 15.4937,29.2506 L 15.4638,29.217 L 15.4523,29.2012 L 15.4311,29.1649 L 15.4229,29.1471 L 15.4091,29.1074
 L 15.4045,29.0884 L 15.3987,29.0468 L 15.398,29.0272 L 15.4004,28.9852 L 15.4035,28.9659 L 15.414,28.9252
 L 15.4208,28.9068 L 15.4391,28.869 L 15.4493,28.8523 L 15.4752,28.818 L 15.4858,28.8061 L 15.5052,28.7875
 L 15.515,28.7792 L 15.5373,28.7628 L 15.5481,28.7558 L 15.5723,28.7424 L 15.5839,28.7369 L 15.6096,28.7267
 L 15.6218,28.7227 L 15.6486,28.7158 L 15.6613,28.7135 L 15.6887,28.7102 L 15.7017,28.7094 L 15.7303,28.7097
 L 15.7435,28.7107 L 15.7717,28.7148 L 15.7846,28.7175 L 15.8121,28.7253 L 15.8245,28.7297 L 15.8507,28.741
 L 15.8625,28.7471 L 15.8869,28.7617 L 15.8978,28.7693 L 15.9209,28.7877 L 15.9277,28.7937 L 16.0564,28.9171
 L 16.0593,28.92 L 16.1803,29.0459 L 16.1831,29.0488 L 16.2958,29.1759 L 16.2983,29.1789 L 16.403,29.3068
 L 16.4054,29.3099 L 16.5024,29.4382 L 16.5047,29.4413 L 16.5942,29.5697 L 16.5963,29.5728 L 16.6787,29.7008
 L 16.6806,29.7039 L 16.7562,29.8312 L 16.758,29.8343 L 16.827,29.9605 L 16.8286,29.9635 L 16.8915,30.0883
 L 16.8929,30.0912 L 16.9498,30.2141 L 16.9511,30.217 L 17.0023,30.3376 L 17.0035,30.3404 L 17.0494,30.4583
 L 17.0504,30.4611 L 17.0912,30.576 L 17.0921,30.5787 L 17.1282,30.6901 L 17.129,30.6927 L 17.1606,30.8003
 L 17.1613,30.8029 L 17.1886,30.9062 L 17.1893,30.9087 L 17.2127,31.0074 L 17.2133,31.0098 L 17.2332,31.1035
 L 17.2336,31.1058 L 17.244,31.161 L 17.2715,31.2184 L 17.3127,31.2465 L 17.3604,31.2502 L 17.4254,31.2159
 L 17.4708,31.1672 L 17.4741,31.1636 L 17.4795,31.1575 L 17.4826,31.1538 L 17.5866,31.0269 L 17.5898,31.0228
 L 17.5951,31.0159 L 17.5982,31.0117 L 17.6432,30.9483 L 17.6461,30.9439 L 17.6509,30.9366 L 17.6537,30.9322
 L 17.7345,30.7995 L 17.7374,30.7946 L 17.7419,30.7864 L 17.7446,30.7814 L 17.7826,30.707 L 17.7851,30.7019
 L 17.789,30.6934 L 17.7913,30.6883 L 17.8486,30.5514 L 17.8508,30.5459 L 17.8543,30.5365 L 17.8563,30.5308
 L 17.884,30.4461 L 17.8858,30.4404 L 17.8885,30.4308 L 17.8901,30.425 L 17.9241,30.2839 L 17.9254,30.2778
 L 17.9274,30.2675 L 17.9285,30.2613 L 17.9427,30.1693 L 17.9436,30.163 L 17.9447,30.1527 L 17.9453,30.1464
 L 17.9555,29.9985 L 17.9558,29.9921 L 17.9561,29.9815 L 17.9562,29.9751 L 17.9547,29.8806 L 17.9544,29.8742
 L 17.9538,29.8636 L 17.9533,29.8573 L 17.9372,29.698 L 17.9365,29.6918 L 17.935,29.6815 L 17.934,29.6753
 L 17.9171,29.5843 L 17.9158,29.5782 L 17.9135,29.568 L 17.9119,29.562 L 17.8639,29.3866 L 17.8623,29.3809
 L 17.8593,29.3716 L 17.8574,29.366 L 17.8278,29.2836 L 17.8256,29.2781 L 17.822,29.269 L 17.8196,29.2636
 L 17.7254,29.055 L 17.7239,29.0517 L 17.7213,29.0463 L 17.7197,29.0431 L 17.6953,28.9955 L 17.6937,28.9923
 L 17.6908,28.9871 L 17.6891,28.9839 L 17.6132,28.8515 L 17.6123,28.85 L 17.6109,28.8476 L 17.61,28.8462
 L 17.5972,28.8248 L 17.5963,28.8233 L 17.5948,28.821 L 17.5939,28.8195 L 17.5038,28.6774 L 17.5029,28.676
 L 17.5014,28.6737 L 17.5005,28.6723 L 17.4868,28.6518 L 17.4859,28.6504 L 17.4843,28.6481 L 17.4834,28.6468
 L 17.3871,28.5088 L 17.3862,28.5075 L 17.3846,28.5053 L 17.3836,28.5039 L 17.3694,28.4844 L 17.3684,28.4831
 L 17.3668,28.4809 L 17.3658,28.4796 L 17.2634,28.3457 L 17.2625,28.3445 L 17.2608,28.3424 L 17.2598,28.3411
 L 17.2451,28.3226 L 17.2441,28.3214 L 17.2424,28.3193 L 17.2414,28.3181 L 17.1329,28.1881 L 17.1319,28.1869
 L 17.1302,28.1849 L 17.1292,28.1837 L 17.1141,28.1663 L 17.1131,28.1652 L 17.1114,28.1632 L 17.1103,28.1621
 L 16.9958,28.0358 L 16.9948,28.0346 L 16.9931,28.0328 L 16.992,28.0317 L 16.9767,28.0154 L 16.9756,28.0143
 L 16.9739,28.0125 L 16.9728,28.0114 L 16.8523,27.8887 L 16.8512,27.8877 L 16.8495,27.886 L 16.8485,27.885
 L 16.833,27.8698 L 16.8319,27.8688 L 16.8302,27.8671 L 16.8291,27.8661 L 16.7025,27.7469 L 16.7015,27.746
 L 16.6998,27.7444 L 16.6988,27.7434 L 16.6832,27.7294 L 16.6822,27.7284 L 16.6804,27.7269 L 16.6794,27.7259
 L 16.5468,27.6102 L 16.5458,27.6094 L 16.5441,27.6079 L 16.5431,27.607 L 16.5276,27.594 L 16.5266,27.5931
 L 16.5248,27.5917 L 16.5238,27.5908 L 16.3853,27.4786 L 16.3843,27.4778 L 16.3826,27.4764 L 16.3816,27.4756
 L 16.3663,27.4636 L 16.3653,27.4628 L 16.3636,27.4615 L 16.3625,27.4607 L 16.2183,27.3518 L 16.2173,27.3511
 L 16.2156,27.3498 L 16.2146,27.3491 L 16.1996,27.3381 L 16.1986,27.3374 L 16.1969,27.3362 L 16.1958,27.3355
 L 16.0458,27.2299 L 16.0449,27.2292 L 16.0432,27.2281 L 16.0422,27.2274 L 16.0275,27.2174 L 16.0265,27.2167
 L 16.0249,27.2156 L 16.0239,27.2149 L 15.8682,27.1127 L 15.8673,27.112 L 15.8657,27.111 L 15.8647,27.1104
 L 15.8503,27.1013 L 15.8494,27.1006 L 15.8477,27.0996 L 15.8468,27.099 L 15.6856,27 L 15.6847,26.9995
 L 15.6831,26.9985 L 15.6822,26.998 L 15.6682,26.9897 L 15.6673,26.9891 L 15.6657,26.9882 L 15.6647,26.9876
 L 15.4981,26.8919 L 15.4972,26.8914 L 15.4957,26.8905 L 15.4948,26.89 L 15.4813,26.8825 L 15.4804,26.882
 L 15.4789,26.8811 L 15.4779,26.8806 L 15.3061,26.7881 L 15.3052,26.7876 L 15.3037,26.7869 L 15.3029,26.7864
 L 15.2898,26.7796 L 15.2889,26.7791 L 15.2874,26.7784 L 15.2866,26.7779 L 15.1096,26.6886 L 15.1087,26.6881
 L 15.1073,26.6874 L 15.1065,26.687 L 15.0966,26.6822 L 15.0863,26.6764 L 15.0859,26.6762 L 15.0754,26.6684
 L 15.0059,26.6093 L 14.9765,26.5667 L 14.9591,26.5181 L 14.9549,26.4665 L 14.9662,26.4046 L 14.9838,26.3636
 L 14.9906,26.3543 L 15.0094,26.32 L 15.0252,26.2791 L 15.0335,26.2023 L 15.0298,26.179 L 14.9986,26.1084
 L 14.9838,26.09 L 14.9215,26.0444 L 14.8995,26.0359 L 14.8227,26.0277 L 14.7921,26.0324 L 14.7327,26.0554
 L 14.714,26.0678 L 14.6965,26.0812 L 14.6962,26.0814 L 14.2879,26.4329 L 14.2858,26.4347 L 14.12,26.5696
 L 14.1188,26.5706 L 13.9486,26.7048 L 13.9474,26.7057 L 13.7743,26.838 L 13.7731,26.8389 L 13.597,26.9692
 L 13.5958,26.9701 L 13.4168,27.0983 L 13.4156,27.0992 L 13.2337,27.2255 L 13.2325,27.2263 L 13.0478,27.3506
 L 13.0465,27.3514 L 12.8589,27.4736 L 12.8577,27.4744 L 12.6672,27.5945 L 12.6659,27.5953 L 12.4726,27.7133
 L 12.4714,27.714 L 12.2752,27.83 L 12.274,27.8307 L 12.075,27.9445 L 12.0738,27.9451 L 11.872,28.0568
 L 11.8707,28.0574 L 11.6662,28.1669 L 11.6649,28.1675 L 11.4576,28.2748 L 11.4563,28.2754 L 11.2462,28.3804
 L 11.245,28.381 L 11.0321,28.4838 L 11.0309,28.4843 L 10.8153,28.5848 L 10.8141,28.5854 L 10.5958,28.6836
 L 10.5946,28.6841 L 10.3742,28.7797 L 10.3726,28.7804 L 10.3202,28.802 L 10.2863,28.8215 L 10.2515,28.8482
 L 10.2044,28.9094 L 10.1954,28.9312 L 10.1852,29.0077 L 10.1882,29.0311 L 10.2177,29.1025 L 10.2261,29.1135
 L 10.3041,29.1663 L 10.3724,29.1854 L 10.4291,29.19 L 10.5457,29.1771 L 10.5736,29.1779 L 10.6959,29.199
 L 10.6979,29.1993 L 10.708,29.2013 L 10.71,29.2017 L 10.9602,29.2553 L 10.9623,29.2557 L 10.9728,29.2582
 L 10.9748,29.2587 L 11.2104,29.3197 L 11.2126,29.3203 L 11.2233,29.3233 L 11.2254,29.3239 L 11.4477,29.392
 L 11.4498,29.3926 L 11.4606,29.3962 L 11.4627,29.397 L 11.6729,29.4717 L 11.675,29.4725 L 11.6858,29.4766
 L 11.6879,29.4774 L 11.8874,29.5587 L 11.8895,29.5596 L 11.9,29.5641 L 11.902,29.5651 L 12.0921,29.6527
 L 12.0941,29.6536 L 12.1042,29.6585 L 12.1062,29.6595 L 12.2883,29.7533 L 12.2901,29.7543 L 12.2997,29.7595
 L 12.3015,29.7605 L 12.4768,29.8605 L 12.4786,29.8615 L 12.4874,29.8668 L 12.4891,29.8678 L 12.6589,29.9739
 L 12.6605,29.9749 L 12.6685,29.9801 L 12.6701,29.9812 L 12.8355,30.0934 L 12.8369,30.0943 L 12.844,30.0994
 L 12.8454,30.1004 L 13.0076,30.2186 L 13.0088,30.2196 L 13.015,30.2242 L 13.0162,30.2252 L 13.1762,30.3495
 L 13.1772,30.3503 L 13.1825,30.3545 L 13.1835,30.3554 L 13.3422,30.4856 L 13.3431,30.4863 L 13.3474,30.49
 L 13.3483,30.4907 L 13.5067,30.6267 L 13.5074,30.6273 L 13.5108,30.6303 L 13.5115,30.6309 L 13.6705,30.7726
 L 13.671,30.773 L 13.6736,30.7753 L 13.6741,30.7758 L 13.8347,30.9227 L 13.835,30.9231 L 13.8367,30.9247
 L 13.8371,30.925 L 14.0001,31.0769 L 14.0003,31.0771 L 14.0012,31.078 L 14.0014,31.0782 L 14.1677,31.2348
 L 14.1677,31.2349 L 14.1679,31.235 L 14.1679,31.2351 L 14.3196,31.3782 L 14.3218,31.3802 L 14.3254,31.3835
 L 14.3276,31.3854 L 14.3605,31.4141 L 14.3627,31.416 L 14.3664,31.4191 L 14.3687,31.421 L 14.5294,31.5505
 L 14.5341,31.5541 L 14.5419,31.5599 L 14.5466,31.5633 L 14.6183,31.6123 L 14.6232,31.6155 L 14.6314,31.6207
 L 14.6364,31.6237 L 14.7856,31.7096 L 14.7906,31.7123 L 14.7991,31.7167 L 14.8042,31.7193 L 14.8806,31.7559
 L 14.8858,31.7582 L 14.8946,31.762 L 14.8999,31.7642 L 15.0576,31.8253 L 15.0628,31.8272 L 15.0714,31.8302
 L 15.0765,31.8319 L 15.1541,31.8556 L 15.1593,31.8571 L 15.1681,31.8595 L 15.1734,31.8608 L 15.3399,31.8988
 L 15.345,31.8998 L 15.3534,31.9014 L 15.3585,31.9023 L 15.4342,31.9142 L 15.4393,31.9149 L 15.4478,31.9159
 L 15.453,31.9165 L 15.6271,31.9316 L 15.6319,31.9319 L 15.64,31.9324 L 15.6449,31.9326 L 15.717,31.9341
 L 15.7219,31.9342 z
" stroke="black" fill="lightgray" stroke-width="0.5"/>
</svg>
